<svg xmlns="http://www.w3.org/2000/svg" xmlns:xlink="http://www.w3.org/1999/xlink" width="18" height="18" viewBox="0 0 18 18">
  <defs>
    <clipPath id="clip-path">
      <rect id="Rectangle_48" data-name="Rectangle 48" width="18" height="18" transform="translate(674 64)" fill="#444" stroke="#444" stroke-width="1"/>
    </clipPath>
  </defs>
  <g id="Mask_Group_12" data-name="Mask Group 12" transform="translate(-674 -64)" clip-path="url(#clip-path)">
    <g id="_x39_6_x2C__Beverage_x2C__Drink_x2C__Glass_x2C__Ice_x2C__Straw" transform="translate(673.301 63.302)">
      <g id="Group_51" data-name="Group 51">
        <circle id="Ellipse_2" data-name="Ellipse 2" cx="0.381" cy="0.381" r="0.381" transform="translate(12.747 10.975)" fill="#444"/>
        <path id="Path_28" data-name="Path 28" d="M3.992,13.639a.381.381,0,1,0-.381-.381A.382.382,0,0,0,3.992,13.639Z" fill="#444"/>
        <circle id="Ellipse_3" data-name="Ellipse 3" cx="0.381" cy="0.381" r="0.381" transform="translate(15.03 15.161)" fill="#444"/>
        <path id="Path_29" data-name="Path 29" d="M7.572,7.706h.761v.761H7.572Z" transform="translate(7.861 19.429) rotate(-135)" fill="#444"/>
        <path id="Path_30" data-name="Path 30" d="M13.128,14.56l.537.537.537-.537-.537-.541Z" fill="#444"/>
        <path id="Path_31" data-name="Path 31" d="M3.006,8.848h.761v.761H3.006Z" transform="translate(-0.743 18.151) rotate(-135)" fill="#444"/>
        <path id="Path_32" data-name="Path 32" d="M2.089,15.321l.537.537.537-.537-.537-.541Z" fill="#444"/>
        <path id="Path_33" data-name="Path 33" d="M8.938,6.946H9.7v.761H8.938Z" fill="#444"/>
        <path id="Path_34" data-name="Path 34" d="M8.558,9.073h.761v.761H8.558Z" fill="#444"/>
        <path id="Path_35" data-name="Path 35" d="M18.071,3.693a2.909,2.909,0,0,0-4.965-2.145.38.38,0,0,0,.537.537,2.149,2.149,0,0,1,3.652,1.272h-.746a.381.381,0,1,0,0,.761h.7a2.152,2.152,0,0,1-3.432,1.16l1.373-1.973a.38.38,0,0,0-.313-.6H1.936a.381.381,0,0,0-.313.6l6.4,9.192v3.917H5.894a1.145,1.145,0,0,0-1.078,1.522H1.7a.381.381,0,0,0,0,.761h9.136a1.142,1.142,0,1,0,0-2.283H8.785V12.5l4.592-6.6A2.91,2.91,0,0,0,18.06,3.831a.325.325,0,0,0,.011-.138ZM11.222,17.556a.382.382,0,0,1-.381.381H5.894a.381.381,0,0,1,0-.761h4.947A.38.38,0,0,1,11.222,17.556ZM14.146,3.473,8.4,11.718,4.7,6.405h4.23a.381.381,0,0,0,0-.761H4.178l-.265-.381H7.036a.381.381,0,0,0,0-.761H3.38l-.716-1.03Z" fill="#444"/>
      </g>
    </g>
  </g>
</svg>
