<svg xmlns="http://www.w3.org/2000/svg" xmlns:xlink="http://www.w3.org/1999/xlink" width="102" height="92" viewBox="0 0 102 92">
  <defs>
    <filter id="Rectangle_35" x="5" y="0" width="92" height="92" filterUnits="userSpaceOnUse">
      <feOffset input="SourceAlpha"/>
      <feGaussianBlur stdDeviation="2" result="blur"/>
      <feFlood flood-opacity="0.161"/>
      <feComposite operator="in" in2="blur"/>
      <feComposite in="SourceGraphic"/>
    </filter>
  </defs>
  <g id="Group_635" data-name="Group 635" transform="translate(-639 -123)">
    <g id="Group_627" data-name="Group 627" transform="translate(0 -36)">
      <rect id="Rectangle_36" data-name="Rectangle 36" width="37" height="102" rx="11" transform="translate(639 223.5) rotate(-90)" fill="#d9e4fa"/>
      <g transform="matrix(1, 0, 0, 1, 639, 159)" filter="url(#Rectangle_35)">
        <rect id="Rectangle_35-2" data-name="Rectangle 35" width="80" height="80" rx="12" transform="translate(11 6)" fill="#fff"/>
      </g>
      <g id="Rectangle_37" data-name="Rectangle 37" transform="translate(718 165)" fill="#d4c500" stroke="#fff" stroke-width="1.5">
        <path d="M0,0H0A12,12,0,0,1,12,12V68A12,12,0,0,1,0,80H0a0,0,0,0,1,0,0V0A0,0,0,0,1,0,0Z" stroke="none"/>
        <path d="M1.406.75h0a9.844,9.844,0,0,1,9.844,9.844V69.406A9.844,9.844,0,0,1,1.406,79.25h0a.656.656,0,0,1-.656-.656V1.406A.656.656,0,0,1,1.406.75Z" fill="none"/>
      </g>
    </g>
  </g>
</svg>
