<svg xmlns="http://www.w3.org/2000/svg" xmlns:xlink="http://www.w3.org/1999/xlink" width="158" height="158" viewBox="0 0 158 158">
  <defs>
    <clipPath id="clip-path">
      <rect id="Rectangle_26" data-name="Rectangle 26" width="158" height="158" transform="translate(562 305)" fill="#fff" stroke="#707070" stroke-width="1"/>
    </clipPath>
  </defs>
  <g id="Mask_Group_16" data-name="Mask Group 16" transform="translate(-562 -305)" clip-path="url(#clip-path)">
    <g id="cooking" transform="translate(562 305)">
      <g id="Group_279" data-name="Group 279">
        <path id="Path_385" data-name="Path 385" d="M112.361,111.692a126.029,126.029,0,0,0-14.507,4.645l1.27,2.459a94.455,94.455,0,0,1,14.766-4.509l2.956,5.022,30.906-3.566,2.781-8.7C136.026,106.532,122.194,109.125,112.361,111.692Z" fill="#04112b"/>
        <path id="Path_386" data-name="Path 386" d="M112.361,111.692a126.029,126.029,0,0,0-14.507,4.645l1.27,2.459a94.455,94.455,0,0,1,14.766-4.509l2.956,5.022,30.906-3.566,2.781-8.7C136.026,106.532,122.194,109.125,112.361,111.692Z" fill="#fff" opacity="0.5"/>
        <path id="Path_387" data-name="Path 387" d="M149.1,107.731s-20.514,11.819-35.035,4.391C114.067,112.121,133.568,107.984,149.1,107.731Z" fill="#04112b"/>
      </g>
      <g id="Group_281" data-name="Group 281">
        <path id="Path_388" data-name="Path 388" d="M150.7,91.7a.875.875,0,0,0-.109-.352c-1.4-3.214-5.024-5.538-8.239-6.509-3.511-1.054-7.321-.919-10.968-.838a23.5,23.5,0,0,0-3.106.242c-1.675-.27-3.323-.378-4.594-.485-3.782-.325-7.942-.3-11.373,1.7-1.323.81-4.484,3.107-4.89,5.052a2.329,2.329,0,0,0-.027.431c.108,3.269,8.429,2.351,10.509,2.351,5.618,0,12.534-1.108,17.748,1.512,2.917,1.486,4.944,5.62,8.725,4.62C147.588,98.589,151.938,95.294,150.7,91.7Z" fill="#fcd90d"/>
        <path id="Path_389" data-name="Path 389" d="M107.424,90.941a2.111,2.111,0,0,0,.108.426,1.8,1.8,0,0,0,.766.888,5.234,5.234,0,0,0,1.784.614,17.948,17.948,0,0,0,2.493.238c.923.03,1.927,0,2.992-.021s2.209-.027,3.373.016,2.37-.01,3.6-.052c1.225-.058,2.47-.123,3.72-.169A27.606,27.606,0,0,1,130,92.96a19.546,19.546,0,0,1,3.595.66,12.426,12.426,0,0,1,1.652.611l.393.176c.072.034.115.048.21.1l.179.1a6.5,6.5,0,0,1,.706.457,22.214,22.214,0,0,1,2.295,2.024,14.4,14.4,0,0,0,1.927,1.588,4.626,4.626,0,0,0,1.739.722,2.821,2.821,0,0,0,.7.074,2.079,2.079,0,0,0,.526-.024l.442-.056.017.065-.439.109a2.186,2.186,0,0,1-.539.088,3.035,3.035,0,0,1-.746.008,4.652,4.652,0,0,1-1.926-.61,12.03,12.03,0,0,1-2.1-1.526c-.715-.6-1.46-1.3-2.3-1.881a11.948,11.948,0,0,0-2.949-1.358,27.859,27.859,0,0,0-7.133-1.038c-1.241-.051-2.486-.038-3.71.008s-2.428.125-3.6.207c-1.171.039-2.277.154-3.356.211a26.938,26.938,0,0,1-3.038-.015,8.421,8.421,0,0,1-4.415-1.175A1.972,1.972,0,0,1,107.4,91.4a2.228,2.228,0,0,1-.044-.453Z" fill="#f44500"/>
        <g id="Group_280" data-name="Group 280" opacity="0.3">
          <path id="Path_390" data-name="Path 390" d="M117.359,88.9c0,.606-1.248,1.1-2.786,1.1s-2.785-.491-2.785-1.1,1.247-1.1,2.785-1.1S117.359,88.3,117.359,88.9Z" fill="#fff"/>
          <path id="Path_391" data-name="Path 391" d="M121.5,88.145c0,.185-.472.338-1.055.338s-1.055-.152-1.055-.338.472-.338,1.055-.338S121.5,87.959,121.5,88.145Z" fill="#fff"/>
          <path id="Path_392" data-name="Path 392" d="M142.516,92.525A2.009,2.009,0,1,1,140.575,90,2.29,2.29,0,0,1,142.516,92.525Z" fill="#fff"/>
          <path id="Path_393" data-name="Path 393" d="M145.64,94.435a.783.783,0,1,1-.76-.971A.885.885,0,0,1,145.64,94.435Z" fill="#fff"/>
          <path id="Path_394" data-name="Path 394" d="M139.9,87.174c0,.957-1.454,1.731-3.25,1.731s-3.25-.774-3.25-1.731,1.455-1.731,3.25-1.731S139.9,86.218,139.9,87.174Z" fill="#fff"/>
          <path id="Path_395" data-name="Path 395" d="M131.584,87.554c0,.746-1.427,1.351-3.187,1.351s-3.187-.6-3.187-1.351S126.637,86.2,128.4,86.2,131.584,86.808,131.584,87.554Z" fill="#fff"/>
          <path id="Path_396" data-name="Path 396" d="M146.738,90.014a.945.945,0,1,1-.929-.771A.861.861,0,0,1,146.738,90.014Z" fill="#fff"/>
        </g>
      </g>
      <g id="Group_282" data-name="Group 282">
        <path id="Path_397" data-name="Path 397" d="M109.086,101.4a10.655,10.655,0,0,1-2.992-2.207,8.836,8.836,0,0,1-.889-1.049,10.323,10.323,0,0,1-.785-1.255,8.611,8.611,0,0,1-.562-1.432c-.065-.251-.144-.5-.194-.751q-.044-.385-.087-.765a6.769,6.769,0,0,1,.022-1.49,7.732,7.732,0,0,1,.283-1.355,5.672,5.672,0,0,1,.442-1.148,4.819,4.819,0,0,1,.472-.917l.439-.661c.244-.363.391-.563.391-.563l-.277.629-.328.707a6.643,6.643,0,0,0-.336.945,6.776,6.776,0,0,0-.314,1.131l-.106.629a2.854,2.854,0,0,0-.073.656,7.424,7.424,0,0,0,.035,1.375q.044.348.09.7c.049.231.128.457.19.687A7.949,7.949,0,0,0,105,96.6a12.628,12.628,0,0,0,.689,1.206,11.63,11.63,0,0,0,.778,1.054c.255.333.537.613.781.889a16.233,16.233,0,0,0,1.3,1.222C108.884,101.25,109.086,101.4,109.086,101.4Z" fill="#04112b"/>
        <path id="Path_398" data-name="Path 398" d="M102.247,99.582a4.9,4.9,0,0,1-.51-.62c-.15-.207-.32-.469-.5-.777A7.948,7.948,0,0,1,100.7,97.1a9.765,9.765,0,0,1-.455-1.362,9.038,9.038,0,0,1-.226-1.6,8.707,8.707,0,0,1,.056-1.729,6.1,6.1,0,0,1,.174-.873,6.844,6.844,0,0,1,.229-.867l.335-.832.167-.413.218-.384a10.038,10.038,0,0,1,.919-1.448c.346-.434.663-.868,1.009-1.236l1.025-.988a6.382,6.382,0,0,1,.922-.763l.741-.547.651-.464-.568.565-.658.634a8.7,8.7,0,0,0-.816.85l-.917,1.042c-.311.379-.583.821-.9,1.246a11.669,11.669,0,0,0-.827,1.408l-.2.366-.151.391-.3.784a6.258,6.258,0,0,0-.224.807,5.525,5.525,0,0,0-.174.813,9.457,9.457,0,0,0-.108,1.613,10.68,10.68,0,0,0,.125,1.516,12.69,12.69,0,0,0,.326,1.333,10.469,10.469,0,0,0,.784,1.921A7.44,7.44,0,0,0,102.247,99.582Z" fill="#04112b"/>
        <path id="Path_399" data-name="Path 399" d="M147.243,102.859s.206-.038.551-.138a9.024,9.024,0,0,0,1.383-.513c.281-.114.562-.284.867-.442a9.871,9.871,0,0,0,.892-.6l.443-.352.412-.4a7.7,7.7,0,0,0,.766-.892c.223-.324.434-.66.628-1,.152-.36.347-.7.48-1.045s.239-.7.351-1.028l.222-.955a5.651,5.651,0,0,0,.163-.82l.094-.642c.054-.358.1-.564.1-.564s.019.205.036.569c.008.182.016.4.026.658a3.907,3.907,0,0,1-.029.855c-.033.313-.059.655-.116,1.014-.09.353-.184.726-.281,1.112-.124.378-.3.758-.461,1.145-.2.369-.423.74-.662,1.1a8.371,8.371,0,0,1-.854.958c-.155.145-.308.289-.468.422l-.5.354a7.122,7.122,0,0,1-1,.565,7.224,7.224,0,0,1-.963.357,7.078,7.078,0,0,1-1.5.28A3.454,3.454,0,0,1,147.243,102.859Z" fill="#04112b"/>
        <path id="Path_400" data-name="Path 400" d="M151.465,103.847s.193-.128.51-.373a15.387,15.387,0,0,0,1.258-1.065c.251-.23.512-.486.777-.768s.523-.6.806-.907c.252-.335.524-.673.763-1.041a9.452,9.452,0,0,0,.675-1.142c.1-.2.218-.388.307-.591s.165-.409.247-.612a11.376,11.376,0,0,0,.656-2.4,7,7,0,0,0,.127-1.079c.012-.337.076-.65.059-.925s-.014-.519-.019-.719c0-.4,0-.634,0-.634s.054.222.134.618c.038.2.085.441.139.719a6.207,6.207,0,0,1,.077.948,5.585,5.585,0,0,1-.014,1.132,7.321,7.321,0,0,1-.175,1.258,8,8,0,0,1-.371,1.31,8.44,8.44,0,0,1-.567,1.288,10.127,10.127,0,0,1-.736,1.2,12.625,12.625,0,0,1-.85,1.058,11.778,11.778,0,0,1-.907.882,9.251,9.251,0,0,1-.882.7,10.82,10.82,0,0,1-1.433.877A4.739,4.739,0,0,1,151.465,103.847Z" fill="#04112b"/>
      </g>
      <g id="Group_286" data-name="Group 286">
        <path id="Path_401" data-name="Path 401" d="M82.835,99.616,55.9,101.562l-.081,10.886-6.753,3.89-5.079-5.564,1.27-8.862-25.907.917,2.458-15.452s-20.017,3.89-20.1-6.24c-.026-4.781,2.376-8.455,5.754-9.914,3.755-1.649,5.835-13.081,11.289-28.013,0,0,26.959-11.9,30.688-18.464,0,0,13.89,20.083,18.942,20.3C81,58.527,82.835,99.616,82.835,99.616Z" fill="#ffb08d"/>
        <path id="Path_402" data-name="Path 402" d="M52.73,86.077s-1.038-.176-2.807-.281c-.443-.014-.928-.033-1.452-.027s-1.083.05-1.667.111a8.783,8.783,0,0,0-3.539,1.142,6.456,6.456,0,0,0-2.574,3.2c-.162.352-.277.74-.418,1.128-.116.393-.269.882-.363,1.277a14.638,14.638,0,0,0-.476,2.651,5.845,5.845,0,0,0,1.844,5.056,8.38,8.38,0,0,0,5.505,1.687,36.44,36.44,0,0,0,5.94-.632c1.955-.331,3.865-.791,5.7-1.285l.613-.2a1.137,1.137,0,0,0,.266-.114l.217-.1a5.126,5.126,0,0,0,.889-.564,4.926,4.926,0,0,0,1.305-1.609,7.847,7.847,0,0,0-.513-7.524,5.033,5.033,0,0,0-1.039-1.08,4.066,4.066,0,0,0-1.149-.584,5.061,5.061,0,0,0-1.925-.173l-.722.114-.1-.251.689-.359a5.1,5.1,0,0,1,2.241-.4,5.227,5.227,0,0,1,3.339,1.567,8.48,8.48,0,0,1,2.239,4.2,9.192,9.192,0,0,1-.5,5.717,7.029,7.029,0,0,1-3.57,3.573,6.994,6.994,0,0,1-.85.32l-.35.094-.176.047-.163.044-.091.019a49.934,49.934,0,0,1-6.056.923,23.516,23.516,0,0,1-6.389-.266,12.458,12.458,0,0,1-5.9-2.538A8.8,8.8,0,0,1,38,95.333a14.726,14.726,0,0,1-.07-3.044c.043-.53.1-.942.168-1.443a10.372,10.372,0,0,1,.374-1.457,7.561,7.561,0,0,1,3.671-4.369,9.351,9.351,0,0,1,4.6-.938,13.264,13.264,0,0,1,3.386.588,13.955,13.955,0,0,1,2.022.79c.446.226.677.364.677.364Z" fill="#04112b"/>
        <path id="Path_403" data-name="Path 403" d="M68.816,52.012,66.537,86.878H54.718s-1.941-8.948,5.826-3.545c0,0-5.572-2.28-5.065,2.364h9.539l3.8-34.022" fill="#04112b"/>
        <g id="Group_283" data-name="Group 283">
          <path id="Path_404" data-name="Path 404" d="M45.295,86.889a8.944,8.944,0,0,0-.178,1.95,5.3,5.3,0,0,0,.094.955,5.215,5.215,0,0,0,.263.9,3.172,3.172,0,0,0,.469.782,3.011,3.011,0,0,0,.669.6l.4.224.423.182a6.906,6.906,0,0,0,.908.24,7.973,7.973,0,0,0,.951.128,8.9,8.9,0,0,0,.974.022,11.578,11.578,0,0,0,1.958-.193,15.591,15.591,0,0,0,1.918-.48c.637-.173,1.247-.434,1.867-.657l.525-.189-.317.474c-1.111,1.663-2.3,3.269-3.469,4.885l-.369-.553a10.278,10.278,0,0,1,1.261-.239,9.41,9.41,0,0,1,1.277-.09,5.785,5.785,0,0,1,2.555.491,2.909,2.909,0,0,1,1.061.843,2.293,2.293,0,0,1,.329.6,3.281,3.281,0,0,1,.169.646,4.206,4.206,0,0,1-.048,1.287,6.963,6.963,0,0,1-.348,1.207l-.064-.019a9.025,9.025,0,0,0,.162-1.217,4.654,4.654,0,0,0-.086-1.185,2.909,2.909,0,0,0-.2-.535,2.039,2.039,0,0,0-.312-.458,2.367,2.367,0,0,0-.9-.629,5.863,5.863,0,0,0-2.3-.321,13.441,13.441,0,0,0-2.374.306l-.971.218.6-.771c1.229-1.573,2.445-3.157,3.736-4.684l.208.285c-.641.185-1.28.366-1.923.537-.32.089-.642.175-.968.243s-.644.168-.973.223c-.651.139-1.306.278-1.975.353a8.884,8.884,0,0,1-1.012.075,7.073,7.073,0,0,1-1.026-.045,5.5,5.5,0,0,1-1.021-.228l-.492-.2c-.156-.087-.311-.18-.461-.278a3.59,3.59,0,0,1-.773-.751,3.71,3.71,0,0,1-.514-.937,4.991,4.991,0,0,1-.227-2.052,6.592,6.592,0,0,1,.467-1.96Z" fill="#04112b"/>
          <path id="Path_405" data-name="Path 405" d="M46.094,88a1.4,1.4,0,0,0-.069-.131,1.641,1.641,0,0,0-.247-.328,1.148,1.148,0,0,0-.464-.314A1.065,1.065,0,0,0,45,87.163a1.23,1.23,0,0,0-.343.041,1.913,1.913,0,0,0-.662.306,4.29,4.29,0,0,0-.525.414c-.28.279-.462.476-.462.476s.147-.221.384-.548a4.435,4.435,0,0,1,.472-.511,2.187,2.187,0,0,1,.688-.458,1.6,1.6,0,0,1,.43-.12,1.5,1.5,0,0,1,.447.019,1.653,1.653,0,0,1,.72.33,2.26,2.26,0,0,1,.4.383,1.972,1.972,0,0,1,.13.175Z" fill="#04112b"/>
        </g>
        <path id="Path_406" data-name="Path 406" d="M42.663,67.73s.072.447.241,1.244.431,1.927.83,3.259A22.087,22.087,0,0,0,45.5,76.6a7.2,7.2,0,0,0,1.57,2.012,2.393,2.393,0,0,0,2.292.57,2.914,2.914,0,0,0,1.576-1.846,10.923,10.923,0,0,0,.594-2.587,29.773,29.773,0,0,0,.122-4.794,45.9,45.9,0,0,0-.437-4.684,45.868,45.868,0,0,1,.648,4.67,30.077,30.077,0,0,1,.093,4.85,11.356,11.356,0,0,1-.5,2.733,4.622,4.622,0,0,1-.66,1.328,2.621,2.621,0,0,1-1.262.983,2.652,2.652,0,0,1-.353.1l-.086.021-.076.016-.05,0-.2.012a2.777,2.777,0,0,1-.8-.064,3.592,3.592,0,0,1-1.394-.678,8.007,8.007,0,0,1-1.869-2.17,23.067,23.067,0,0,1-2.056-4.482c-.474-1.356-.8-2.507-1-3.317s-.309-1.288-.309-1.288Z" fill="#04112b"/>
        <path id="Path_407" data-name="Path 407" d="M54.633,65.872s.072.447.241,1.244.431,1.927.83,3.259a22.068,22.068,0,0,0,1.766,4.364,7.2,7.2,0,0,0,1.57,2.012,2.392,2.392,0,0,0,2.292.569,2.912,2.912,0,0,0,1.576-1.845,10.886,10.886,0,0,0,.594-2.587,29.768,29.768,0,0,0,.122-4.794,45.81,45.81,0,0,0-.437-4.684,45.886,45.886,0,0,1,.648,4.67,30.043,30.043,0,0,1,.092,4.85,11.355,11.355,0,0,1-.5,2.733,4.625,4.625,0,0,1-.66,1.328,2.524,2.524,0,0,1-1.615,1.08l-.086.021-.076.016-.05,0-.2.012a2.8,2.8,0,0,1-.8-.063,3.6,3.6,0,0,1-1.395-.678,8.013,8.013,0,0,1-1.869-2.17,23.024,23.024,0,0,1-2.056-4.483c-.474-1.356-.8-2.506-1.005-3.317s-.309-1.288-.309-1.288Z" fill="#04112b"/>
        <rect id="Rectangle_40" data-name="Rectangle 40" width="12.395" height="2.702" transform="translate(37.001 60.823) rotate(-24.117)" fill="#04112b"/>
        <rect id="Rectangle_41" data-name="Rectangle 41" width="2.701" height="11.192" transform="translate(52.083 55.775) rotate(-68.469)" fill="#04112b"/>
        <path id="Path_408" data-name="Path 408" d="M3.813,79.984a6.5,6.5,0,0,1,1.109-1.792,7.274,7.274,0,0,1,1.639-1.37,6.729,6.729,0,0,1,2.006-.789,7.313,7.313,0,0,1,1.07-.154l.54-.035c.18,0,.358.02.538.03l.546.04.513.086a8.316,8.316,0,0,1,1.033.222,12.979,12.979,0,0,1,2,.688,10.524,10.524,0,0,1,1.839,1.034,6.188,6.188,0,0,1,1.509,1.478,3.716,3.716,0,0,1,.594,2.05l-.053.545c-.031.179-.1.348-.144.525a5.067,5.067,0,0,1-.432,1,6.246,6.246,0,0,1-1.372,1.685,3.5,3.5,0,0,1-2.107.8,3.76,3.76,0,0,1-2.168-.659A4.261,4.261,0,0,1,11,83.649a2.748,2.748,0,0,1-.068-2.327,2.883,2.883,0,0,1,1.827-1.381l.16.591q-2.794.547-5.616.967l-.015-.071q2.735-.81,5.5-1.494l.16.591A2.223,2.223,0,0,0,11.59,81.63a2.01,2.01,0,0,0,.116,1.69,3.456,3.456,0,0,0,2.929,2,2.951,2.951,0,0,0,1.732-.593c.12-.1.241-.188.363-.3s.26-.254.349-.362c.2-.266.43-.514.613-.79a4.619,4.619,0,0,0,.466-.873c.055-.154.129-.306.168-.465l.081-.485a3.035,3.035,0,0,0-.456-1.9,4.9,4.9,0,0,0-1.437-1.416,9.953,9.953,0,0,0-.889-.5c-.32-.124-.626-.272-.954-.373a12.791,12.791,0,0,0-1.976-.5c-.331-.058-.662-.114-1.011-.151l-.516-.064-.491-.028a8.111,8.111,0,0,0-1.987.1,6.852,6.852,0,0,0-1.874.653,7.548,7.548,0,0,0-2.936,2.739Z" fill="#04112b"/>
        <g id="Group_285" data-name="Group 285">
          <path id="Path_409" data-name="Path 409" d="M77.592,42.318c-1.756,2.351-5.483,2.891-9.211,2.73a47.609,47.609,0,0,1-10.1-1.73c-2.971,12.157-15.452,1.864-15.452,1.864s-.594,3.107-2.538,3.188c-1.946.108-2.865-3.864-2.865-3.864-3.729,6.565-14.966,5.133-14.966,5.133a29.582,29.582,0,0,1-2.351,26.529c-3.972-5.457-8.888-6.592-12.643-4.943l7-27.987S6.6,40.184,7.786,37c1.108-3.081,7.078-.649,7.565-.459-.245-.6-3.892-8.7.026-11.536,4.052-2.946,8.78,3.808,8.78,3.808s-.838-14.371,4.4-15.8c5.214-1.432,7.241,10.4,7.241,10.4C38.584,11.332,56.737,2.12,64.68,4.983s-1.7,19.342-1.7,19.342,9.806-1.945,12.427.594-6.161,8.024-6.161,8.024S81.726,36.725,77.592,42.318Z" fill="#04112b"/>
          <g id="Group_284" data-name="Group 284" opacity="0.2">
            <path id="Path_410" data-name="Path 410" d="M26.9,36.96a2.175,2.175,0,0,0-.979.552A4.518,4.518,0,0,0,24.907,40.5a9.132,9.132,0,0,0,.152,2.282,4.56,4.56,0,0,0,.417,1.19,2.835,2.835,0,0,0,.774.983,2.075,2.075,0,0,0,.551.32,2.237,2.237,0,0,0,.64.186,1.333,1.333,0,0,1,.136.032l.2.011c.131,0,.285.023.4.015a4.505,4.505,0,0,0,.705-.082,6.626,6.626,0,0,0,2.878-1.482,11.977,11.977,0,0,0,2.407-2.733c.165-.286.353-.584.5-.868.135-.285.284-.558.414-.858a19.671,19.671,0,0,0,.692-1.9,34.643,34.643,0,0,0,.942-4.177,9.262,9.262,0,0,0,.1-2.139c-.079-.694-.277-1.348-.839-1.443-.488-.157-1.05.393-1.36,1.056a5.123,5.123,0,0,0-.387,1.054c-.063.334-.114.773-.165,1.155a7.834,7.834,0,0,0,1.249,4.447,6.576,6.576,0,0,0,.7.968,7.411,7.411,0,0,0,.824.87,11.559,11.559,0,0,0,.945.764c.339.217.668.439,1.016.641a11.916,11.916,0,0,0,4.555,1.491,5.6,5.6,0,0,0,1.174.011l.578-.051c.139-.014.386-.087.573-.127s.41-.09.6-.151l.534-.2a7.692,7.692,0,0,0,1.047-.489,7.584,7.584,0,0,0,3.2-3.163,4.76,4.76,0,0,0,.233-.471l.212-.572a9.37,9.37,0,0,0,.275-1.062,9.115,9.115,0,0,0,.1-2.232,9.383,9.383,0,0,0-.405-2.178,5.131,5.131,0,0,0-.371-.964,4.35,4.35,0,0,0-.568-.813,1.5,1.5,0,0,0-1.287-.659,1.27,1.27,0,0,0-.3.11c-.017.008.085-.053.027-.017l-.03.02-.059.04-.118.08c-.1.06-.064.073-.109.1a1.33,1.33,0,0,0-.314.6,3.465,3.465,0,0,0,.136,1.769,3.407,3.407,0,0,0,.339.81c.193.3.378.629.573.895.206.212.4.425.594.644l.734.576a8.151,8.151,0,0,0,1.655.839,10.288,10.288,0,0,0,3.569.646l.443.015.428-.024c.3-.026.621-.022.885-.072l.807-.126.793-.2a11.1,11.1,0,0,0,2.809-1.2,8.679,8.679,0,0,0,3.341-3.641,7.088,7.088,0,0,0,.691-3.167,6.879,6.879,0,0,0-.064-.871c-.02-.2-.031-.3-.031-.3l.143-.033.065.3a7.047,7.047,0,0,1,.164.887A7.4,7.4,0,0,1,66,31.245a9.136,9.136,0,0,1-3.355,4.2,10.965,10.965,0,0,1-3.005,1.5c-.285.083-.572.174-.869.252l-.931.182c-.319.068-.6.071-.91.111-.165.015-.273.032-.488.046l-.485,0A11.64,11.64,0,0,1,51.9,36.97a8.528,8.528,0,0,1-2-.954c-.306-.23-.618-.455-.923-.7-.285-.3-.57-.6-.849-.913-.228-.3-.4-.6-.6-.9a4.83,4.83,0,0,1-.531-1.18,4.912,4.912,0,0,1-.157-2.606,2.853,2.853,0,0,1,.748-1.35,2.781,2.781,0,0,1,.316-.271l.118-.08.059-.039.03-.02c-.037.023.083-.054.089-.054a2.793,2.793,0,0,1,.77-.278,2.424,2.424,0,0,1,1.613.274,3.94,3.94,0,0,1,1.1.919,5.866,5.866,0,0,1,.746,1.118,6.462,6.462,0,0,1,.455,1.241,10.859,10.859,0,0,1,.409,2.508,10.5,10.5,0,0,1-.182,2.573,10.864,10.864,0,0,1-.366,1.281l-.226.567a5.333,5.333,0,0,1-.325.615,9.027,9.027,0,0,1-8.932,4.353,12.617,12.617,0,0,1-4.738-1.817c-.359-.223-.709-.473-1.055-.712a12.133,12.133,0,0,1-.949-.816,8.522,8.522,0,0,1-.855-.925,6.971,6.971,0,0,1-.726-1.023,8.854,8.854,0,0,1-1.391-4.742c.04-.412.062-.769.128-1.218a6.671,6.671,0,0,1,.365-1.2,3.255,3.255,0,0,1,.711-1.1,1.581,1.581,0,0,1,1.394-.461l.143.027.036.006a.465.465,0,0,1,.08.024l.092.038a1.207,1.207,0,0,1,.345.19,1.239,1.239,0,0,1,.281.262,1.386,1.386,0,0,1,.21.3,3.686,3.686,0,0,1,.412,1.243,10.214,10.214,0,0,1,.047,2.385,26.437,26.437,0,0,1-.78,4.414,17.311,17.311,0,0,1-.723,2.064c-.143.336-.319.67-.478,1s-.351.587-.523.879a13.166,13.166,0,0,1-2.745,3.027,7.713,7.713,0,0,1-3.465,1.622,5.274,5.274,0,0,1-.963.069c-.161,0-.281-.025-.421-.036l-.2-.022a2.611,2.611,0,0,1-.257-.06,3.239,3.239,0,0,1-.862-.3,3.047,3.047,0,0,1-.748-.493,4.49,4.49,0,0,1-1.348-2.755,8.652,8.652,0,0,1,.023-2.506,4.878,4.878,0,0,1,1.424-3.141,2.344,2.344,0,0,1,1.137-.475Z" fill="#fff"/>
            <path id="Path_411" data-name="Path 411" d="M48.925,26.5l-.683.045a5.328,5.328,0,0,1-1.96-.416,6.855,6.855,0,0,1-2.451-1.943A8.729,8.729,0,0,1,42.086,20.5a7.717,7.717,0,0,1-.119-2.386,5.778,5.778,0,0,1,.9-2.463,6.458,6.458,0,0,1,4.711-2.567,9,9,0,0,1,5.441,1.155,5.505,5.505,0,0,1,2.023,2.083,5,5,0,0,1,.549,2.926,4.152,4.152,0,0,1-1.334,2.791,2.808,2.808,0,0,1-1.562.7,2.52,2.52,0,0,1-1.7-.482l-.046-.03-.023-.015s-.1-.087-.065-.055L50.8,22.1l-.13-.117c-.087-.081-.169-.152-.256-.243a4.468,4.468,0,0,1-.5-.744,3.725,3.725,0,0,1-.294-.76,3.675,3.675,0,0,1-.151-.774,8.174,8.174,0,0,1,.265-2.921,12.651,12.651,0,0,1,.979-2.572,10.1,10.1,0,0,1,1.454-2.213,13.537,13.537,0,0,1,3.738-3.009,9.19,9.19,0,0,1,3.877-1.215,5.7,5.7,0,0,1,1.734.139l.354.1.373.178a3.094,3.094,0,0,1,.6.422,2.762,2.762,0,0,1,.875,1.828,2.475,2.475,0,0,1-.019.526c-.01.117-.016.177-.016.177l-.134-.013s-.006-.058-.016-.17a2.238,2.238,0,0,0-.069-.483A2.4,2.4,0,0,0,62.5,8.79a3.14,3.14,0,0,0-.511-.266l-.27-.1-.36-.065a5.006,5.006,0,0,0-1.482.045,9.4,9.4,0,0,0-3.372,1.362,14.519,14.519,0,0,0-3.24,2.878,12.892,12.892,0,0,0-2.179,4.27,6.871,6.871,0,0,0-.32,2.421,3.062,3.062,0,0,0,.271,1.109c.067.179.17.272.24.427.069.08.161.163.239.246l.122.125.061.063c.047.042-.046-.039-.032-.027l.013.01.027.019a1.454,1.454,0,0,0,1.915-.041,3.274,3.274,0,0,0,1.24-2.111,4.365,4.365,0,0,0-.268-2.6,4.606,4.606,0,0,0-1.787-1.957,7.05,7.05,0,0,0-5.112-.787,5.887,5.887,0,0,0-3.84,2.507,5.662,5.662,0,0,0-.64,3.978,8.544,8.544,0,0,0,1.339,3.353,7.16,7.16,0,0,0,1.991,1.979,5.091,5.091,0,0,0,1.708.648l.678.091Z" fill="#fff"/>
          </g>
        </g>
      </g>
      <g id="Group_290" data-name="Group 290">
        <path id="Path_412" data-name="Path 412" d="M16.945,136.005c-1.864,2.08-4.89,5.375-7.511,7.943-2.294,2.242-4.295,3.89-4.942,3.727-1.865-.513.513-3.3.513-3.3s-4.647-1.458-5-2.891c-.109-.432,1.107-1.054,2.835-1.674,3.864-1.433,10.267-2.946,10.267-2.946S14.594,136.464,16.945,136.005Z" fill="#009e8f"/>
        <path id="Path_413" data-name="Path 413" d="M65.355,125.743l-22.118,7.473L39.1,112.071c1.027-.163,2.081-.271,3.162-.379v-5.728l7.563,3.7,1,4.4,1.026-4.917,5.727-3.7v5.24l3.62-.621Z" fill="#009e8f"/>
        <path id="Path_414" data-name="Path 414" d="M67.381,108.991l2.378,17.37-3.485,6.43v.026l-.676,14.75s-11.67,6.215-19.855,3.593c1.16-1.675,1.432-4.268.107-8.049-2-5.754-8.051-7.781-14.426-8.214a13.106,13.106,0,0,1-.08-1.512l5.61-5.619-2.909-14.859c1.593-.351,3.3-.621,5.05-.836l5.485,15.506,18.505-3.89-1.891-13.616Z" fill="#fcd90d"/>
        <path id="Path_415" data-name="Path 415" d="M41.637,133.385H31.344A28.7,28.7,0,0,1,34.368,119.8L13.109,136.87s-6.4,1.512-10.267,2.946c.433-5.3,4-21.586,31.2-26.909Z" fill="#009e8f"/>
        <path id="Path_416" data-name="Path 416" d="M78.268,134.817c-.351,3.106-.836,8-.972,11.724a27.838,27.838,0,0,1-11.022-13.724v-.026l1.107-23.8S72.352,128.63,78.268,134.817Z" fill="#009e8f"/>
        <path id="Path_417" data-name="Path 417" d="M84.807,146.163c-.028,2.567-.19,4.458-.7,4.538-1.621.243-2.621-3.026-2.621-3.026s-1.945,4.135-3.647,4.135c-.567,0-.648-2.243-.541-5.269.136-3.727.622-8.617.972-11.724a5.078,5.078,0,0,0,3.376,1.864,3.817,3.817,0,0,0,2.73-1.324C84.59,138.41,84.833,142.84,84.807,146.163Z" fill="#009e8f"/>
        <path id="Path_418" data-name="Path 418" d="M16.945,136.005c-1.864,2.08-4.89,5.375-7.511,7.943-2.294,2.242-4.295,3.89-4.942,3.727-1.865-.513.513-3.3.513-3.3s-4.647-1.458-5-2.891c-.109-.432,1.107-1.054,2.835-1.674,3.864-1.433,10.267-2.946,10.267-2.946S14.594,136.464,16.945,136.005Z" fill="#fff" opacity="0.3"/>
        <path id="Path_419" data-name="Path 419" d="M84.807,146.163c-.028,2.567-.19,4.458-.7,4.538-1.621.243-2.621-3.026-2.621-3.026s-1.945,4.135-3.647,4.135c-.567,0-.648-2.243-.541-5.269.136-3.727.622-8.617.972-11.724a5.078,5.078,0,0,0,3.376,1.864,3.817,3.817,0,0,0,2.73-1.324C84.59,138.41,84.833,142.84,84.807,146.163Z" fill="#fff" opacity="0.3"/>
        <path id="Path_420" data-name="Path 420" d="M46.439,118.578l-3.778-6.025.572-.359,3.1,4.949,3.245-7.312.617.274Z" fill="#04112b"/>
        <path id="Path_421" data-name="Path 421" d="M53.114,119.381c0,.466-.568.843-1.266.843s-1.266-.377-1.266-.843.567-.844,1.266-.844S53.114,118.915,53.114,119.381Z" fill="#04112b"/>
        <path id="Path_422" data-name="Path 422" d="M53.623,123.856c0,.464-.566.843-1.266.843s-1.266-.379-1.266-.843.568-.845,1.266-.845S53.623,123.39,53.623,123.856Z" fill="#04112b"/>
        <path id="Path_423" data-name="Path 423" d="M50.364,126.362c-.106-.747-.2-1.495-.292-2.243s-.194-1.5-.271-2.245l-.488-4.494,0-.048.015-.054,1.011-3.7c.342-1.233.662-2.471,1.028-3.7l.317-1.064.314,1.055c.735,2.471,1.515,4.929,2.2,7.415l-.43-.039c.546-.971,1.076-1.95,1.635-2.913s1.107-1.933,1.684-2.888c-.461,1.015-.951,2.016-1.429,3.022s-.986,2-1.477,3l-.244.5-.185-.537c-.842-2.438-1.59-4.905-2.384-7.358l.631-.009c-.328,1.237-.7,2.46-1.052,3.69l-1.069,3.685.01-.1.278,4.512c.05.751.074,1.505.112,2.258S50.342,125.607,50.364,126.362Z" fill="#04112b"/>
        <g id="Group_287" data-name="Group 287">
          <path id="Path_424" data-name="Path 424" d="M45.743,151.16c-3.054,4.431-12.373,2.217-15.265-2.835l4.511-2.3a7.367,7.367,0,0,1,.649-4.538l-26.2,2.459c2.621-2.568,5.647-5.863,7.511-7.943a60.659,60.659,0,0,1,14.48-1.108c6.375.433,12.427,2.46,14.426,8.214C47.175,146.892,46.9,149.485,45.743,151.16Z" fill="#ffb08d"/>
          <path id="Path_425" data-name="Path 425" d="M37.75,148.084a1.832,1.832,0,0,1-.367.044,2.783,2.783,0,0,1-.982-.135,2.325,2.325,0,0,1-.619-.294,2.586,2.586,0,0,1-.59-.518,2.778,2.778,0,0,1-.416-.73,3.18,3.18,0,0,1-.213-.826,4.4,4.4,0,0,1-.026-.833,4.27,4.27,0,0,1,.1-.784,3.4,3.4,0,0,1,.181-.708c.069-.221.142-.426.21-.614a10.705,10.705,0,0,1,.607-1.185s-.069.537-.234,1.294c-.033.388-.156.825-.175,1.3a6.168,6.168,0,0,0-.041.719,3.916,3.916,0,0,0,.044.724,2.536,2.536,0,0,0,.154.686,2.788,2.788,0,0,0,.281.6,2.922,2.922,0,0,0,.416.471,2.735,2.735,0,0,0,.472.342,3.955,3.955,0,0,0,.844.356A3.032,3.032,0,0,0,37.75,148.084Z" fill="#04112b"/>
          <rect id="Rectangle_42" data-name="Rectangle 42" width="0.676" height="5.087" transform="matrix(0.609, -0.793, 0.793, 0.609, 31.532, 147.958)" fill="#04112b"/>
          <rect id="Rectangle_43" data-name="Rectangle 43" width="0.676" height="4.696" transform="matrix(0.576, -0.818, 0.818, 0.576, 33.081, 147.177)" fill="#04112b"/>
        </g>
        <g id="Group_288" data-name="Group 288">
          <path id="Path_426" data-name="Path 426" d="M47.91,143.892a8.106,8.106,0,0,1-.023-1.062,11.63,11.63,0,0,1,.438-2.791,8.917,8.917,0,0,1,.7-1.794,6.388,6.388,0,0,1,.54-.923c.1-.152.2-.311.318-.46l.383-.428a6.753,6.753,0,0,1,1.89-1.473,7.786,7.786,0,0,1,2.356-.765l.153-.028.077-.013.038-.007.019,0,.01,0,.06,0,.286-.008.571-.017a6.784,6.784,0,0,1,3.521.937,10.469,10.469,0,0,1,.925.678,9.7,9.7,0,0,1,.754.777A8.067,8.067,0,0,1,62,138.121a8.83,8.83,0,0,1,.622,1.486,9.267,9.267,0,0,1,.317,1.187,7.364,7.364,0,0,1,.149,1.053s-.128-.365-.4-.971c-.137-.3-.314-.664-.536-1.064a12.293,12.293,0,0,0-.81-1.287,9.726,9.726,0,0,0-1.146-1.33,8.557,8.557,0,0,0-.717-.6c-.263-.174-.535-.345-.813-.51a8.337,8.337,0,0,0-.909-.366l-.483-.122a1.672,1.672,0,0,0-.481-.092,4.822,4.822,0,0,0-1.013-.064l-.57.028-.285.015.043,0-.008,0-.016,0-.032.007-.064.014-.128.026a6.475,6.475,0,0,0-1.966.591,6.348,6.348,0,0,0-1.632,1.141l-.35.342-.309.375a5.467,5.467,0,0,0-.561.765,11.229,11.229,0,0,0-.845,1.557c-.226.507-.412.988-.556,1.423s-.262.821-.344,1.143C47.979,143.512,47.91,143.892,47.91,143.892Z" fill="#f44500"/>
          <path id="Path_427" data-name="Path 427" d="M46.9,140.112l-3.665-3.648,5,1.3Z" fill="#f44500"/>
          <path id="Path_428" data-name="Path 428" d="M49.012,135.938l-1.44-4.878,3.735,3.452Z" fill="#f44500"/>
          <path id="Path_429" data-name="Path 429" d="M53.538,133.216l1.067-5.2,1.63,5.047Z" fill="#f44500"/>
          <path id="Path_430" data-name="Path 430" d="M58.529,133.034l3.056-4-.547,5Z" fill="#f44500"/>
          <path id="Path_431" data-name="Path 431" d="M61.638,136.959l3.716-3.2-1.458,4.68Z" fill="#f44500"/>
        </g>
        <g id="Group_289" data-name="Group 289">
          <path id="Path_432" data-name="Path 432" d="M103.5,121.147c.432,12.508-9.86,5.483-9.86,5.483s-.163,14.75-8.834,19.532c.026-3.323-.217-7.753-.433-10.806,5.16-5.267,6.97-24.665,6.97-24.665S103.1,108.666,103.5,121.147Z" fill="#ffb08d"/>
          <rect id="Rectangle_44" data-name="Rectangle 44" width="0.675" height="7.855" transform="translate(95.03 124.141) rotate(-54.956)" fill="#04112b"/>
          <rect id="Rectangle_45" data-name="Rectangle 45" width="0.676" height="8.297" transform="matrix(0.541, -0.841, 0.841, 0.541, 96.293, 121.253)" fill="#04112b"/>
          <path id="Path_433" data-name="Path 433" d="M103.455,121.482c-.075-.01-7.47-1.082-7.032-7.589l.674.045c-.4,5.885,6.169,6.837,6.449,6.875Z" fill="#04112b"/>
          <path id="Path_434" data-name="Path 434" d="M94.722,127.1l-.675-.026c.009-.247.257-6.092,2.5-8.06a2.48,2.48,0,0,1,1.923-.648l-.062.672a1.8,1.8,0,0,0-1.415.483C94.966,121.3,94.725,127.037,94.722,127.1Z" fill="#04112b"/>
        </g>
      </g>
    </g>
  </g>
</svg>
