<svg xmlns="http://www.w3.org/2000/svg" xmlns:xlink="http://www.w3.org/1999/xlink" width="24" height="24" viewBox="0 0 24 24">
  <defs>
    <clipPath id="clip-path">
      <rect id="Rectangle_75" data-name="Rectangle 75" width="24" height="24" transform="translate(188 135)" fill="#fff" stroke="#707070" stroke-width="1"/>
    </clipPath>
  </defs>
  <g id="Mask_Group_18" data-name="Mask Group 18" transform="translate(-188 -135)" clip-path="url(#clip-path)">
    <g id="credit-cards-payment" transform="translate(188 135)">
      <g id="Group_78" data-name="Group 78">
        <path id="Path_51" data-name="Path 51" d="M23.084,4.439,8.385,1.328a1.159,1.159,0,0,0-1.37.892L6.736,4.014,23.7,7.6l.279-1.795A1.159,1.159,0,0,0,23.084,4.439Z" fill="#fff"/>
        <path id="Path_52" data-name="Path 52" d="M16.9,7.984a1.17,1.17,0,0,0-1.436-.812l-2.79.775L6.1,6.554,5.375,9.972.854,11.227a1.17,1.17,0,0,0-.812,1.436l2.547,9.18a1.17,1.17,0,0,0,1.436.812L18.638,18.6a1.17,1.17,0,0,0,.812-1.436l-.437-1.576,1.639.346a1.159,1.159,0,0,0,1.37-.891l1.037-4.9-5.9-1.249Zm1.688,4.665.361-1.708a.477.477,0,0,1,.564-.367l1.708.362a.477.477,0,0,1,.367.564l-.361,1.708a.477.477,0,0,1-.564.367l-1.708-.361A.477.477,0,0,1,18.59,12.649ZM1.109,12.143l4.044-1.122,9.541-2.648,1.027-.285a.214.214,0,0,1,.056-.007.22.22,0,0,1,.21.158l.121.434.378,1.361L1.457,14.2l-.5-1.795A.219.219,0,0,1,1.109,12.143Zm17.425,5.274a.219.219,0,0,1-.15.266L3.772,21.738a.212.212,0,0,1-.056.008.221.221,0,0,1-.21-.158L2.02,16.234l15.027-4.17.917,3.3Z" fill="#fff"/>
        <path id="Path_53" data-name="Path 53" d="M6.133,17.784a.477.477,0,0,0-.585-.331l-1.706.474a.477.477,0,0,0-.331.585l.473,1.706a.477.477,0,0,0,.585.331l1.706-.473a.477.477,0,0,0,.331-.585Z" fill="#fff"/>
      </g>
    </g>
  </g>
</svg>
