<svg xmlns="http://www.w3.org/2000/svg" xmlns:xlink="http://www.w3.org/1999/xlink" width="18" height="18" viewBox="0 0 18 18">
  <defs>
    <clipPath id="clip-path">
      <rect id="Rectangle_47" data-name="Rectangle 47" width="18" height="18" transform="translate(562 64)" fill="#444" stroke="#444" stroke-width="1"/>
    </clipPath>
  </defs>
  <g id="Mask_Group_11" data-name="Mask Group 11" transform="translate(-562 -64)" clip-path="url(#clip-path)">
    <g id="_x32_9_Ice_Cream_Bowl" transform="translate(562.001 64)">
      <path id="Path_27" data-name="Path 27" d="M16.133,8.088a1.367,1.367,0,0,0-.728-.38,1.68,1.68,0,0,0-.679-1.115,3.728,3.728,0,0,0-.218-.425l1.779-4.294A.968.968,0,0,0,15.764.612l-1.3-.538A.968.968,0,0,0,13.2.6L11.949,3.618a3.434,3.434,0,0,0-5.893,0L4.8.6A.968.968,0,0,0,3.541.074L2.24.612a.968.968,0,0,0-.524,1.262L3.5,6.168a3.606,3.606,0,0,0-.214.418,1.692,1.692,0,0,0-.2.165A1.671,1.671,0,0,0,2.6,7.7,1.378,1.378,0,0,0,1.466,9.058a7.645,7.645,0,0,0,5.085,7.177,2.691,2.691,0,0,0-.243,1.111v.018A.636.636,0,0,0,6.945,18h4.1a.636.636,0,0,0,.636-.636,2.687,2.687,0,0,0-.246-1.122,7.541,7.541,0,0,0,5.092-7.128V9.058a1.344,1.344,0,0,0-.4-.971ZM2,9.273A3.993,3.993,0,0,1,3.478,9.6a4.528,4.528,0,0,0,1.906.369A4.541,4.541,0,0,0,7.289,9.6a4.044,4.044,0,0,1,1.716-.334,4.057,4.057,0,0,1,1.716.334,4.528,4.528,0,0,0,1.906.369A4.528,4.528,0,0,0,14.533,9.6a3.993,3.993,0,0,1,1.477-.331c0,.176-.014.352-.032.524a4.389,4.389,0,0,0-1.723.369,3.917,3.917,0,0,1-1.684.334,3.9,3.9,0,0,1-1.684-.334A4.417,4.417,0,0,0,9.009,9.8a4.4,4.4,0,0,0-1.878.369,3.917,3.917,0,0,1-1.684.334,3.9,3.9,0,0,1-1.684-.334A4.365,4.365,0,0,0,2.047,9.8,3.3,3.3,0,0,1,2,9.273ZM4.251,6.8a1.147,1.147,0,0,1,.858.387.265.265,0,0,0,.394,0,1.143,1.143,0,0,1,1.969.492H3.14A1.159,1.159,0,0,1,4.251,6.8Zm3.759.879a1.669,1.669,0,0,0-2.7-1.03,1.662,1.662,0,0,0-1.055-.376,1.371,1.371,0,0,0-.207.014A2.9,2.9,0,0,1,9.311,7.683Zm1.839,0a3.405,3.405,0,0,0-.52-1.572,2.9,2.9,0,0,1,4.631.179,1.988,1.988,0,0,0-.207-.014A1.675,1.675,0,0,0,12.1,7.683Zm3.9-.879a1.146,1.146,0,0,1,1.111.879H12.641A1.14,1.14,0,0,1,13.753,6.8ZM13.686.8a.44.44,0,0,1,.573-.239l1.3.538a.44.44,0,0,1,.239.573l-.707,1.705L12.979,2.5Zm-.907,2.194,2.113.876-.749,1.8a3.409,3.409,0,0,0-1.8-1.065,3.333,3.333,0,0,0-.095-.334ZM9,2.476a2.9,2.9,0,0,1,2.774,2.05c-.067,0-.134-.007-.2-.007A3.446,3.446,0,0,0,9,5.682c-.053-.06-.105-.116-.162-.172a3.405,3.405,0,0,0-2.412-.992c-.067,0-.134,0-.2.007A2.9,2.9,0,0,1,9,2.476ZM2.444,1.1l1.3-.538A.439.439,0,0,1,4.318.8l.707,1.705-2.113.872L2.2,1.674A.439.439,0,0,1,2.444,1.1Zm.672,2.767,2.113-.876.531,1.28c-.035.109-.07.222-.095.334a3.409,3.409,0,0,0-1.8,1.065ZM2.845,8.211H15.156a.859.859,0,0,1,.791.534,4.511,4.511,0,0,0-1.611.362,4.044,4.044,0,0,1-1.716.334A4.057,4.057,0,0,1,10.9,9.107,4.528,4.528,0,0,0,9,8.738a4.541,4.541,0,0,0-1.906.369,4.044,4.044,0,0,1-1.716.334,4.044,4.044,0,0,1-1.716-.334A4.492,4.492,0,0,0,2.05,8.745a.869.869,0,0,1,.795-.534Zm8.316,9.157a.11.11,0,0,1-.109.109h-4.1a.122.122,0,0,1-.077-.032.114.114,0,0,1-.032-.077V17.35a2.182,2.182,0,0,1,.222-.956A7.438,7.438,0,0,0,9,16.65H9.03a7.608,7.608,0,0,0,1.9-.25,2.16,2.16,0,0,1,.229.967ZM9.027,16.123H9A6.932,6.932,0,0,1,4.09,14.076a7.069,7.069,0,0,1-1.98-3.748,3.939,3.939,0,0,1,1.449.327,4.417,4.417,0,0,0,1.878.369,4.4,4.4,0,0,0,1.878-.369A3.917,3.917,0,0,1,9,10.321a3.9,3.9,0,0,1,1.684.334,4.417,4.417,0,0,0,1.878.369,4.417,4.417,0,0,0,1.878-.369,3.9,3.9,0,0,1,1.456-.331,7,7,0,0,1-6.868,5.8Z" fill="#444"/>
    </g>
  </g>
</svg>
