<svg xmlns="http://www.w3.org/2000/svg" xmlns:xlink="http://www.w3.org/1999/xlink" width="100" height="60" viewBox="0 0 100 60">
  <defs>
    <clipPath id="clip-path">
      <rect id="Rectangle_17" data-name="Rectangle 17" width="100" height="60" transform="translate(330 331)" fill="#fff" stroke="#707070" stroke-width="1"/>
    </clipPath>
  </defs>
  <g id="Mask_Group_5" data-name="Mask Group 5" transform="translate(-330 -331)" opacity="0.2" clip-path="url(#clip-path)">
    <g id="restaurant" transform="translate(337.466 331)">
      <g id="Group_25" data-name="Group 25" transform="translate(0 0)">
        <path id="Path_11" data-name="Path 11" d="M72.55,43.351a3.187,3.187,0,0,0,.344-2.952,7.567,7.567,0,0,0-7.014-4.81H61.526v-3.9a3.772,3.772,0,0,0,2.514-3.552V26.3a1.928,1.928,0,0,0-1.925-1.925H58.433A1.927,1.927,0,0,0,56.508,26.3v1.841a3.772,3.772,0,0,0,2.514,3.552v3.9H51.1V26.577c.151-1.76-1.489-3.535-2.764-4.7V17.2a1.252,1.252,0,1,0-2.5,0v4.668c-1.273,1.221-2.81,2.678-2.764,4.7v9.012H35.149v-3.9a3.772,3.772,0,0,0,2.514-3.552V26.3a1.927,1.927,0,0,0-1.925-1.925H32.056A1.928,1.928,0,0,0,30.131,26.3v1.841a3.772,3.772,0,0,0,2.514,3.552v3.9H28.359a7.566,7.566,0,0,0-7.014,4.81,3.243,3.243,0,0,0,2.974,4.337H40.356V47.6a3.685,3.685,0,0,0,3.681,3.681h1.831v16.77L40,72.78a1.892,1.892,0,0,0,1.1,3.382l12.049-.007a1.889,1.889,0,0,0,1.094-3.384l-5.868-4.7V51.286H50.2A3.685,3.685,0,0,0,53.883,47.6v-4.12a1.252,1.252,0,0,0-1.252-1.252H24.319c-.306-.068-.726-.1-.639-.932a5.047,5.047,0,0,1,4.679-3.209H65.88A5.047,5.047,0,0,1,70.559,41.3c.047.31.165.714-.639.932H58.6a1.252,1.252,0,1,0,0,2.5H69.92a3.187,3.187,0,0,0,2.63-1.385ZM59.011,26.876h2.525v1.263a1.263,1.263,0,0,1-2.525,0V26.876Zm-26.377,0H35.16v1.263a1.263,1.263,0,0,1-2.525,0ZM42.9,73.658l4.21-3.388,4.224,3.384Zm8.479-28.922V47.6A1.179,1.179,0,0,1,50.2,48.782H44.037A1.179,1.179,0,0,1,42.86,47.6V44.736Zm-5.806-9.147V26.577c.954-3.57,2.581-2.206,3.024,0v9.012Z" transform="translate(-4.608 -15.953)" fill="#fff"/>
        <path id="Path_12" data-name="Path 12" d="M20.22,63.11a4.432,4.432,0,0,0-.193-.437,4.086,4.086,0,0,0,4.843-3.849,3.853,3.853,0,0,0-3.849-3.849H7.7V41.719a1.252,1.252,0,0,0-2.5,0V55.146a2.336,2.336,0,0,0,2.334,2.333H21.022a1.345,1.345,0,0,1,0,2.69H7.527A5.029,5.029,0,0,1,2.5,55.146V33.253a1.345,1.345,0,1,1,2.69,0v2.571a1.252,1.252,0,1,0,2.5,0V33.253a3.849,3.849,0,1,0-7.7,0V55.146a7.536,7.536,0,0,0,6.878,7.5,4.524,4.524,0,0,0-.258.617l-4.7,14.19a1.252,1.252,0,1,0,2.377.787L9,64.047a2,2,0,0,1,1.9-1.374h5.1a2.011,2.011,0,0,1,1.879,1.307l5.3,14.3a1.293,1.293,0,0,0,1.609.739,1.252,1.252,0,0,0,.739-1.609Z" transform="translate(0 -18.886)" fill="#fff"/>
        <path id="Path_13" data-name="Path 13" d="M101.765,55.146V33.253a3.849,3.849,0,1,0-7.7,0V54.976H80.743a3.853,3.853,0,0,0-3.849,3.849,4.094,4.094,0,0,0,4.843,3.849,4.431,4.431,0,0,0-.193.437l-5.3,14.3a1.252,1.252,0,0,0,.739,1.609,1.31,1.31,0,0,0,1.609-.739l5.3-14.3a2.012,2.012,0,0,1,1.879-1.307h5.1a2,2,0,0,1,1.9,1.374l4.7,14.19a1.252,1.252,0,1,0,2.377-.787l-4.7-14.19a4.52,4.52,0,0,0-.258-.617,7.616,7.616,0,0,0,6.877-7.5Zm-2.5,0a5.1,5.1,0,0,1-5.023,5.023H80.743a1.346,1.346,0,0,1,0-2.69H94.238a2.336,2.336,0,0,0,2.333-2.333V33.253a1.345,1.345,0,1,1,2.69,0Z" transform="translate(-16.608 -18.886)" fill="#fff"/>
      </g>
    </g>
  </g>
</svg>
