<svg xmlns="http://www.w3.org/2000/svg" xmlns:xlink="http://www.w3.org/1999/xlink" width="16" height="16" viewBox="0 0 16 16">
  <defs>
    <clipPath id="clip-path">
      <rect id="Rectangle_8" data-name="Rectangle 8" width="16" height="16" transform="translate(867 462)" fill="#236bae" stroke="#707070" stroke-width="1"/>
    </clipPath>
  </defs>
  <g id="Mask_Group_3" data-name="Mask Group 3" transform="translate(-867 -462)" clip-path="url(#clip-path)">
    <g id="email_1_" data-name="email (1)" transform="translate(867 462)">
      <g id="Group_12" data-name="Group 12">
        <path id="Path_5" data-name="Path 5" d="M12.667,6.684V3.333A1.335,1.335,0,0,0,11.333,2h-10A1.335,1.335,0,0,0,0,3.333V10a1.335,1.335,0,0,0,1.333,1.333H8.809a3.665,3.665,0,0,0,5.358,2.176.333.333,0,1,0-.334-.577,3,3,0,1,1,1.5-2.6v.333a.667.667,0,0,1-1.333,0V9.333a.332.332,0,0,0-.563-.24,1.666,1.666,0,1,0,.141,2.337A1.331,1.331,0,0,0,16,10.667v-.333A3.67,3.67,0,0,0,12.667,6.684ZM1.333,2.667h10c.014,0,.026.007.039.008L6.607,6.586a.563.563,0,0,1-.526.017L1.295,2.675C1.308,2.674,1.32,2.667,1.333,2.667ZM12,6.684a3.67,3.67,0,0,0-3.333,3.65c0,.113.007.223.017.333H1.333A.668.668,0,0,1,.667,10V3.333a.66.66,0,0,1,.056-.265L5.688,7.14a1.173,1.173,0,0,0,1.268.014.324.324,0,0,0,.054-.036l4.934-4.05A.66.66,0,0,1,12,3.333v3.35Zm.333,4.65a1,1,0,1,1,1-1A1,1,0,0,1,12.333,11.333Z" fill="#236bae"/>
      </g>
    </g>
  </g>
</svg>
