<svg xmlns="http://www.w3.org/2000/svg" xmlns:xlink="http://www.w3.org/1999/xlink" width="18" height="18" viewBox="0 0 18 18">
  <defs>
    <clipPath id="clip-path">
      <rect id="Rectangle_46" data-name="Rectangle 46" width="18" height="18" transform="translate(410 64)" fill="#444" stroke="#444" stroke-width="1"/>
    </clipPath>
  </defs>
  <g id="Mask_Group_10" data-name="Mask Group 10" transform="translate(-410 -64)" clip-path="url(#clip-path)">
    <g id="main-course" transform="translate(410 64.054)">
      <path id="Path_16" data-name="Path 16" d="M7.631,5.857a.976.976,0,0,0,.547-1.6" fill="none" stroke="#444" stroke-linecap="round" stroke-linejoin="round" stroke-width="0.527"/>
      <path id="Path_17" data-name="Path 17" d="M9.823,4.258a.976.976,0,0,0,.547,1.6" fill="none" stroke="#444" stroke-linecap="round" stroke-linejoin="round" stroke-width="0.527"/>
      <path id="Path_18" data-name="Path 18" d="M15.289,9.528A7.1,7.1,0,0,0,9,5.724H9a7.1,7.1,0,0,0-7.1,7.1v.511" fill="none" stroke="#444" stroke-linecap="round" stroke-linejoin="round" stroke-width="0.527"/>
      <path id="Path_19" data-name="Path 19" d="M16.1,13.333v-.511a7.094,7.094,0,0,0-.334-2.157" fill="none" stroke="#444" stroke-linecap="round" stroke-linejoin="round" stroke-width="0.527"/>
      <path id="Path_20" data-name="Path 20" d="M1.356,14.425V13.9a.527.527,0,0,1,.527-.527H16.117a.527.527,0,0,1,.527.527v.53" fill="none" stroke="#444" stroke-linecap="round" stroke-linejoin="round" stroke-width="0.527"/>
      <path id="Path_21" data-name="Path 21" d="M5.862,14.46h11.7a.176.176,0,0,1,.176.176v.232a1.23,1.23,0,0,1-1.23,1.23H1.494a1.23,1.23,0,0,1-1.23-1.23v-.232a.176.176,0,0,1,.176-.176H4.632" fill="none" stroke="#444" stroke-linecap="round" stroke-linejoin="round" stroke-width="0.527"/>
      <circle id="Ellipse_1" data-name="Ellipse 1" cx="1.092" cy="1.092" r="1.092" transform="translate(7.908 2.448)" fill="none" stroke="#444" stroke-linecap="round" stroke-linejoin="round" stroke-width="0.527"/>
      <path id="Path_22" data-name="Path 22" d="M4.329,2.721a1.257,1.257,0,0,0,0,1.638h0A1.257,1.257,0,0,1,4.328,6" fill="none" stroke="#444" stroke-linecap="round" stroke-linejoin="round" stroke-width="0.527"/>
      <path id="Path_23" data-name="Path 23" d="M2.615,1.9a1.572,1.572,0,0,0,0,2.048h0A1.572,1.572,0,0,1,2.615,6" fill="none" stroke="#444" stroke-linecap="round" stroke-linejoin="round" stroke-width="0.527"/>
      <path id="Path_24" data-name="Path 24" d="M13.671,2.721a1.257,1.257,0,0,1,0,1.638h0a1.257,1.257,0,0,0,0,1.638" fill="none" stroke="#444" stroke-linecap="round" stroke-linejoin="round" stroke-width="0.527"/>
      <path id="Path_25" data-name="Path 25" d="M15.385,1.9a1.572,1.572,0,0,1,0,2.048h0a1.572,1.572,0,0,0,0,2.048" fill="none" stroke="#444" stroke-linecap="round" stroke-linejoin="round" stroke-width="0.527"/>
      <path id="Path_26" data-name="Path 26" d="M4.317,9.066a5.979,5.979,0,0,0-1.287,3.1.176.176,0,0,0,.175.194H4.471a.175.175,0,0,0,.175-.157A6.022,6.022,0,0,1,8.909,7.064.126.126,0,0,0,9,6.943H9a.126.126,0,0,0-.13-.126A5.978,5.978,0,0,0,5.212,8.165" fill="none" stroke="#444" stroke-linecap="round" stroke-linejoin="round" stroke-width="0.527"/>
    </g>
  </g>
</svg>
