<svg xmlns="http://www.w3.org/2000/svg" xmlns:xlink="http://www.w3.org/1999/xlink" width="158" height="158" viewBox="0 0 158 158">
  <defs>
    <clipPath id="clip-path">
      <rect id="Rectangle_26" data-name="Rectangle 26" width="158" height="158" transform="translate(562 262)" fill="#fff" stroke="#707070" stroke-width="1"/>
    </clipPath>
  </defs>
  <g id="Mask_Group_11" data-name="Mask Group 11" transform="translate(-562 -262)" clip-path="url(#clip-path)">
    <g id="waiting" transform="translate(560.109 260.12)">
      <path id="Path_27" data-name="Path 27" d="M29.451,87.878a72.625,72.625,0,0,1,2.086-16.084,53.6,53.6,0,0,1,2.37-7.552c1.011-2.5,2.212-4.9,3.444-7.331C38.52,54.6,39.689,52.266,40.7,49.9c.822-1.9,1.643-3.792,2.623-5.625,1.77-3.286,4.076-6.984,7.584-8.627a17.673,17.673,0,0,1,4.14-3.508,30.915,30.915,0,0,1,14.283-3.918,45.643,45.643,0,0,1,10.965.885,21.371,21.371,0,0,1,5.024,1.485,4.308,4.308,0,0,1,2.56,2.307,18.738,18.738,0,0,1,8.437,1.011,45.377,45.377,0,0,1,7.489,2.781,29.321,29.321,0,0,1,10.712,9.132c2.97,4.234,3.634,9.322,4.614,14.315,1.106,5.783,2.338,11.5,3.192,17.317.442,2.907.885,5.783,1.2,8.69.316,2.718.664,5.5.758,8.216a8.886,8.886,0,0,1-2.054,6.6c-.221.221-.411.474-.664.7a.359.359,0,0,1,.095.253c.379,1.706-1.928,2.149-3.1,2.275-.095,0-.19.032-.284.032a7.526,7.526,0,0,0-1.2,1.011.722.722,0,0,1-.316.221c-.253.537-.442,1.074-.664,1.612a6.538,6.538,0,0,1-3.223,3.476,7.114,7.114,0,0,1-3.729,1.169,1.16,1.16,0,0,1-.569-.032c-.158-.063-.19.348-.284.221-.253-.316.442-1.074.632-1.39,1.169-1.833,1.074-3.982,1.043-6.162a23.811,23.811,0,0,0-.19-2.97c0-.126-.032-.253-.032-.379-.19.7-.379,1.39-.569,2.054a14.692,14.692,0,0,1-2.117,4.9,8.111,8.111,0,0,1-1.8,1.8,9.429,9.429,0,0,1-2.149,2.338c-.758.569-1.738,1.454-2.749,1.39-.474-.032-.98-.506-.664-1.011a9.248,9.248,0,0,1,1.074-1.359,4.3,4.3,0,0,1-1.3-.885c-.095.158-.19.284-.253.379a9.518,9.518,0,0,1-3.918,2.749,14.038,14.038,0,0,1-5.467.822c-.411,0-.853-.379-.727-.822.126-.379.253-.727.411-1.106a.663.663,0,0,1-.126-.348,4.282,4.282,0,0,1-.063-.632,3.827,3.827,0,0,1-.948.79c-.853.6-1.39,1.485-2.37,1.928a.7.7,0,0,1-.916-.79c.284-.98.506-1.833-.253-2.654a5.186,5.186,0,0,0-.758-.664A4.642,4.642,0,0,1,82.917,113a7.969,7.969,0,0,1-2.876,1.77,9.11,9.11,0,0,1-2.56.727v.063a.746.746,0,0,1-.19.284.7.7,0,0,1-1.2-.284.681.681,0,0,1-.506-.79c.032-.221.032-.474.063-.7a7.7,7.7,0,0,1-.853-.032c-.664.885-1.833,1.675-1.864,2.781a.707.707,0,0,1-.822.727,14.155,14.155,0,0,1-5.435-2.117,6.286,6.286,0,0,1-1.991-1.77,3.328,3.328,0,0,1-.411-1.106c-.284-.032-.537-.095-.822-.126a10.89,10.89,0,0,0-.822.885,8.026,8.026,0,0,0-.316,1.169,3.686,3.686,0,0,1-.316.822,1.825,1.825,0,0,0,.19.537c.379.758-.758,1.138-1.232.632l-.19-.19a1.2,1.2,0,0,1-.537-.253,2.087,2.087,0,0,1-.442-.632,6.919,6.919,0,0,1-1.359-1.359c-.221-.284-.664-1.39-1.074-1.864a.19.19,0,0,0-.126.032v.126a1.907,1.907,0,0,1-.348.822.96.96,0,0,0-.158.221,11.749,11.749,0,0,0,.442,2.244.7.7,0,0,1-.537,1.074,4.414,4.414,0,0,1-2.939-.6,2.092,2.092,0,0,1-.822.221c-.569-.6-1.264-1.011-1.864-1.548a23.6,23.6,0,0,1-2.433-2.591.332.332,0,0,0-.6.126,5.072,5.072,0,0,0,.284,3.539c-.095-.032-.19-.032-.284-.063a.723.723,0,0,1-1.011.758,1.919,1.919,0,0,1-.506-.506,18.517,18.517,0,0,0-1.58-1.169,3.665,3.665,0,0,1-1.454-1.991,10.345,10.345,0,0,1-.948-2.338,16.019,16.019,0,0,0-1.454-3.286,5.492,5.492,0,0,1-.316-.6c-.032.758,0,1.548,0,2.307,0,.885-.063,1.738-.095,2.591-.032.316.032.7.032,1.043.063.032.095.063.158.095a4.05,4.05,0,0,0,.474,1.833.19.19,0,0,1-.126-.032,12.18,12.18,0,0,1-5.53-3.982,23.657,23.657,0,0,1-3.887-6.32,27.6,27.6,0,0,1-1.77-7.458,62.805,62.805,0,0,1-.506-8.848Z" fill="#c4544e"/>
      <g id="Group_56" data-name="Group 56">
        <path id="Path_28" data-name="Path 28" d="M43.133,107.849c-6.257-2.686-6.857-16.021-6.636-15.926,28.914,8.184,14.6,14.378,14.631,16.369,0,.284-2.086-.126-4.456-.6-.758-.158-2.749-2.18-3.539-5.972C42.691,99.6,41.49,104.152,43.133,107.849Z" fill="#b23e3b"/>
        <path id="Path_29" data-name="Path 29" d="M39.183,84.086a.389.389,0,0,0,.6.032,2.916,2.916,0,0,0,.253-2.307c-.095-1.138-.284-2.275-.379-3.413-.095-1.106-.095-2.212-.126-3.318a8.2,8.2,0,0,0-.411-3.034.431.431,0,0,0-.822.095,10.021,10.021,0,0,0-.063,2.749c.032,1.106,0,2.18.063,3.286.063,1.043.221,2.054.348,3.1C38.741,82.159,38.583,83.36,39.183,84.086Z" fill="#b23e3b"/>
        <path id="Path_30" data-name="Path 30" d="M76.313,64.811c-.221-1.359.348-2.433.474-3.729.032-.379-.411-.79-.758-.474-1.106.98-1.3,2.686-1.232,4.076A7.84,7.84,0,0,0,76.724,69.3a.759.759,0,0,0,1.232-.885A9.11,9.11,0,0,1,76.313,64.811Z" fill="#b23e3b"/>
        <path id="Path_31" data-name="Path 31" d="M64.4,51.033c-3.255.569-5.056,3.508-5.941,6.415a25.532,25.532,0,0,0-.853,4.93,24.756,24.756,0,0,0-.158,4.835.464.464,0,0,0,.916.032,31.937,31.937,0,0,0,.379-4.234,31.159,31.159,0,0,1,.664-4.519,9.6,9.6,0,0,1,5.151-6.826c.284-.19.221-.7-.158-.632Z" fill="#b23e3b"/>
        <path id="Path_32" data-name="Path 32" d="M56.184,57.385c.032-.063.063-.158.095-.221a.289.289,0,0,0-.474-.316c-.032.063-.095.095-.126.158a.447.447,0,0,0-.379.221c-2.212,3.444-4.424,8.153-3.571,12.355a.475.475,0,0,0,.411.348.522.522,0,0,0,.853-.316c.126-1.011.095-2.022.19-3.034a21.777,21.777,0,0,1,.569-3.192,13.382,13.382,0,0,1,.758-2.244c.569-1.106,1.169-2.18,1.675-3.318a.528.528,0,0,0,0-.442Z" fill="#b23e3b"/>
        <path id="Path_33" data-name="Path 33" d="M50.844,60.64a15.894,15.894,0,0,0-1.8,4.424,13.564,13.564,0,0,0-.379,2.528c-.032.758-.158,1.612.411,2.18a.343.343,0,0,0,.474-.032c.379-.569.221-1.138.221-1.8a10.456,10.456,0,0,1,.284-2.433c.348-1.548,1.2-2.97,1.485-4.519.063-.379-.474-.7-.7-.348Z" fill="#b23e3b"/>
        <path id="Path_34" data-name="Path 34" d="M103.647,67.37a.449.449,0,0,0-.063.19,24.817,24.817,0,0,0,.727,4.55,11.969,11.969,0,0,1,.221,2.591c-.032.632-.253,1.327.158,1.864a.391.391,0,0,0,.442.126,1.48,1.48,0,0,0,.822-1.2.59.59,0,0,0,.632-.411,5.867,5.867,0,0,0,0-3.381,19.1,19.1,0,0,0-1.232-3.95,23.618,23.618,0,0,0-1.706-3.476c-.537-.853-1.011-2.244-1.959-2.718a.263.263,0,0,0-.348.19,6.88,6.88,0,0,0,.948,2.654,27.787,27.787,0,0,1,1.359,2.97Z" fill="#b23e3b"/>
        <path id="Path_35" data-name="Path 35" d="M112.968,91.512a6.836,6.836,0,0,0,2.022-2.939,2.65,2.65,0,0,0,.442-1.232,6.858,6.858,0,0,0,.348-1.327,14.654,14.654,0,0,1,.348-2.4c.095-.19-.221-.348-.316-.158A15.619,15.619,0,0,1,114.864,85a18.526,18.526,0,0,0-.885,2.18l-.095.19c-.253.253-.474.506-.7.727a11.13,11.13,0,0,1-2.18,1.612,9.839,9.839,0,0,1-4.519,1.3.332.332,0,0,0-.284-.158,6.405,6.405,0,0,0,.19-3.6.64.64,0,0,0-1.169-.032,2.97,2.97,0,0,0-.253,1.043.479.479,0,0,0-.6.348,25.751,25.751,0,0,1-.506,2.718,14.288,14.288,0,0,1-1.359,2.686,21.685,21.685,0,0,0-2.781,5.372c-.19.664.569,1.011,1.074.885a1.541,1.541,0,0,0,.348-.126,3.027,3.027,0,0,0-.095,1.39.274.274,0,0,0,.442.19c.853-.632,1.264-2.054,1.738-3,.6-1.232,1.138-2.5,1.675-3.729a1.539,1.539,0,0,0,.095-.221c.19-.221.379-.411.6-.632A4.61,4.61,0,0,1,108.26,92.9c1.706-.253,3.318-.284,4.708-1.39Z" fill="#b23e3b"/>
        <path id="Path_36" data-name="Path 36" d="M122.48,75.776c-.348-2.086-.727-4.2-1.074-6.288-.19-1.074-.348-2.18-.537-3.255a15.427,15.427,0,0,0-.569-2.97.4.4,0,0,0-.758.063c-.348,1.8.095,3.855.284,5.656.221,1.991.537,3.982.853,5.941A102.138,102.138,0,0,1,122.037,86.9a56.544,56.544,0,0,1-.632,9.543l-.095.664c-.19.6-.411,1.169-.632,1.738-.126.316-.253.632-.411.948a12.976,12.976,0,0,0,.221-2.37,24.985,24.985,0,0,0-.506-5.309c0-.032-.032-.063-.032-.095a21.637,21.637,0,0,0-.095-4.045.222.222,0,0,0-.442.032c.063,2.56-.474,5.119-.632,7.679-.095,1.2-.095,2.433-.19,3.634,0,.095-.032.19-.032.284a35.512,35.512,0,0,0-.948-7.521.286.286,0,0,0-.569.063c0,2.054-.063,4.108-.095,6.13a12.188,12.188,0,0,1-1.106,5.4,11.449,11.449,0,0,1-2.749,3.381c-1.2,1.043-1.612,1.643-1.612,1.485.063-.885-1.011,3.065-.126,2.686a7.569,7.569,0,0,0,2.812-1.706c1.3-1.074,2.307-3.413,3.1-4.9l.19-.379a.6.6,0,0,0,.727.316,2.5,2.5,0,0,0,.916-.537.763.763,0,0,0,.7.095,3.466,3.466,0,0,0,1.991-1.959,5.342,5.342,0,0,0,1.043-1.39A9.53,9.53,0,0,0,123.87,97.9a11.734,11.734,0,0,0-.126-6.1c-.032-.063-.063-.095-.095-.158.063-1.106.126-2.212.126-3.318a65.027,65.027,0,0,0-1.3-12.545Z" fill="#b23e3b"/>
        <path id="Path_37" data-name="Path 37" d="M110.124,98.148a21.568,21.568,0,0,1-.7,4.93c-.221.822-.442,1.612-.7,2.433a5.6,5.6,0,0,0-.379,2.5.38.38,0,0,0,.664.19,6.545,6.545,0,0,0,.853-2.18c.253-.916.537-1.8.758-2.718a9.216,9.216,0,0,0,.158-5.309c-.126-.411-.664-.19-.664.158Z" fill="#b23e3b"/>
        <path id="Path_38" data-name="Path 38" d="M104.942,49.422a38.483,38.483,0,0,1,2.528,6.13c.348,1.074.948,2.054,1.359,3.128a14.417,14.417,0,0,1,.885,3.286,15.083,15.083,0,0,1,.126,3.381c-.032,1.043-.411,2.117-.348,3.16.032.411.537.411.727.126a7.945,7.945,0,0,0,.727-3.1,16.527,16.527,0,0,0,.032-3.065,14.262,14.262,0,0,0-1.864-5.878c-1.169-1.959-1.675-4.171-2.718-6.162a31.929,31.929,0,0,1-2.686-5.656.267.267,0,0,0-.316-.19.272.272,0,0,0-.284.253,4.847,4.847,0,0,0,.537,2.054,23.928,23.928,0,0,0,1.3,2.528Z" fill="#b23e3b"/>
        <path id="Path_39" data-name="Path 39" d="M111.894,61.3a12.07,12.07,0,0,1,.474,2.117,4.787,4.787,0,0,0,.19,1.643.33.33,0,0,0,.537.095c.632-.853.126-2.4-.126-3.318a21.429,21.429,0,0,0-1.675-4.14.27.27,0,0,0-.506.19c.379,1.138.758,2.275,1.106,3.413Z" fill="#b23e3b"/>
        <path id="Path_40" data-name="Path 40" d="M54.414,51.792c.411-.632.632-1.327,1.074-1.959a17.243,17.243,0,0,1,1.675-2.022c.632-.664,1.327-1.3,1.991-1.928.379-.348.948-.727.948-1.3a.2.2,0,0,0-.158-.19c-.6-.032-1.106.632-1.517,1.043-.7.664-1.39,1.327-2.054,2.054-.916.98-2.591,2.686-2.37,4.171a.229.229,0,0,0,.411.126Z" fill="#b23e3b"/>
        <path id="Path_41" data-name="Path 41" d="M53.688,49.327C54.73,48,56.31,47.21,57.353,45.851c.095-.126-.032-.221-.158-.158A13.04,13.04,0,0,0,53.4,49.106.18.18,0,0,0,53.688,49.327Z" fill="#b23e3b"/>
        <path id="Path_42" data-name="Path 42" d="M76.218,45.725c-.6,2.307-1.548,4.487-1.928,6.857-.19,1.232-.253,2.5-.348,3.76a16.494,16.494,0,0,0-.221,3.508.216.216,0,0,0,.411.063,7.951,7.951,0,0,0,.6-3.1c.095-1.264.19-2.5.348-3.76.284-2.5,1.3-4.772,1.643-7.268.063-.316-.411-.411-.506-.063Z" fill="#b23e3b"/>
        <path id="Path_43" data-name="Path 43" d="M74.133,49.738c.032-.221-.316-.348-.379-.126-.537,1.517-1.232,3.413-.664,4.993a.247.247,0,0,0,.474-.032c.126-.758.095-1.517.158-2.275A17.28,17.28,0,0,1,74.133,49.738Z" fill="#b23e3b"/>
        <path id="Path_44" data-name="Path 44" d="M46.641,48.79a10.688,10.688,0,0,0,1.138-1.706,8.97,8.97,0,0,1,1.58-1.706.166.166,0,0,0-.158-.284,3.766,3.766,0,0,0-1.706,1.517,5.427,5.427,0,0,0-1.106,2.054.149.149,0,0,0,.253.126Z" fill="#b23e3b"/>
      </g>
      <g id="Group_57" data-name="Group 57">
        <path id="Path_45" data-name="Path 45" d="M42.659,56.974a19.116,19.116,0,0,0-1.138,4.392c-.474,3.128-.506,6.352-.758,9.511-.063.916-1.517.727-1.422-.221A74.812,74.812,0,0,1,40.353,60.7c.632-2.907,1.864-6.478,4.266-8.374.158-.126.379.063.284.221-.664,1.517-1.643,2.876-2.244,4.424Z" fill="#e08c6e"/>
        <path id="Path_46" data-name="Path 46" d="M50.5,70.277a9.177,9.177,0,0,1-.158-4.8c.158-.727.316-1.454.506-2.18.063-.506.158-.98.221-1.485.032-.158.126-.221.253-.19a2.015,2.015,0,0,1,.253-.442c.126-.19.379-.063.411.126a5.4,5.4,0,0,1-.253,1.991c-.126.569-.284,1.169-.379,1.738-.063.474-.095.948-.126,1.422a18.24,18.24,0,0,0-.063,2.275,5.359,5.359,0,0,0,.316,1.169c.158.6-.758.98-.98.379Z" fill="#e08c6e"/>
        <path id="Path_47" data-name="Path 47" d="M57.164,67.876a50.733,50.733,0,0,1-.569-5.372,36.091,36.091,0,0,1-.316-5.214c0-.316.506-.284.537,0,.253,1.833.474,3.634.727,5.467a31.852,31.852,0,0,1,.632,5.151C58.112,68.476,57.29,68.35,57.164,67.876Z" fill="#e08c6e"/>
        <path id="Path_48" data-name="Path 48" d="M64.653,59.028a17.012,17.012,0,0,1-.537-3.982c0-1.169.095-2.338.19-3.508a.24.24,0,0,1,.474,0,47.376,47.376,0,0,0,1.169,6.984A16.132,16.132,0,0,0,68.6,64.431a8.9,8.9,0,0,0,3.824,2.812,18.768,18.768,0,0,0,2.275.664,9.928,9.928,0,0,1,2.307.6c.348.19.442.79,0,.916-1.612.474-3.855-.253-5.34-.885a10.233,10.233,0,0,1-4.2-3.192,15.585,15.585,0,0,1-2.812-6.32Z" fill="#e08c6e"/>
        <path id="Path_49" data-name="Path 49" d="M76.661,61.682a.22.22,0,0,1,.348-.126,6.929,6.929,0,0,1,1.169,1.517,21.22,21.22,0,0,0,1.517,1.833,14.534,14.534,0,0,0,1.77,1.643c.411.316.948.537,1.2,1.011a.337.337,0,0,1-.19.442c-.632.221-1.2-.253-1.675-.6a13.389,13.389,0,0,1-1.928-1.864,15.755,15.755,0,0,1-1.643-2.18,3.048,3.048,0,0,1-.569-1.675Z" fill="#e08c6e"/>
        <path id="Path_50" data-name="Path 50" d="M84.94,53.087a52.413,52.413,0,0,1,1.327,6.257,46.925,46.925,0,0,0,1.9,6.541,26.133,26.133,0,0,0,3.16,5.941,18.217,18.217,0,0,0,2.117,2.56A24.057,24.057,0,0,1,95.715,76.5a.4.4,0,0,1-.474.6,8.582,8.582,0,0,1-2.907-2.212,20.507,20.507,0,0,1-2.212-2.5,26.1,26.1,0,0,1-3.192-6,39.833,39.833,0,0,1-1.9-6.636,23.288,23.288,0,0,1-.727-6.6c.063-.284.537-.348.632-.063Z" fill="#e08c6e"/>
        <path id="Path_51" data-name="Path 51" d="M93.092,68.919c-.095-.284.253-.6.506-.379a17.17,17.17,0,0,1,2.56,3.76c.79,1.359,1.454,2.749,2.18,4.14a49.517,49.517,0,0,1,3.824,8.058,20.891,20.891,0,0,1,1.138,8.247c-.19,2.022-.98,4.55-3,5.435a.373.373,0,0,1-.474-.474c.316-.822.79-1.548,1.169-2.338a8.3,8.3,0,0,1,.19-1.517c.063-.316.095-.632.126-.948a.436.436,0,0,1-.095-.126,5.809,5.809,0,0,1-.379-2.086c-.095-.758-.221-1.517-.348-2.275a11.111,11.111,0,0,1-.348-4.076.324.324,0,0,1,.158-.19l-.095-.284a80.694,80.694,0,0,0-3.571-7.457c-.6-1.232-1.2-2.5-1.8-3.729a30.891,30.891,0,0,1-1.738-3.76Z" fill="#e08c6e"/>
        <path id="Path_52" data-name="Path 52" d="M109.24,110.756a4.526,4.526,0,0,0,.6-1.39,15.831,15.831,0,0,0,.569-3.666,13.358,13.358,0,0,0-.095-2.97c-.348-1.738-1.3-3.255-1.3-5.056,0-.316.442-.316.569-.063.79,1.675,1.928,3.476,2.212,5.309a15.322,15.322,0,0,1,.095,3.6,12.913,12.913,0,0,1-.79,3.95c-.348.853-1.011,2.18-2.054,2.275-.569.063-1.138-.7-.664-1.169a6.946,6.946,0,0,0,.853-.822Z" fill="#e08c6e"/>
        <path id="Path_53" data-name="Path 53" d="M88.036,48.126a5.718,5.718,0,0,1-2.876-1.864c-.063-.032-.126-.032-.19-.063A.133.133,0,0,1,85,45.946a16.287,16.287,0,0,1,3.918.063q2.275.095,4.55,0a68.848,68.848,0,0,0,8.026-1.043c1.454-.253,3.7-.411,4.708-1.643,1.359-1.612-.6-3.444-1.77-4.708-1.3-.885-2.654-1.77-4.013-2.56-1.232-.727-2.56-1.264-3.824-1.928a.2.2,0,0,1,.126-.379,12.424,12.424,0,0,1,4.424,1.485,35.876,35.876,0,0,1,4.14,2.37,22.232,22.232,0,0,1,3.571,3.128,1.135,1.135,0,0,1,.316.221,7.689,7.689,0,0,1,.632.79c.727.822,1.422,1.643,2.149,2.433a37.613,37.613,0,0,1,3.16,3.95c.221.348.442.7.632,1.043a.031.031,0,0,0,.032.032,4.673,4.673,0,0,1,.98,1.485,1.487,1.487,0,0,1,.063.727c.158.348.284.7.442,1.043a43.528,43.528,0,0,1,1.643,4.835,17.685,17.685,0,0,1,.7,4.424c0,.348-.537.569-.664.158-.379-1.485-.727-3-1.169-4.487a40.814,40.814,0,0,0-1.643-4.519,21.483,21.483,0,0,0-1.675-3.16,6.409,6.409,0,0,0-.569-.411,8.535,8.535,0,0,0-3.571-1.39,11.578,11.578,0,0,0-4.614.822,16.676,16.676,0,0,1-4.3.822,45.086,45.086,0,0,1-9.227-.474,18.323,18.323,0,0,1-4.14-.948Z" fill="#e08c6e"/>
        <path id="Path_54" data-name="Path 54" d="M29.072,84.782a17.906,17.906,0,0,1,.79-4.993c.506-1.738,1.3-3.413,1.643-5.214a56.705,56.705,0,0,1,1.169-5.593,56.052,56.052,0,0,1,2.086-5.4C35.518,61.84,36.308,60.1,37,58.333c.7-1.8,1.3-3.6,1.991-5.372a30.781,30.781,0,0,1,3.508-6.6c.727-1.011,1.485-2.022,2.275-3a.443.443,0,0,1,.126-.569c.221-.158.474-.316.7-.474.316-.379.6-.758.885-1.138-.221-1.043.822-2.338,1.359-3.128a21.2,21.2,0,0,1,2.718-3.128,20.306,20.306,0,0,1,3.255-2.433,7.169,7.169,0,0,1,3.95-1.359c.7-.411,1.39-.822,2.117-1.2a19.334,19.334,0,0,1,5.972-2.149c1.232-.221,3.6-.822,4.456.411a18.8,18.8,0,0,1,2.654-.221,27.352,27.352,0,0,1,7.805,1.2c1.327.379,2.654.885,3.95,1.359a8.021,8.021,0,0,1,3.034,1.706c.569.569-.19,1.612-.79,1.011a11.047,11.047,0,0,0-4.3-1.928,43.52,43.52,0,0,0-4.835-1.264,22,22,0,0,0-4.961-.474,26.863,26.863,0,0,0-4.74.727,48.446,48.446,0,0,0-8.563,2.781,5.462,5.462,0,0,0-.98,1.106c-.032.032-.032.063-.063.095a3.053,3.053,0,0,0,.032.758A7.946,7.946,0,0,0,60.64,39.4,15.411,15.411,0,0,0,66.3,42.881a29.373,29.373,0,0,0,3.666,1.232c.6.126,1.232.284,1.833.348a3.524,3.524,0,0,1,1.3.284.357.357,0,0,1,0,.664,1.811,1.811,0,0,1-.442.126,14.932,14.932,0,0,1-6.889-.126c-1.2-.253-2.4-.569-3.6-.885-1.138-.316-2.307-.537-3.381-.948-.632-.253-1.232-.537-1.864-.853a.893.893,0,0,1-.569-.126c-.158-.126-.316-.221-.474-.348a14.593,14.593,0,0,0-1.959-.727.4.4,0,0,1-.19-.032l-.284-.095a6.285,6.285,0,0,0-1.548-.095,10.245,10.245,0,0,0-3.476,1.011c-.379.19-.758.379-1.138.537a1.736,1.736,0,0,1-.221.284A60.429,60.429,0,0,0,42.533,49.2a44.45,44.45,0,0,0-3.16,7.2c-.948,2.623-2.054,5.182-3.192,7.742A40.414,40.414,0,0,0,33.432,72.2a23.974,23.974,0,0,1-.948,3.95c-.221.632-.474,1.264-.727,1.9-1.138,6.32-1.706,12.924-.442,19.213A37.282,37.282,0,0,0,34.7,106.68a19.586,19.586,0,0,0,2.591,3.982,13.829,13.829,0,0,0,1.833,1.77c.6.442,1.264.822,1.8,1.3.379.348.158,1.169-.442,1.011a9.226,9.226,0,0,1-3.887-2.876,19.938,19.938,0,0,1-2.718-3.95,37.4,37.4,0,0,1-3.7-9.891c-.126-.569-.221-1.169-.316-1.77-.032-.032-.063-.063-.063-.095a59.359,59.359,0,0,1-.727-11.376Z" fill="#e08c6e"/>
        <path id="Path_55" data-name="Path 55" d="M39.657,101.845c0-.126.158-.158.221-.032a48.968,48.968,0,0,0,3.065,7.71A19.358,19.358,0,0,0,45.219,113c.442.537.916,1.043,1.422,1.548a11.566,11.566,0,0,0,1.58,1.2.468.468,0,0,1-.158.79c-1.264.348-2.686-1.106-3.508-1.928A14.486,14.486,0,0,1,42,110.883a21.8,21.8,0,0,1-2.338-9.037Z" fill="#e08c6e"/>
        <path id="Path_56" data-name="Path 56" d="M48.79,109.9a6.363,6.363,0,0,0,2.338,4.2,11.837,11.837,0,0,0,4.424,2.18c.474.158.19.758-.158.822-1.8.348-3.887-1.232-5.119-2.37-1.327-1.232-2.5-3-1.928-4.866.063-.221.442-.221.442.032Z" fill="#e08c6e"/>
        <path id="Path_57" data-name="Path 57" d="M58.491,110.409a19.013,19.013,0,0,0,.885,3.508,5.239,5.239,0,0,0,1.074,1.548c.411.411,1.074.664,1.359,1.169a.334.334,0,0,1-.158.474c-1.327.442-2.686-1.422-3.192-2.4a5.151,5.151,0,0,1-.411-4.3c.095-.19.411-.19.442,0Z" fill="#e08c6e"/>
        <path id="Path_58" data-name="Path 58" d="M65.7,110.946a4.415,4.415,0,0,0,1.928,3.855c.632.411,1.327.7,1.991,1.043.569.316,1.359.506,1.738,1.074a.35.35,0,0,1-.253.537,5.369,5.369,0,0,1-2.4-.664,8.407,8.407,0,0,1-2.37-1.359,3.934,3.934,0,0,1-1.264-4.614C65.158,110.472,65.664,110.63,65.7,110.946Z" fill="#e08c6e"/>
        <path id="Path_59" data-name="Path 59" d="M75.175,109.682a28.9,28.9,0,0,1,1.738,3.034c.442.98.79,2.56-.032,3.444a.451.451,0,0,1-.79-.253,8.509,8.509,0,0,1,.032-1.548,5.144,5.144,0,0,0-.506-1.675,6.529,6.529,0,0,1-.79-2.876c-.032-.19.253-.316.348-.126Z" fill="#e08c6e"/>
        <path id="Path_60" data-name="Path 60" d="M83.012,107.249a9.9,9.9,0,0,1,3.35,3.413,3.57,3.57,0,0,1,.442,2.054c-.063.632-.569,1.675-1.3,1.643a.357.357,0,0,1-.379-.348c-.032-.6.506-.948.6-1.517a2.642,2.642,0,0,0-.569-1.77,17.6,17.6,0,0,0-2.623-2.907A.371.371,0,0,1,83.012,107.249Z" fill="#e08c6e"/>
        <path id="Path_61" data-name="Path 61" d="M89.4,112.052a7.686,7.686,0,0,0,.032-2.086,36.951,36.951,0,0,0-.98-4.108c-.063-.316.379-.411.569-.19A9.576,9.576,0,0,1,90.6,109.9c.19,1.232.19,3.286-.758,4.234-.253.253-.885.19-.853-.284a11.458,11.458,0,0,1,.411-1.8Z" fill="#e08c6e"/>
        <path id="Path_62" data-name="Path 62" d="M100.866,110.6a22.782,22.782,0,0,0,.442-2.56c.032-.284.032-.569.063-.822a22.067,22.067,0,0,0-.063-3.539c-.19-.7-.442-1.359-.632-2.054-.095-.348.379-.6.569-.284a9.461,9.461,0,0,1,1.39,3.16,9.179,9.179,0,0,1-.095,3.476c-.284,1.675-.284,4.329-1.959,5.34-.411.253-1.074-.19-.758-.664a8.384,8.384,0,0,0,1.043-2.054Z" fill="#e08c6e"/>
        <path id="Path_63" data-name="Path 63" d="M118.151,101.909a7.816,7.816,0,0,0,.411-1.9c.158-1.232.126-2.465.19-3.7a.116.116,0,0,1,.032-.095c-.032-.095-.032-.19-.063-.284a9.79,9.79,0,0,1-.379-2.528.225.225,0,0,1,.411-.095,9.339,9.339,0,0,1,.948,2.781,17.467,17.467,0,0,1,.537,3.413c.063,1.643-.032,4.424-1.517,5.5a.484.484,0,0,1-.727-.569,5.623,5.623,0,0,1,.379-.916.164.164,0,0,1-.126.063c-.221.126-.632.032-.6-.284a6.611,6.611,0,0,1,.506-1.39Z" fill="#e08c6e"/>
      </g>
      <g id="Group_58" data-name="Group 58">
        <path id="Path_64" data-name="Path 64" d="M99.412,83.044c-.632-2.97-2.591-4.961-4.961-6.668a39.115,39.115,0,0,1-3.413-2.623,31.754,31.754,0,0,1-2.718-3.1.916.916,0,0,0-.442-1.043,10.341,10.341,0,0,0-2.465-.506,18.174,18.174,0,0,1-3.128-1.043,12.65,12.65,0,0,1-2.907-1.675,6.729,6.729,0,0,1-1.043-1.074c-.032-.032-.032-.063-.063-.063a2.635,2.635,0,0,0-.7-1.043l-.095-.095a.164.164,0,0,0-.126-.063c-.095-.063-.158-.095-.253-.158-.253-.126-.474.095-.474.348a14.4,14.4,0,0,0,.79,3.255,5.186,5.186,0,0,0,.822,1.612,15.74,15.74,0,0,1-1.675.158,21.1,21.1,0,0,1-3.729-.221A17.266,17.266,0,0,1,67.4,67.212a1.918,1.918,0,0,1-.221-.316,18.2,18.2,0,0,1-1.517-2.781c-.506-1.043-1.169-1.991-1.738-3-1.3-2.338-.7-4.961-.442-7.489a.267.267,0,0,0-.063-.221c0-.126.032-.221.032-.348,0-.253-.316-.316-.474-.221-1.011.664-1.643,2.149-2.244,3.192a16.771,16.771,0,0,0-1.675,4.55,25.124,25.124,0,0,0-.569,5.34c0,.916,0,1.833.063,2.718.032.442.032.916.063,1.422a8.636,8.636,0,0,1-2.18-3.887,14.982,14.982,0,0,1-.664-3.35,12.371,12.371,0,0,0-.19-2.654.258.258,0,0,0-.411-.095c-.727.569-.758,1.833-.758,2.718a26.73,26.73,0,0,0-.916,7.3,10.935,10.935,0,0,0-1.169.095A17.085,17.085,0,0,0,50.5,70.4a.51.51,0,0,0-.284-.095,16.126,16.126,0,0,0-4.582.569,26.093,26.093,0,0,1-4.93.7.364.364,0,0,0-.19.632l.19.095a10.159,10.159,0,0,0-.474,2.56,14.912,14.912,0,0,0-.19,3.35c.032.506-.316,1.2-.126,1.706-.221.853.316,1.517.411,2.433.063.6.158,1.2.19,1.833v.379A9.687,9.687,0,0,0,37.7,89.3a10.258,10.258,0,0,0-.284,6.731c.98,2.5,3.508,4.045,5.751,5.277a17.337,17.337,0,0,0,3.286,1.3c.6.19,1.232.316,1.864.537a1.109,1.109,0,0,0-.158.253,77.261,77.261,0,0,1,9.575,2.433c2.212-.158,4.424-.348,6.668-.442,1.643-.063,3.255,0,4.9.063.348,0,.7.032,1.043.032h.284c.569,0,1.138-.032,1.738-.063a46.192,46.192,0,0,0,7.742-1.359c.095-.032.19-.032.253-.063h.032c.316-.095.664-.158.98-.253.569-.158,1.138-.284,1.706-.442.126-.032,1.264-.316.284-.063,1.454-.379,2.939-.758,4.424-1.106.664-.158,1.359-.348,2.022-.506.095-.032.537-.126.664-.158l.664-.19a34.5,34.5,0,0,0,3.508-1.074c.98-.348,1.959-.758,2.939-1.106.063-.032.158-.063.221-.095h.032c.442-.158.853-.284,1.3-.411,1.2-1.169,1.232-4.392,1.138-5.593-.126-1.517-.442-3.034-.474-4.582a23.541,23.541,0,0,0-.379-5.372Z" fill="#fff6f1"/>
        <path id="Path_65" data-name="Path 65" d="M115.591,72.426a6.629,6.629,0,0,0-6.194-.664,10.548,10.548,0,0,0-3.95,3,.537.537,0,0,0-.474.474,21.406,21.406,0,0,0-.158,3.76,36.3,36.3,0,0,1-.19,4.14c-.221,2.054-.7,4.677.569,6.51.916,1.359,2.812,1.422,4.266,1.138a10.96,10.96,0,0,0,5.119-2.5,8.8,8.8,0,0,0,2.876-5.119,26.608,26.608,0,0,0,.6-5.909,6.345,6.345,0,0,0-2.465-4.835Z" fill="#fff6f1"/>
      </g>
      <path id="Path_66" data-name="Path 66" d="M91.892,98.369c-3.634,1.138-7.742-.126-8.658-3.034-.916-2.876,1.359-6,5.372-7.426,3.6-1.264,7.9-.885,9.259,2.97C99.286,94.925,95.557,97.232,91.892,98.369Z" fill="#f9a5b4"/>
      <path id="Path_67" data-name="Path 67" d="M44.4,91.607c-3-1.011-6.478-.569-7.426,2.907-.032.095-.032.158-.063.253a10.91,10.91,0,0,0,2.876,5.246,12.915,12.915,0,0,0,2.37.98c3,.916,6.32-.348,6.92-2.939.632-2.591-1.327-5.309-4.677-6.446Z" fill="#f9a5b4"/>
      <g id="Group_59" data-name="Group 59">
        <path id="Path_68" data-name="Path 68" d="M88.352,93.219a.387.387,0,0,0-.442.316,1.344,1.344,0,0,1-.063.348c-.032.158-.095.284-.126.442a.424.424,0,0,0,.221.442.417.417,0,0,0,.537-.19,1.361,1.361,0,0,0,.158-.98.35.35,0,0,0-.284-.379Z" fill="#f34d65"/>
        <path id="Path_69" data-name="Path 69" d="M89.9,93.282a2.086,2.086,0,0,1-.032.442.568.568,0,0,0,.063.506.286.286,0,0,0,.316.095c.442-.126.316-.79.221-1.106a.287.287,0,0,0-.569.063Z" fill="#f34d65"/>
        <path id="Path_70" data-name="Path 70" d="M92.934,92.618c-.095-.348-.632-.253-.7.063a2.214,2.214,0,0,1-.095.442c-.063.221-.158.474,0,.664a.275.275,0,0,0,.284.126.642.642,0,0,0,.474-.537A1.255,1.255,0,0,0,92.934,92.618Z" fill="#f34d65"/>
      </g>
      <g id="Group_60" data-name="Group 60">
        <path id="Path_71" data-name="Path 71" d="M44.84,96.284a.347.347,0,0,1,.379.253,1.123,1.123,0,0,0,.063.316c.032.126.095.253.126.379a.342.342,0,0,1-.158.379.332.332,0,0,1-.442-.158,1.411,1.411,0,0,1-.19-.885.3.3,0,0,1,.221-.284Z" fill="#f34d65"/>
        <path id="Path_72" data-name="Path 72" d="M43.576,96.41a1.538,1.538,0,0,0,.032.379.534.534,0,0,1-.032.442.212.212,0,0,1-.253.095c-.348-.095-.284-.7-.253-.98A.255.255,0,0,1,43.576,96.41Z" fill="#f34d65"/>
        <path id="Path_73" data-name="Path 73" d="M41.079,95.873c.063-.316.506-.253.569.032l.095.379c.063.19.158.411.032.569a.32.32,0,0,1-.221.126c-.221-.032-.348-.253-.411-.474a1.092,1.092,0,0,1-.063-.632Z" fill="#f34d65"/>
      </g>
      <g id="Group_61" data-name="Group 61">
        <path id="Path_74" data-name="Path 74" d="M93.787,90.375a.031.031,0,0,1-.032-.032C93.851,90.406,93.851,90.406,93.787,90.375Z" fill="#f2f5fe"/>
        <path id="Path_75" data-name="Path 75" d="M93.724,88.637a.638.638,0,0,0-.822.316.611.611,0,0,0,.316.822l.032.032v.032l.126.253c.063.063.063.126.158.19a1.718,1.718,0,0,1,.253.126.528.528,0,0,0,.379-.032c.032,0,.032-.032.063-.032a.65.65,0,0,0,.316-.6A1.2,1.2,0,0,0,93.724,88.637Zm-.474,1.2Z" fill="#f2f5fe"/>
      </g>
      <g id="Group_62" data-name="Group 62">
        <path id="Path_76" data-name="Path 76" d="M40.321,93.914h.032C40.258,93.945,40.258,93.945,40.321,93.914Z" fill="#f2f5fe"/>
        <path id="Path_77" data-name="Path 77" d="M39.657,93.345a.585.585,0,0,0,.284.537c.032,0,.032.032.063.032a.367.367,0,0,0,.316,0l.19-.095a.4.4,0,0,0,.126-.19l.095-.221v-.032l.032-.032a.6.6,0,0,0,.221-.758.531.531,0,0,0-.7-.253,1.073,1.073,0,0,0-.632,1.011Zm1.043.063Z" fill="#f2f5fe"/>
      </g>
      <g id="Group_63" data-name="Group 63">
        <path id="Path_78" data-name="Path 78" d="M58.9,69.3l.284-1.232a4.408,4.408,0,0,0,.348,2.054.365.365,0,0,0,.7-.095,6.46,6.46,0,0,0-.063-1.738,13.515,13.515,0,0,1,.032-2.528c.063-.664.19-1.359.316-2.022.253-.7.474-1.39.727-2.086.253-.727.474-1.454.7-2.18.063,2.939.411,6.288,2.749,8.247a8.313,8.313,0,0,0,3.729,1.548c1.169.221,2.812.506,3.918-.032a.155.155,0,0,0-.032-.284c-1.138-.253-2.37-.063-3.539-.253a8.155,8.155,0,0,1-3.7-1.422c-1.327-.98-1.9-2.749-2.275-4.3a29.712,29.712,0,0,1-.632-4.14c.095-.348.221-.7.316-1.043.19-.6.379-1.169.6-1.77a6.175,6.175,0,0,0,.664-1.9.634.634,0,0,0-.98-.6,3.625,3.625,0,0,0-.79,1.011,11.06,11.06,0,0,0-2.18,4.835c-.284,1.074-.506,2.18-.727,3.286a7.7,7.7,0,0,0-.474,2.907,1.541,1.541,0,0,0,.095.221,15.834,15.834,0,0,0-.19,3.476C58.491,69.551,58.838,69.519,58.9,69.3Z" fill="#fdb8a9"/>
        <path id="Path_79" data-name="Path 79" d="M49.517,72.2c1.232.474,2.97-.158,4.108-.379a.78.78,0,0,0,.6-.6.617.617,0,0,0,.221-.032.49.49,0,0,0,.284-.474,6.834,6.834,0,0,0-.284-1.959v-.032c.063-.537.126-1.043.221-1.58a20.267,20.267,0,0,1,.948-2.97c.19-.474,2.054-4.392.569-4.2-.79.095-.916,1.043-1.169,1.675-.348.916-.7,1.833-1.011,2.781-.537,1.675-1.2,3.887-.379,5.562a.3.3,0,0,0,.253.19v.284a.285.285,0,0,0-.158-.032,24.608,24.608,0,0,0-3.065-.126.875.875,0,0,0-.411.095H50.18a.554.554,0,0,0-.506-.158,23.206,23.206,0,0,1-2.907.474,6,6,0,0,0-2.654.664,7.5,7.5,0,0,0-3.381.6c-.253.158-.379.632,0,.758a15.365,15.365,0,0,0,4.961.126,10.72,10.72,0,0,0,3.824-.664Z" fill="#fdb8a9"/>
        <path id="Path_80" data-name="Path 80" d="M113.537,77.988a1.435,1.435,0,0,0-2.022-.569.474.474,0,0,0-.158.758c0,.032-.032.063-.032.095a4.257,4.257,0,0,0-2.117,1.77,5.307,5.307,0,0,0-.822,4.329.829.829,0,0,0,.853.506c2.18-.158,3.7-2.433,4.3-4.361A3.489,3.489,0,0,0,113.537,77.988Z" fill="#fdb8a9"/>
        <path id="Path_81" data-name="Path 81" d="M105.7,76.439a.282.282,0,0,0-.537.063c-.379,1.864.158,3.95.348,5.846a30.268,30.268,0,0,0-.6,3.381,6.784,6.784,0,0,0-.126,2.876c-.063.19-.095.379-.158.569-.158.727.853,1.074,1.3.569,1.359-1.643,1.3-4.487,1.169-6.478a32.9,32.9,0,0,0-.506-3.539,13.99,13.99,0,0,0-.885-3.286Z" fill="#fdb8a9"/>
        <path id="Path_82" data-name="Path 82" d="M100.392,89.68a10.846,10.846,0,0,0-1.043-4.9,11,11,0,0,0-3-3.7c-.822-.727-1.738-1.359-2.56-2.086a29.531,29.531,0,0,1-2.812-2.812c-1.612-1.864-2.939-3.918-4.424-5.878a11.292,11.292,0,0,0,1.485-.126.351.351,0,0,0-.095-.7A11.118,11.118,0,0,1,79,66.991c-.063-.411-.126-.822-.158-1.2-.095-.853-.095-2.433-1.043-2.749a.528.528,0,0,0-.6.158c-.537.758.032,1.928.126,2.781.158,1.074.095,2.338.758,3.255A.517.517,0,0,0,79,69.013a3.592,3.592,0,0,0,.095-1.169,10.37,10.37,0,0,0,7.141,2.528A38.215,38.215,0,0,0,95.02,80.8,13.016,13.016,0,0,1,98.5,84.75a10.317,10.317,0,0,1,.916,2.5c.126.506.19,1.011.284,1.517,0,.032-.032.032-.032.063a16.29,16.29,0,0,1-1.011,4.74A7.91,7.91,0,0,1,97.39,95.4c-.379.253-.79.537-1.169.758a39.012,39.012,0,0,1-4.835,2.18c-3.476,1.327-7.047,2.528-10.617,3.508a50.91,50.91,0,0,1-5.783,1.264c-1.106.158-2.212.316-3.318.506-1.264.158-2.528.316-3.792.442-1.043.095-2.086.221-3.128.316q-2.133.142-4.266.19a41.975,41.975,0,0,1-8.437-.6c-1.043-.19-2.022-.442-3.034-.7a4.032,4.032,0,0,0-2.117-.126.031.031,0,0,0-.032.032,80.622,80.622,0,0,1,10.9,2.654c2.212-.158,4.424-.348,6.668-.442,1.643-.063,3.255,0,4.9.063.348,0,.7.032,1.043.032h.284c.569,0,1.138-.032,1.738-.063.948-.063,1.9-.19,2.844-.316-1.138.032-2.244.032-3.381.032a70.952,70.952,0,0,0,9.575-1.8c.664-.158,1.327-.348,1.991-.537a.615.615,0,0,0,.379.316c1.327-.348,2.686-.7,4.013-1.011.664-.158,1.359-.348,2.022-.506.095-.032.537-.126.664-.158l.664-.19a34.5,34.5,0,0,0,3.508-1.074c1.359-.506,2.749-1.074,4.14-1.517.032-.032.032-.063.063-.095l.032-.063c1.454-.885,2.528-2.086,1.548-3.824.063-.126.095-.221.158-.348a.385.385,0,0,0-.474-.506,2.179,2.179,0,0,0-.316.126,7.83,7.83,0,0,0,.569-4.266Z" fill="#fdb8a9"/>
        <path id="Path_83" data-name="Path 83" d="M58.333,90.47a2.021,2.021,0,0,0-1.359.095.528.528,0,0,0-.6.7,1.336,1.336,0,0,0,2.212.284A.6.6,0,0,0,58.333,90.47Z" fill="#fdb8a9"/>
      </g>
      <path id="Path_84" data-name="Path 84" d="M121.374,112.4c-.6-1.928-2.591-2.939-5.625-3.7l-.885-.095c-1.39,1.643-3.034,3.381-5.277,3.35h-.063l-.032.032c-.6.411-1.327-.537-.79-1.011.126-.126.284-.221.411-.348a4.248,4.248,0,0,0,.727-1.738,8.719,8.719,0,0,1,.253-.853l-1.675-.19c-3.918.506-7.868.853-11.818,1.106-5.34.316-10.649.348-15.989.537-4.93.19-9.859.411-14.789.158-7.742-.379-15.484-1.959-22.025-6a6.909,6.909,0,0,1-4.329-3.1c-.032-.063-.063-.158-.095-.221-.126-.126-.253-.221-.379-.348a1.656,1.656,0,0,1-.316-.348c-2.18.348-7.331,3.508-8.184,3.887a7.841,7.841,0,0,0-3.887,3.666c-1.3,2.749-.537,4.708,1.422,6.794a27.538,27.538,0,0,0,6.6,4.835,99.379,99.379,0,0,0,14.789,6.478c19.244,7.078,33.4,9.006,44.113,7.552,6.194-.853,13.177-4.866,19.023-9.006,3.855-2.718,10.554-5.783,8.816-11.439Z" fill="#ff494b"/>
      <path id="Path_85" data-name="Path 85" d="M120.552,111.357a4.282,4.282,0,0,0-3.666-1.9.624.624,0,0,0-1.043-.474c-.79.6-1.643,1.138-2.5,1.675a8.941,8.941,0,0,0-2.212,1.454,2.111,2.111,0,0,0-.948.316.436.436,0,0,0-.095.126h-.348c-.506,0-1.043-.032-1.548-.032a9.515,9.515,0,0,0,.885-2.623c.537-.284.664-1.169-.095-1.327-2.149-.442-4.361,1.2-6.13,2.149a57.75,57.75,0,0,1-7.173,3.1,38.161,38.161,0,0,1-7.647,2.117c-2.654.442-5.34.442-7.995.758a.5.5,0,0,0-.253.916c-3.413.032-6.826-.063-10.207-.284a21.1,21.1,0,0,1-3.7-.664.674.674,0,0,0,.632-.506c.253-.885-1.612-1.011-2.086-1.106a16.005,16.005,0,0,0-3.444-.569c-.506,0-.632.79-.126.885a6.155,6.155,0,0,1,.727.19c-.253-.063-.474-.095-.727-.158-.126-.032-.284-.063-.411-.095l-.095-.19a2.807,2.807,0,0,0-1.58-.632c-.727-.126-1.454-.284-2.18-.411-.474-.095-.916-.19-1.39-.284l-.664-.474a.7.7,0,0,0-.411-.126c-.569-.442-1.422-.284-2.117-.316-.822-.063-1.643-.158-2.433-.253-.442-.063-.853-.126-1.3-.19a5.711,5.711,0,0,0-2.433-1.011c-.948-.253-1.928-.506-2.876-.727a20.7,20.7,0,0,1-3.35-2.37c-.316-.221-.727.221-.537.537a9.592,9.592,0,0,0,3.7,3.223,15.21,15.21,0,0,0,1.675.632.567.567,0,0,0,.221.158,32.092,32.092,0,0,0,4.866,1.169c.727.126,1.485.221,2.244.284.284.032.6.063.916.095a28.911,28.911,0,0,0,2.939.916,10.37,10.37,0,0,0,1.706.758,8.114,8.114,0,0,0,2.686.474c1.643.442,3.255.98,4.866,1.454a30.979,30.979,0,0,0,7.236,1.011,105.919,105.919,0,0,0,15.515-.221,44.833,44.833,0,0,0,7.078-1.232c2.086-.569,4.266-1.2,6.415-.632a5.518,5.518,0,0,1,3.918,3.918,3.519,3.519,0,0,1-.253.948A7.959,7.959,0,0,1,102,125.45a15.325,15.325,0,0,1-5.688,2.244,47.416,47.416,0,0,1-6.636,1.011,111.374,111.374,0,0,1-15.231.126,84.2,84.2,0,0,1-15.136-2.022c-1.327-.316-2.623-.664-3.95-.948s-2.686-.411-4.045-.569c-.316-.032-.379.474-.063.537,1.706.284,3.381.727,5.088,1.169a.312.312,0,0,0,.063.442c2.939,2.149,6.889,2.749,10.428,3.35,1.833.316,3.7.632,5.5,1.011s3.6.853,5.4,1.169a53.623,53.623,0,0,0,11.249.758,26.827,26.827,0,0,0,5.246-.7,12.541,12.541,0,0,0,4.487-2.054c.063-.032.158-.032.221-.063.7-.19,1.39-.379,2.054-.632a.378.378,0,0,0,.442.032,26.1,26.1,0,0,1,3.6-1.9,24.155,24.155,0,0,0,3.7-2.18c1.106-.79,2.117-1.675,3.16-2.56.095-.063.158-.126.253-.19a6.556,6.556,0,0,0,2.117-.885,27.543,27.543,0,0,0,3.065-1.9c1.264-.916,2.97-2.307,3.444-3.982.063-.032.095-.063.158-.095,1.264-1.327.569-3.918-.379-5.277Z" fill="#e02f38"/>
      <g id="Group_64" data-name="Group 64">
        <path id="Path_86" data-name="Path 86" d="M84.782,122.7a10.253,10.253,0,0,0-3.476-.885c-1.422-.253-2.844-.411-4.266-.569-2.654-.316-5.309-.474-7.995-.7-4.993-.379-9.954-.98-14.947-1.485-.79-.095-1.2-.126-1.77-.221-.822-.126-1.675-.253-2.5-.442-1.706-.348-3.381-.822-5.056-1.3-2.907-.822-6.257-2.022-8.121-4.582l-.19-.284a.567.567,0,0,0-.98.569c1.3,2.907,4.108,4.866,6.826,6.32a37.85,37.85,0,0,0,9.8,3.192,117.777,117.777,0,0,0,13.746,1.864,141.617,141.617,0,0,0,15.958.758,26.626,26.626,0,0,0,2.718-.348,1.045,1.045,0,0,0,.253-1.9Z" fill="#ff767d"/>
        <path id="Path_87" data-name="Path 87" d="M92.808,123.08c-.379-.6-1.39-.664-2.022-.6a.948.948,0,1,0,0,1.9c.664.032,1.643,0,2.022-.6A.884.884,0,0,0,92.808,123.08Z" fill="#ff767d"/>
      </g>
      <g id="Group_65" data-name="Group 65">
        <path id="Path_88" data-name="Path 88" d="M88.605,102.762l-.095-.095c-.063-.158-.126-.284-.19-.442a4.682,4.682,0,0,0-1.706-2.117c-.916-.537-1.928,0-2.718.569a15.5,15.5,0,0,1-3.666,1.706c-2.718.98-5.4,2.086-8.153,3.065a21.3,21.3,0,0,1-7.805,1.39,11.391,11.391,0,0,0-1.169-1.3c-.506-.569-.98-1.106-1.517-1.643a4.4,4.4,0,0,0-2.718-1.359c-1.327-.158-3.381.316-3.192,1.706a7.921,7.921,0,0,0-1.928.537,5.875,5.875,0,0,0-3.729-3.16,3.231,3.231,0,0,0-3.918,1.864c-.221-.095-.506-.158-.758-.253-.664-.253-1.327-.569-1.959-.885A9.783,9.783,0,0,1,40.1,99.886c-.253-.348-.948-.158-.758.316a.542.542,0,0,0-.506.253,11.39,11.39,0,0,0-1.106,3.792,4.56,4.56,0,0,0,.98,3.508,5.537,5.537,0,0,0,2.781,1.833,4.862,4.862,0,0,0,2.528.19,12.016,12.016,0,0,1,1.3,1.548,4.344,4.344,0,0,0,2.149,1.517,5.913,5.913,0,0,0,4.993-.916,3.753,3.753,0,0,0,1.3,1.138c.442.221,1.106-.158.916-.7,0-.032-.032-.063-.032-.126a8.657,8.657,0,0,0,3.413,2.117,24.367,24.367,0,0,0,3.034.537,4.548,4.548,0,0,0,1.833-.095.24.24,0,0,0,.126.063,32.172,32.172,0,0,0,13.651,2.528c2.37-.126,4.772-.506,7.141-.822,1.169-.158,2.338-.379,3.508-.632a9.355,9.355,0,0,0,2.844-.916.19.19,0,0,0,.126-.032c.98-.411,1.2-1.675,1.327-2.654a9.114,9.114,0,0,0-.379-3.444,29.468,29.468,0,0,0-2.654-6.13Z" fill="#fff6f1"/>
        <path id="Path_89" data-name="Path 89" d="M159.262,94.957a.674.674,0,0,0-.664-.506c-1.106-.095-2.212-.442-3.318-.632a5.041,5.041,0,0,0-2.18-.126v-.474a2.52,2.52,0,0,0-.253-1.169.645.645,0,0,0-.253-1.074,23.982,23.982,0,0,0-3.413-.411,19.827,19.827,0,0,1-2.433-.758c-.126-.126-.284-.253-.411-.379a19.948,19.948,0,0,0-1.9-1.738,5.449,5.449,0,0,0-4.234-1.327,12.18,12.18,0,0,0-3.7,1.517,6.588,6.588,0,0,0-2.18,1.58c-.19-.284-.7-.348-.758.063a5.175,5.175,0,0,0,.885,3.318,11,11,0,0,1,1.169,4.677c.063,1.39.158,2.781.19,4.14a10.909,10.909,0,0,1-.158,2.022c-.032.095-.063.221-.095.316a.611.611,0,0,0-.284.948.785.785,0,0,0-.032.253.5.5,0,0,0,.632.474,1.289,1.289,0,0,0,.664-.474,8.134,8.134,0,0,0,2.307-.7c1.106-.442,2.18-.98,3.318-1.39,1.959-.727,3.223-2.4,4.361-4.076.442.158.885.253,1.3.442.758.348,1.485.79,2.275,1.138a4.946,4.946,0,0,0,4.171.19c2.117-.948,5.4-3.1,4.993-5.846Z" fill="#fff6f1"/>
      </g>
      <g id="Group_66" data-name="Group 66">
        <path id="Path_90" data-name="Path 90" d="M64.337,106.175c.632.442,1.77.158,2.465.032s2.307-.284,2.528-1.138c.284-1.011-1.454-.379-1.8-.284a7.19,7.19,0,0,1-2.812.442.522.522,0,0,0-.379.948Z" fill="#fdb8a9"/>
        <path id="Path_91" data-name="Path 91" d="M158.788,95.81l.063-.063c.348-.506-.411-1.074-.853-.664a6.741,6.741,0,0,1-5.056,2.022,53.479,53.479,0,0,1-5.5-.758,7.6,7.6,0,0,0-4.677,1.454c-.632.379-1.232.758-1.864,1.074a4.628,4.628,0,0,1-2.244-1.454c-1.454-1.548-2.117-3.634-3.35-5.309-.316-.411-1.074-.19-.885.379a17.751,17.751,0,0,0,.948,2.307.315.315,0,0,0-.126.158c-.569,1.422-.095,3.065,0,4.519a19.749,19.749,0,0,1-.284,5.625.652.652,0,0,0,.6.822,6.867,6.867,0,0,0,2.654-1.043c1.3-.7,2.56-1.454,3.824-2.212,1.232-.727,2.465-1.485,3.729-2.149a9.252,9.252,0,0,1,1.264-.6,2.633,2.633,0,0,1,.474-.126h.095a.544.544,0,0,0,.379-.063c.379.126.79.253,1.169.411.632.253,1.232.537,1.864.727a5.026,5.026,0,0,0,3.508-.253,4.821,4.821,0,0,0,2.149-1.106,8.3,8.3,0,0,0,2.307-3.192.845.845,0,0,0-.19-.506Z" fill="#fdb8a9"/>
        <path id="Path_92" data-name="Path 92" d="M150.951,92.681c0,.032.032.063.032.095a.6.6,0,0,0,.411.316l.063.032c.063.032.095.032.158.063a2.924,2.924,0,0,1,.316.158l.19.095s.158.126.095.063a.627.627,0,0,0,.7.095.612.612,0,0,0,.221-.79c-.032-.032,0-.253,0-.348a1.228,1.228,0,0,0-.063-.474.29.29,0,0,0-.126-.19,1.194,1.194,0,0,0,.284-.379c.221-.348-.253-.664-.537-.411a4.611,4.611,0,0,1-1.928.727.475.475,0,0,0-.348.474.744.744,0,0,0,.063.253.532.532,0,0,0,.474.221Z" fill="#fdb8a9"/>
        <path id="Path_93" data-name="Path 93" d="M136.6,91.986c.442.063,1.169.221,1.548-.158a.273.273,0,0,0,.095-.19,1.972,1.972,0,0,0,1.738-.632c.727-.095,1.422-.221,2.117-.316a.332.332,0,1,0,0-.664c-1.548-.158-3.16.253-4.677-.284-1.327-.474-2.37-1.106-3.824-.7a.578.578,0,0,0-.411.537A2.067,2.067,0,0,0,134.9,91.67,6.49,6.49,0,0,0,136.6,91.986Z" fill="#fdb8a9"/>
        <path id="Path_94" data-name="Path 94" d="M90.975,113.316a10.5,10.5,0,0,0,0-3.444,16.614,16.614,0,0,0-1.39-4.93.11.11,0,0,0-.032-.063A6.832,6.832,0,0,0,86.3,99.823c-.379-.221-.853.316-.506.632a8.023,8.023,0,0,1,2.528,6.983,8.241,8.241,0,0,1-1.264,3.508,4.821,4.821,0,0,1-.348.506,5.2,5.2,0,0,1-.7.442,11.781,11.781,0,0,1-3.223.948,37.8,37.8,0,0,1-6.257.6c-4.3.158-9.2.632-13.082-1.58a.48.48,0,0,0-.474-.411,7.674,7.674,0,0,0-1.675.253,6.877,6.877,0,0,1-1.8-.032,6.107,6.107,0,0,1-2.844-1.359,7.357,7.357,0,0,0-2.054-1.169,2.964,2.964,0,0,0-1.169-.126c-.632.032-.6.348-.79-.284-.126-.379-.6-.284-.664.095a2.268,2.268,0,0,0,.032.79c-.442.822.221,2.022.758,2.654.569.7,1.864,1.422,2.686.727a3.6,3.6,0,0,0,3.065,1.77,11.284,11.284,0,0,0,2.307-.095,10.843,10.843,0,0,0,1.706-.19c1.864,1.359,4.55,1.706,6.762,2.022a49.324,49.324,0,0,0,7.773.664c2.623-.032,5.246-.537,7.837-.822a22.73,22.73,0,0,0,3.318-.569,8.221,8.221,0,0,0,1.548-.537.658.658,0,0,0,.474-.221,2.962,2.962,0,0,0,.885-.758.539.539,0,0,0-.158-.948Z" fill="#fdb8a9"/>
        <path id="Path_95" data-name="Path 95" d="M51.728,110.914a.9.9,0,0,0,0-.411,3.419,3.419,0,0,1,.095-1.39,6.673,6.673,0,0,1,1.3-2.939.57.57,0,0,0-.569-.948c.316-.253.664-.474,1.011-.758.348-.253.032-.727-.316-.758-1.833-.126-2.781,1.8-3.128,3.286a12.85,12.85,0,0,1-.632,2.338,1.757,1.757,0,0,1-.758.822.744.744,0,0,1-.253-.063c-.379-.348-.822-.632-1.169-.916a3.417,3.417,0,0,0-1.359-.758.469.469,0,0,0-.506-.442h-.253a2.31,2.31,0,0,0-1.138,0,3.066,3.066,0,0,1-.537.032,6.565,6.565,0,0,1-1.706-.253,5.993,5.993,0,0,1-3.065-2.212c-.19-.253-.632.095-.474.348.063.095.126.158.19.253a.452.452,0,0,0-.095.348c.221,1.454,1.58,2.18,2.876,2.5a6.327,6.327,0,0,0,.758.126.321.321,0,0,0,.095.316c.569.632,1.517.506,2.117,1.138.632.7,1.043,1.454,1.959,1.864,1.706.79,3.76.221,5.435-.348a.629.629,0,0,0,.126-1.169Z" fill="#fdb8a9"/>
      </g>
      <path id="Path_96" data-name="Path 96" d="M134.709,94.7c-.284-2.18-.632-5.246-2.686-6.541a.116.116,0,0,0-.095-.032,4.543,4.543,0,0,0-2.781-1.2,22.082,22.082,0,0,1-3.824-.727.4.4,0,0,0-.19-.032c-.063-.063-.095-.158-.158-.221a.44.44,0,0,0-.758.316,11.789,11.789,0,0,0,.474,2.56,29.331,29.331,0,0,1,.348,3.35,13.517,13.517,0,0,1-.885,6.036,5.058,5.058,0,0,0-.6,2.244c.032,1.2.506,2.338.537,3.571a14.7,14.7,0,0,1-.632,3.887c-.158.664-.348,1.327-.506,1.991a3.192,3.192,0,0,1-.7,1.232c-.284.379-.032,1.169.537.948a2.357,2.357,0,0,0,.379-.221.637.637,0,0,0,.348.095,12.158,12.158,0,0,0,4.108-.79,36.411,36.411,0,0,0,4.045-1.485,5.3,5.3,0,0,0,2.275-1.706,6.588,6.588,0,0,0,1.011-3.286,45.911,45.911,0,0,0-.253-9.985Z" fill="#8bafef"/>
      <path id="Path_97" data-name="Path 97" d="M134.993,96.473a23,23,0,0,0-.6-3.918.47.47,0,0,0-.79-.158,30.372,30.372,0,0,1-.7-3.539.363.363,0,0,0-.727,0c-.158,2.338.885,4.9.664,7.268a9.937,9.937,0,0,1-5.435.095c-1.2-.348-.916-1.675-.916-2.718a7.235,7.235,0,0,0-1.422-4.2c-.253-.348-.885.032-.727.411a10.782,10.782,0,0,1,.758,3.571.423.423,0,0,0-.442.569c.537,1.39-.032,3-.537,4.329a9.638,9.638,0,0,0-.506,4.013c.158,3.065.474,6.32-1.422,8.943a.737.737,0,0,0,.632,1.106,36.679,36.679,0,0,0,7.11-1.58.665.665,0,0,0,.506-.569,11.212,11.212,0,0,0,2.244-.6,2.814,2.814,0,0,0,1.58-1.011,6.135,6.135,0,0,0,.506-2.37c.063-.822.063-1.643.19-2.465a22.385,22.385,0,0,0,.316-3.571A20,20,0,0,0,134.993,96.473Z" fill="#5785c9"/>
      <path id="Path_98" data-name="Path 98" d="M132.434,88.194a1.022,1.022,0,0,0-.537-.095.746.746,0,0,0-.253-.284,10.808,10.808,0,0,0-3.508-1.232,25.429,25.429,0,0,0-3.792-.506c-.474-.032-.727.727-.284.948-.316,1.2,2.117,1.864,2.907,1.991a12.09,12.09,0,0,0,4.266.158,2.086,2.086,0,0,0,.442.032,1.656,1.656,0,0,0,.79-.095.547.547,0,0,0-.032-.916Z" fill="#fff" opacity="0.6"/>
      <g id="Group_67" data-name="Group 67">
        <path id="Path_99" data-name="Path 99" d="M109.366,101.94a8.575,8.575,0,0,0-.632-3.192A6.88,6.88,0,0,0,104.4,94.8a.652.652,0,0,0-1.074-.442,8.394,8.394,0,0,0-1.643,2.022,4.918,4.918,0,0,0-1.106,2.528.51.51,0,0,0,.095.284c-.316.379-.632.758-.948,1.169-.221.284-.506.569-.758.885.253-.6.474-1.2.7-1.8a12.335,12.335,0,0,0,.664-3.476,3.05,3.05,0,0,0,0-.537,7.815,7.815,0,0,0,.158-1.2.483.483,0,0,0-.727-.411c-.032.032-.063.032-.095.063a1.374,1.374,0,0,0-.221-.19,2.666,2.666,0,0,0-2.654.126,21.422,21.422,0,0,0-3,1.675,19.579,19.579,0,0,1-6.731,3.381.453.453,0,0,0,.095.885.792.792,0,0,0,.126.221,11.826,11.826,0,0,1,2.37,3.192,13.042,13.042,0,0,1,1.074,3.792c.316,1.928,1.864,4.961.379,6.7a.708.708,0,0,0,.853,1.106c-.063.032.379-.158.506-.19.316-.126.664-.253.98-.348.822-.284,1.643-.569,2.465-.885,2.086-.758,4.171-1.58,6.225-2.5a22.231,22.231,0,0,0,5.088-3c.916-.758,1.864-1.928,1.612-3.192a4.455,4.455,0,0,0,.537-2.718Z" fill="#f7d581"/>
      </g>
      <g id="Group_68" data-name="Group 68">
        <path id="Path_100" data-name="Path 100" d="M109.9,104.595l-.032-.032a.562.562,0,0,0-.758.19c-.032.032-.063.095-.095.126a7.046,7.046,0,0,0,.063-5.656,7.539,7.539,0,0,0-3.666-4.108,1.029,1.029,0,0,0-.537-.853c-.6-.316-1.2.095-1.675.474a9.227,9.227,0,0,0-1.454,1.675c-.221.284-.442.569-.664.822-.126.158-.442.506-.442.506-.6.411-.126,1.39.474,1.169a24.47,24.47,0,0,1-2.781,2.939c-.442.348.126,1.074.6.758,1.706-1.138,2.939-2.812,4.487-4.108.6-.506,1.454-1.138,2.054-.474a6.681,6.681,0,0,1,.411,2.37c-.032,2.086-1.548,3.729-3.1,4.93a31.76,31.76,0,0,1-5.024,3.128,17.428,17.428,0,0,1-5.909,1.706.565.565,0,0,0-.221,1.074.509.509,0,0,0-.126.221c-.19.7-.19,1.454-.411,2.149a.59.59,0,0,0,.537.727c1.9-.19,3.666-1.169,5.467-1.833.885-.316,1.738-.632,2.591-1.011a11.1,11.1,0,0,0,1.928-.758c.253-.126.537-.253.79-.379a21.348,21.348,0,0,0,2.18-.916,12.677,12.677,0,0,0,2.054-1.327c.032,0,.063.032.095.032a6.355,6.355,0,0,0,2.781-.158.682.682,0,0,0,.506-.664,11.677,11.677,0,0,1,.063-1.485c-.063-.316.19-.948-.19-1.232Z" fill="#efa54d"/>
        <path id="Path_101" data-name="Path 101" d="M123.807,101.435c-.032-.442-.569-.885-.98-.569a15.387,15.387,0,0,0-2.465,2.876c-.948,1.232-2.338,1.706-3.634,2.433a.434.434,0,0,0-.19.6,3.277,3.277,0,0,0-.632,1.39.669.669,0,0,0,.474.822,9.574,9.574,0,0,1,4.677,2.528.674.674,0,0,0,1.043-.126,12.349,12.349,0,0,0,1.39-4.866,27.183,27.183,0,0,0,.316-5.088Z" fill="#efa54d"/>
      </g>
      <path id="Path_102" data-name="Path 102" d="M100.013,93.756a10.822,10.822,0,0,0-6.1,1.264,29.543,29.543,0,0,0-2.97,1.548c-.79.442-1.959.916-2.275,1.833,0,.032-.032.063-.032.095a16.034,16.034,0,0,0-1.8.916.489.489,0,0,0,.379.885c.032,0,.063,0,.063-.032a.673.673,0,0,0,1.011.6,23.728,23.728,0,0,1,1.959,3.508,29.233,29.233,0,0,1,1.011,2.781,11.458,11.458,0,0,1,.316,1.327,8.129,8.129,0,0,0,.158,1.264.27.27,0,0,0,.474.063,4.782,4.782,0,0,0,.221-2.591,13.625,13.625,0,0,0-.664-2.939,15.82,15.82,0,0,0-1.612-3.286v-.316a2.266,2.266,0,0,1,.537-1.359c.095-.063.158-.095.253-.158,1.106-.411,2.212-.885,3.286-1.327q1.659-.664,3.318-1.422c.853-.379,2.307-.822,2.749-1.706.19-.284.19-.853-.284-.948Z" fill="#fffb6e"/>
      <path id="Path_103" data-name="Path 103" d="M43.007,125.039a.436.436,0,0,0-.126-.095,2.349,2.349,0,0,0-.664-.411c-2.149-.885-4.424-1.359-6.478-2.465-.98-.537-1.928-1.106-2.97-1.612a7.349,7.349,0,0,0-2.18-.727,2.148,2.148,0,0,0-2.244-.632c-1.011.253-1.991.6-3,.853-1.485.379-2.97.569-4.456.853a4.086,4.086,0,0,0-1.043.126,15.894,15.894,0,0,1-1.77.284c-1.39.158-2.781.253-4.171.506-2.654.506-5.246,1.517-7.995,1.327a1.009,1.009,0,0,0-.442-.095,1.288,1.288,0,0,0-.569.158,1.218,1.218,0,0,0-1.8,1.011,9.084,9.084,0,0,0,.758,3.887,1.274,1.274,0,0,0,.348.442.116.116,0,0,1-.032.095.854.854,0,0,0,.379.948,21.627,21.627,0,0,0,4.74,2.022.96.96,0,0,0,.158.221,9.415,9.415,0,0,0,4.74,2.465c1.074.253,2.149.506,3.255.7a1.017,1.017,0,0,0,.411.253,17.671,17.671,0,0,0,2.876.506,27.206,27.206,0,0,0,2.781,0,19.441,19.441,0,0,0,5.688-1.043,47.457,47.457,0,0,1,5.562-1.327,27.5,27.5,0,0,0,2.781-.7,7.136,7.136,0,0,0,1.548-.6,11.419,11.419,0,0,0,3.508-1.074,1.506,1.506,0,0,0,.853-.79,1.065,1.065,0,0,0,.853-1.138,5.447,5.447,0,0,0-1.3-3.95Z" fill="#8b7991"/>
      <g id="Group_69" data-name="Group 69">
        <path id="Path_104" data-name="Path 104" d="M11.249,124.155a45.989,45.989,0,0,0,5.277,2.307c.98.348,1.928.7,2.939,1.011.916.284,1.8.822,2.623.095l.095-.095c.253-.032.506-.126.79-.158.569-.126,1.169-.19,1.738-.284,1.2-.158,2.4-.253,3.571-.379a13.6,13.6,0,0,0,3.381-.632c.727-.284,1.422-.6,2.149-.853a4.322,4.322,0,0,0,.885-.063.925.925,0,0,0,.506-.221.5.5,0,0,0,.284-.221c.032-.032.095-.063.126-.126a.237.237,0,0,0,0-.284.436.436,0,0,0-.095-.126.513.513,0,0,0-.442-.284h-.032a4.2,4.2,0,0,0-.6-.442c-.221-.095-.474-.19-.727-.284-.474-.19-.98-.411-1.454-.632a9.461,9.461,0,0,0-1.833-.569,5.173,5.173,0,0,0-2.623-1.106,12.9,12.9,0,0,0-4.772.506c-3.381.7-6.889.569-10.238,1.548a.83.83,0,0,0-.474.379l-.569-.19c-.664-.221-1.106.822-.506,1.106Z" fill="#6b5a72"/>
        <path id="Path_105" data-name="Path 105" d="M43.481,126.777a1.679,1.679,0,0,0,.316-1.422.524.524,0,0,0-.948-.126c-.284.506-1.011.664-1.548.79a3.471,3.471,0,0,0-2.244,1.106c-.032.063-.063.095-.063.158a9.5,9.5,0,0,1-1.011.221c-1.58.348-3.16.6-4.708,1.011-1.864.474-3.76.916-5.656,1.264-.948.158-1.9.348-2.844.474a5.08,5.08,0,0,0-2.465.6.845.845,0,0,0-.664-.158c-.316-.284-1.011-.221-1.106.284-.095.379-.158.758-.221,1.138-.379.063-.727.126-1.106.158a22,22,0,0,1-3.824-.19c-.664-.063-1.264-.19-1.928-.19a9.132,9.132,0,0,1-2.054-.253,32.369,32.369,0,0,0-3.76-.885.292.292,0,0,0-.158.537,31.356,31.356,0,0,0,3.634,1.327,16.262,16.262,0,0,1,2.149.916,8.852,8.852,0,0,0,2.022.632.634.634,0,0,0,.506.411c1.58.316,3.034,1.043,4.614,1.043a1.052,1.052,0,0,0,.7-.032H21.2a1.168,1.168,0,0,0,1.517.221,3.885,3.885,0,0,1,.79-.442.96.96,0,0,0,.727.032c.095-.032.221-.063.316-.095.253-.095.506-.158.727-.253.221,0,.506-.032.569-.032a17.191,17.191,0,0,0,2.212-.474c1.39-.379,2.781-.853,4.171-1.264a36.712,36.712,0,0,1,4.2-.885,10.381,10.381,0,0,0,3.444-.948,21.491,21.491,0,0,0,3.128-1.074,1.233,1.233,0,0,0,.822-1.422c-.158-.727-.19-1.454-.348-2.18Z" fill="#6b5a72"/>
      </g>
      <g id="Group_70" data-name="Group 70">
        <path id="Path_106" data-name="Path 106" d="M28.06,121.437c.474-.632-.442-1.517-1.074-1.074a4.248,4.248,0,0,0-.442.348.681.681,0,0,0-.948-.032,2.214,2.214,0,0,1-.316.253c-.095-.284-.474-.506-.727-.221-1.675,2.086-3.476,4.076-5.277,6.036-.7.758.474,1.9,1.106,1.106a.87.87,0,0,0,1.2.379c.6-.253.853-.885,1.169-1.422a.783.783,0,0,0,1.074.284c1.011-.506,1.58-1.864,2.117-2.781.7-.948,1.39-1.928,2.117-2.876Z" fill="#a496aa"/>
        <path id="Path_107" data-name="Path 107" d="M29.482,121.437a19.016,19.016,0,0,1-2.275,2.781c-.379.442-.727.916-1.138,1.327a1.019,1.019,0,0,0-.379,1.138.406.406,0,0,0,.506.284c.506-.158.632-.506.853-.98a6.549,6.549,0,0,1,1.169-1.485,9.694,9.694,0,0,0,1.864-2.812C30.209,121.311,29.672,121.121,29.482,121.437Z" fill="#a496aa"/>
        <path id="Path_108" data-name="Path 108" d="M20.287,130.7a2.717,2.717,0,0,0-.853-.284l-1.138-.284c-.379-.126-.758-.253-1.138-.411-.316-.126-.632-.253-.948-.348v-.032a5.4,5.4,0,0,0,2.465.506c.253-.032.411-.379.126-.506a6.54,6.54,0,0,0-1.58-.474,8.919,8.919,0,0,1-2.212-.853c-1.264-.758-2.654-1.232-3.95-1.928-.442-.253-1.138-.506-1.39-.948a4.99,4.99,0,0,0-1.58-1.2,6.692,6.692,0,0,0-3.76-1.169.492.492,0,0,0-.474.664c0,.032-.032.032-.032.063a4.462,4.462,0,0,0-.442,2.781,6.222,6.222,0,0,0,.6,2.844c.284.442,1.138.316,1.074-.284-.032-.379-.126-.758-.19-1.138a13.787,13.787,0,0,1,.158-1.643,2.328,2.328,0,0,1,.126-.442c1.169.442,2.37.822,3.508,1.359,1.232.6,2.307,1.58,3.476,2.275a17.2,17.2,0,0,0,3.508,1.485,7.626,7.626,0,0,0,2.56.411,2.769,2.769,0,0,0,1.991.19A.338.338,0,0,0,20.287,130.7Z" fill="#a496aa"/>
        <path id="Path_109" data-name="Path 109" d="M41.079,124.028c-.221.095-.19.442,0,.569a1.132,1.132,0,0,0,.348.126c-.032,0,.032.032.063.063l.063.063.032.063c.032.032.032.063,0,0,0,.032.032.063.032.095.032.158,0,.284.126.442.158.253.632.316.758,0A1.119,1.119,0,0,0,41.079,124.028Z" fill="#a496aa"/>
      </g>
      <g id="Group_71" data-name="Group 71">
        <path id="Path_110" data-name="Path 110" d="M44.777,51.444a19.16,19.16,0,0,0-5.277,9.29,26.529,26.529,0,0,0-.885,10.9c.063.442.822.348.79-.095a29.9,29.9,0,0,1,.822-10.333,21.311,21.311,0,0,1,4.9-9.385.258.258,0,0,0-.348-.379Z" fill="#851919"/>
      </g>
      <g id="Group_72" data-name="Group 72">
        <path id="Path_111" data-name="Path 111" d="M38.741,72.047a9.456,9.456,0,0,0,2.654-.379c.948-.19,1.864-.379,2.812-.569,1.011-.19,2.022-.348,3.065-.474.916-.126,1.9-.063,2.781-.253.316-.063.348-.632,0-.664a11.655,11.655,0,0,0-2.781.126c-1.011.126-1.991.284-2.97.442-.948.158-1.9.379-2.812.569a9.91,9.91,0,0,0-2.876.758c-.253.095-.095.411.126.442Z" fill="#851919"/>
      </g>
      <g id="Group_73" data-name="Group 73">
        <path id="Path_112" data-name="Path 112" d="M51.254,60.8A10.61,10.61,0,0,0,49.9,65.285a17.575,17.575,0,0,0,.095,5.151c.095.506.853.284.79-.221a16.351,16.351,0,0,1-.095-4.645c.19-1.58.822-3.128.948-4.708,0-.158-.284-.19-.379-.063Z" fill="#851919"/>
      </g>
      <g id="Group_74" data-name="Group 74">
        <path id="Path_113" data-name="Path 113" d="M50.591,70.878c.537-.063,1.074-.158,1.612-.221.442-.032.948.032,1.2-.348.095-.126,0-.316-.095-.411-.379-.284-1.169-.063-1.612,0a2.144,2.144,0,0,0-1.39.506C50.085,70.625,50.306,70.909,50.591,70.878Z" fill="#851919"/>
      </g>
      <g id="Group_75" data-name="Group 75">
        <path id="Path_114" data-name="Path 114" d="M55.836,57.985a21.326,21.326,0,0,0-2.844,12.039c0,.506.822.506.79,0a25.767,25.767,0,0,1,.506-6.225,39.922,39.922,0,0,1,1.77-5.72c.095-.158-.158-.221-.221-.095Z" fill="#851919"/>
      </g>
      <g id="Group_76" data-name="Group 76">
        <path id="Path_115" data-name="Path 115" d="M56.121,56.626c-1.422,4.329-.063,9.322,2.022,13.209a.4.4,0,0,0,.7-.411,22.139,22.139,0,0,1-2.18-6.067,29.67,29.67,0,0,1-.221-6.7C56.437,56.468,56.184,56.468,56.121,56.626Z" fill="#851919"/>
      </g>
      <g id="Group_77" data-name="Group 77">
        <path id="Path_116" data-name="Path 116" d="M64.747,50.686c-2.939,1.738-4.645,5.4-5.593,8.563a23.909,23.909,0,0,0-.948,5.4,13.754,13.754,0,0,0,.411,5.214c.126.379.758.348.727-.095-.063-.727-.253-1.422-.316-2.149a16.892,16.892,0,0,1-.063-2.528,22.779,22.779,0,0,1,2.812-10.049A19.79,19.79,0,0,1,64.969,51a.2.2,0,0,0-.221-.316Z" fill="#851919"/>
      </g>
      <g id="Group_78" data-name="Group 78">
        <path id="Path_117" data-name="Path 117" d="M64.242,51.16c-1.39,2.338-1.264,5.562-.79,8.153a13.8,13.8,0,0,0,3.16,6.636c2.907,3.318,7.489,4.076,11.66,3.444.506-.063.284-.853-.221-.79-3.887.569-7.963-.158-10.744-3.1a13.168,13.168,0,0,1-3.034-6.162,14.175,14.175,0,0,1-.316-4.013c.063-1.39.442-2.749.569-4.14.032-.126-.221-.158-.284-.032Z" fill="#851919"/>
      </g>
      <g id="Group_79" data-name="Group 79">
        <path id="Path_118" data-name="Path 118" d="M76.345,61.4a12.792,12.792,0,0,0-.032,4.108,7.146,7.146,0,0,0,1.58,3.76c.316.411.885-.158.569-.569a6.811,6.811,0,0,1-1.39-3.7,23.147,23.147,0,0,0-.221-3.634A.276.276,0,0,0,76.345,61.4Z" fill="#851919"/>
      </g>
      <g id="Group_80" data-name="Group 80">
        <path id="Path_119" data-name="Path 119" d="M76.471,61.777a10.9,10.9,0,0,0,3.508,5.246c2.022,1.517,4.708,1.9,7.078,2.623.506.158.7-.632.221-.79-2.18-.664-4.456-1.074-6.446-2.244-2.022-1.2-2.528-3.381-3.918-5.088-.158-.19-.506,0-.442.253Z" fill="#851919"/>
      </g>
      <g id="Group_81" data-name="Group 81">
        <path id="Path_120" data-name="Path 120" d="M84.023,52.708a37.858,37.858,0,0,0,.126,7.331,25.28,25.28,0,0,0,2.907,9.037,19.383,19.383,0,0,0,2.876,4.076A30.571,30.571,0,0,0,93.124,76c2.149,1.833,5.056,4.076,5.625,6.984.095.506.885.284.79-.221C99,80.1,96.663,78.019,94.7,76.281c-1.011-.885-2.054-1.738-3.065-2.623a18.173,18.173,0,0,1-3.35-4.108A23.392,23.392,0,0,1,85,60.008c-.284-2.433-.19-4.9-.506-7.331A.24.24,0,0,0,84.023,52.708Z" fill="#851919"/>
      </g>
      <g id="Group_82" data-name="Group 82">
        <path id="Path_121" data-name="Path 121" d="M92.808,68.634C94.8,74.322,97.8,79.568,99.349,85.414a25.978,25.978,0,0,1,.916,8.816,21,21,0,0,1-1.011,4.645c-.537,1.612-1.454,3.034-1.991,4.614-.095.316.348.569.537.316a15.948,15.948,0,0,0,2.022-4.171,19.641,19.641,0,0,0,1.169-4.645,25.407,25.407,0,0,0-.664-9.006,56.484,56.484,0,0,0-3.1-8.943,92.651,92.651,0,0,0-4.108-8.563c-.095-.126-.379-.032-.316.158Z" fill="#851919"/>
      </g>
      <g id="Group_83" data-name="Group 83">
        <path id="Path_122" data-name="Path 122" d="M101.466,61.082c1.643,7.2,3.16,14.473,2.939,21.93a38.907,38.907,0,0,1-1.833,10.775c-1.106,3.413-3.255,6.415-5.246,9.385-.284.442.411.822.7.411,1.959-2.939,4.076-5.909,5.214-9.29a39.382,39.382,0,0,0,1.928-10.965,60.66,60.66,0,0,0-3.413-22.278c-.063-.221-.316-.158-.284.032Z" fill="#851919"/>
      </g>
      <g id="Group_84" data-name="Group 84">
        <path id="Path_123" data-name="Path 123" d="M104.974,76.819a6.2,6.2,0,0,1,2.244-3.792,8.273,8.273,0,0,1,4.519-1.833c3.508-.253,5.656,3.128,5.941,6.257a14.614,14.614,0,0,1-3,9.511,7.973,7.973,0,0,1-3.381,2.749,8.394,8.394,0,0,1-4.708.727,2.188,2.188,0,0,1-1.39-.822c-.284-.411-1.011-.032-.7.411,1.706,2.37,5.625,1.138,7.773.158,2.654-1.264,4.329-4.266,5.34-6.92a11.7,11.7,0,0,0-.032-9.227,6.9,6.9,0,0,0-3.1-3.128,6.109,6.109,0,0,0-4.108-.253c-2.591.6-6.32,3.065-6,6.162a.308.308,0,0,0,.6,0Z" fill="#851919"/>
      </g>
      <g id="Group_85" data-name="Group 85">
        <path id="Path_124" data-name="Path 124" d="M112.716,76.5c-1.675.284-3,1.864-3.792,3.286a8,8,0,0,0-.98,5.024c.095.316.6.348.664,0,.158-.727.095-1.485.221-2.244a8.774,8.774,0,0,1,.7-2.18,6.228,6.228,0,0,1,1.3-1.833,14.061,14.061,0,0,1,2.086-1.517c.284-.221.126-.6-.19-.537Z" fill="#851919"/>
      </g>
      <g id="Group_86" data-name="Group 86">
        <path id="Path_125" data-name="Path 125" d="M109.4,79.915a5.491,5.491,0,0,1,.79.916,2.4,2.4,0,0,1,.19,1.327c-.032.506.758.506.79,0,.063-1.043-.284-2.654-1.58-2.749-.253-.032-.348.316-.19.506Z" fill="#851919"/>
      </g>
      <g id="Group_87" data-name="Group 87">
        <path id="Path_126" data-name="Path 126" d="M40.542,70.941c-2.117,4.013-1.2,9.037-.727,13.335.063.506.853.506.79,0-.221-2.117-.537-4.2-.569-6.32a23.242,23.242,0,0,1,1.043-6.762A.3.3,0,0,0,40.542,70.941Z" fill="#851919"/>
      </g>
      <g id="Group_88" data-name="Group 88">
        <path id="Path_127" data-name="Path 127" d="M39.721,84.118a13.7,13.7,0,0,0-3.034,10.87c.822,4.361,5.5,6.889,9.227,8.374.474.19.7-.6.221-.79-3.571-1.422-7.805-3.729-8.658-7.805-.758-3.571.758-7.363,2.876-10.207C40.605,84.244,40.005,83.8,39.721,84.118Z" fill="#851919"/>
      </g>
      <path id="Path_128" data-name="Path 128" d="M54.762,85.7c.095,3.223-1.991,6.257-4.677,6.32s-4.8-2.465-5.056-6.067c-.221-3.223,1.138-6.6,4.772-6.826,3.792-.221,4.866,3.35,4.961,6.573Z" fill="#851919"/>
      <g id="Group_89" data-name="Group 89">
        <path id="Path_129" data-name="Path 129" d="M88.194,32.8c7.173.348,14.283,2.37,19.971,6.857a32.3,32.3,0,0,1,4.361,4.2,23.826,23.826,0,0,1,4.487,8.184c3.192,9.417,4.519,19.465,5.846,29.293.506,3.729,1.2,7.489,1.359,11.249a13.4,13.4,0,0,1-2.307,8.753,16.65,16.65,0,0,1-4.645,4.013c-.442.284-.032.98.411.7a14.9,14.9,0,0,0,6.6-7.457c1.043-2.907.822-6.13.474-9.164-.506-4.234-1.138-8.437-1.738-12.64-.727-5.151-1.548-10.333-2.686-15.421a69.658,69.658,0,0,0-3.824-12.829,23.068,23.068,0,0,0-4.076-6.036,31.1,31.1,0,0,0-13.177-8.563,40.356,40.356,0,0,0-11.123-1.991c-.442.032-.442.822.063.853Z" fill="#851919"/>
      </g>
      <g id="Group_90" data-name="Group 90">
        <path id="Path_130" data-name="Path 130" d="M117.993,93.377a9.206,9.206,0,0,0-.063,2.465c.032.916.063,1.833.063,2.749a22.017,22.017,0,0,1-.632,5.593,10.667,10.667,0,0,1-2.749,4.9c-1.738,1.738-3.95,2.4-6.225,3.065-.379.126-.316.758.095.727a11.5,11.5,0,0,0,9.48-7.837,19.869,19.869,0,0,0,.853-5.941c.032-.98,0-1.959-.032-2.907a11.688,11.688,0,0,0-.253-2.781c-.126-.253-.506-.284-.537-.032Z" fill="#851919"/>
      </g>
      <g id="Group_91" data-name="Group 91">
        <path id="Path_131" data-name="Path 131" d="M88.479,32.137a17.546,17.546,0,0,0-7.11-3.444,35.907,35.907,0,0,0-9.7-1.138C65.19,27.586,58.143,28.914,52.8,32.8a38.679,38.679,0,0,0-8.279,9.132,83.867,83.867,0,0,0-6.857,12.039A91.335,91.335,0,0,0,29.2,82.1a47.921,47.921,0,0,0,1.77,20.6c.158.474.948.284.79-.221-3.255-9.764-2.37-20.255.063-30.083A96.184,96.184,0,0,1,43.1,45.535,52.868,52.868,0,0,1,51.823,34.6a22.069,22.069,0,0,1,8.311-4.55,38.265,38.265,0,0,1,20.319-.79,17.546,17.546,0,0,1,7.457,3.444c.379.316.98-.253.569-.569Z" fill="#851919"/>
      </g>
      <g id="Group_92" data-name="Group 92">
        <path id="Path_132" data-name="Path 132" d="M63.578,52.329a11.526,11.526,0,0,0,.758,13.145c2.876,3.666,8.216,5.593,12.608,3.539.253-.126.063-.474-.19-.411a12.128,12.128,0,0,1-6.794.221,10.71,10.71,0,0,1-5.182-3.539,11.362,11.362,0,0,1-.853-12.766C64.021,52.3,63.7,52.108,63.578,52.329Z" fill="#851919"/>
      </g>
      <g id="Group_93" data-name="Group 93">
        <path id="Path_133" data-name="Path 133" d="M85.129,64.052a25.25,25.25,0,0,0,2.56,8.374,32.885,32.885,0,0,0,4.993,6.952c.98,1.106,2.054,2.086,3.034,3.192a21.009,21.009,0,0,1,2.623,3.666,16.462,16.462,0,0,1,1.9,8.753.16.16,0,0,0,.316.032c1.074-5.972-2.433-11-6.478-14.978a36.746,36.746,0,0,1-5.625-7.047,26.623,26.623,0,0,1-3.16-9.006c0-.063-.158-.032-.158.063Z" fill="#851919"/>
      </g>
      <g id="Group_94" data-name="Group 94">
        <path id="Path_134" data-name="Path 134" d="M48.727,36.561a38.69,38.69,0,0,1-3.1,4.013c-.063.063.063.158.126.095a32.288,32.288,0,0,0,3.223-3.982c.095-.126-.158-.284-.253-.126Z" fill="#851919"/>
      </g>
      <g id="Group_95" data-name="Group 95">
        <path id="Path_135" data-name="Path 135" d="M30.43,74.891A74.088,74.088,0,0,0,27.4,88.479,39.144,39.144,0,0,0,27.3,96.41a20.26,20.26,0,0,0,1.991,7.458c.095.19.442.063.379-.158a31.209,31.209,0,0,1-1.928-7.552,36.669,36.669,0,0,1,.095-7.679A86.323,86.323,0,0,1,30.62,74.954c.032-.126-.158-.19-.19-.063Z" fill="#851919"/>
      </g>
      <g id="Group_96" data-name="Group 96">
        <path id="Path_136" data-name="Path 136" d="M118.656,57.258c1.106,6.067,2.37,12.419,5.467,17.822a18.134,18.134,0,0,1,2.528,9.2,27.183,27.183,0,0,1-2.212,9.322c-.063.19.253.348.348.158a26.332,26.332,0,0,0,2.433-8.974,17.456,17.456,0,0,0-1.9-8.658c-.7-1.422-1.517-2.749-2.18-4.2a39.466,39.466,0,0,1-1.643-4.708c-.98-3.318-1.675-6.7-2.528-10.049-.063-.221-.348-.126-.316.095Z" fill="#851919"/>
      </g>
      <g id="Group_97" data-name="Group 97">
        <path id="Path_137" data-name="Path 137" d="M119.762,88.036c.79,5.467,1.454,12.039-2.244,16.621a.224.224,0,0,0,.316.316c2.117-1.928,2.654-5.151,2.876-7.868a31.889,31.889,0,0,0-.664-9.164A.151.151,0,0,0,119.762,88.036Z" fill="#851919"/>
      </g>
      <g id="Group_98" data-name="Group 98">
        <path id="Path_138" data-name="Path 138" d="M102.541,44.366c1.485,3.824,3.381,7.426,4.9,11.249A51.916,51.916,0,0,1,109.3,61.43a42.628,42.628,0,0,1,.853,6.352.19.19,0,0,0,.379,0c.221-4.076-1.074-8.279-2.5-12.039a117.055,117.055,0,0,0-5.214-11.471.152.152,0,0,0-.284.095Z" fill="#851919"/>
      </g>
      <g id="Group_99" data-name="Group 99">
        <path id="Path_139" data-name="Path 139" d="M110.472,58.712a49.454,49.454,0,0,1,1.454,5.119c.032.126.253.095.253-.032a12.614,12.614,0,0,0-1.422-5.246c-.095-.19-.379-.032-.284.158Z" fill="#851919"/>
      </g>
      <g id="Group_100" data-name="Group 100">
        <path id="Path_140" data-name="Path 140" d="M75.839,46.673a54.433,54.433,0,0,0-1.77,6.383,27.392,27.392,0,0,0-.411,2.812,10.027,10.027,0,0,0,0,3.223c.032.126.221.126.221,0,.19-.948.095-1.991.19-2.97.095-1.106.253-2.18.442-3.255a58.134,58.134,0,0,1,1.58-6.13C76.155,46.578,75.871,46.515,75.839,46.673Z" fill="#851919"/>
      </g>
      <g id="Group_101" data-name="Group 101">
        <path id="Path_141" data-name="Path 141" d="M73.722,50.433a13.869,13.869,0,0,0-.98,4.361c0,.19.316.253.348.032a28.159,28.159,0,0,1,.948-4.3C74.133,50.306,73.817,50.243,73.722,50.433Z" fill="#851919"/>
      </g>
      <g id="Group_102" data-name="Group 102">
        <path id="Path_142" data-name="Path 142" d="M60.292,43.323a45.789,45.789,0,0,0-4.076,4.14,11.021,11.021,0,0,0-2.686,4.993.2.2,0,1,0,.379.095,19.153,19.153,0,0,1,2.591-4.9,35.522,35.522,0,0,1,3.95-4.2c.095-.063-.063-.221-.158-.126Z" fill="#851919"/>
      </g>
      <g id="Group_103" data-name="Group 103">
        <path id="Path_143" data-name="Path 143" d="M55.678,46.451A19.758,19.758,0,0,0,53.4,49.517c-.032.063.063.095.095.063a24.143,24.143,0,0,1,2.275-3C55.836,46.483,55.742,46.388,55.678,46.451Z" fill="#851919"/>
      </g>
      <g id="Group_104" data-name="Group 104">
        <path id="Path_144" data-name="Path 144" d="M42.565,54.193a21.157,21.157,0,0,0-5.4,9.669,33.368,33.368,0,0,0-1.043,4.677c-.158,1.232-.411,3.034.442,4.045.095.095.221,0,.221-.126a11.771,11.771,0,0,1-.158-4.076,30.345,30.345,0,0,1,.98-4.392,22.453,22.453,0,0,1,5.182-9.606c.095-.126-.095-.316-.221-.19Z" fill="#851919"/>
      </g>
      <g id="Group_105" data-name="Group 105">
        <path id="Path_145" data-name="Path 145" d="M97.3,56.058c3.982,6.1,4.424,13.872,4.835,20.919a74.186,74.186,0,0,1-.095,11.85,42.154,42.154,0,0,1-1.043,5.972q-.379,1.469-.853,2.939c-.316,1.011-.79,1.991-1.043,3.034a.207.207,0,0,0,.379.158,22.322,22.322,0,0,0,1.991-5.72,45.808,45.808,0,0,0,1.074-5.878,73.713,73.713,0,0,0,.126-12.387,79.85,79.85,0,0,0-1.3-10.965A26.381,26.381,0,0,0,97.485,55.9c-.063-.063-.253.063-.19.158Z" fill="#851919"/>
      </g>
      <g id="Group_106" data-name="Group 106">
        <path id="Path_146" data-name="Path 146" d="M88,31.916c4.961-1.8,10.27-.348,14.725,2.054a30.742,30.742,0,0,1,6.478,4.74,22.8,22.8,0,0,1,2.56,2.686c.758.948,1.359,1.959,2.022,2.97.032.063.19.032.158-.063a18.072,18.072,0,0,0-4.392-5.941,29.881,29.881,0,0,0-6.794-4.93c-4.424-2.37-10.08-3.76-14.852-1.643C87.847,31.821,87.91,31.947,88,31.916Z" fill="#851919"/>
      </g>
      <g id="Group_107" data-name="Group 107">
        <path id="Path_147" data-name="Path 147" d="M53.245,32.2C60.387,28.724,68,25.564,76.092,26.006c3.729.19,8.026,1.264,10.649,4.108.316.348,1.169,1.327.916,1.864-.126.253.253.474.379.221a2.1,2.1,0,0,0-.569-2.054,10.36,10.36,0,0,0-3.255-2.591c-4.424-2.37-9.8-2.465-14.631-1.675a47.433,47.433,0,0,0-16.369,6.194c-.095.063-.032.158.032.126Z" fill="#851919"/>
      </g>
      <g id="Group_108" data-name="Group 108">
        <path id="Path_148" data-name="Path 148" d="M53.593,81.653a1.46,1.46,0,0,0-.221-.221,1.476,1.476,0,0,0-.885-.79,1.7,1.7,0,0,0-1.959,1.074,2.7,2.7,0,0,0,.158,2.591,1.7,1.7,0,0,0,1.833.6,2.167,2.167,0,0,0,1.454-1.169,1.794,1.794,0,0,0-.379-2.086Z" fill="#fff"/>
        <path id="Path_149" data-name="Path 149" d="M50.085,85.224a.332.332,0,0,0,.032.664C50.528,85.888,50.5,85.224,50.085,85.224Z" fill="#fff"/>
      </g>
      <path id="Path_150" data-name="Path 150" d="M79.378,82.759c.095,3.223-1.991,6.257-4.677,6.32s-4.8-2.465-5.056-6.067c-.221-3.223,1.138-6.6,4.772-6.826,3.792-.221,4.866,3.35,4.961,6.573Z" fill="#851919"/>
      <g id="Group_109" data-name="Group 109">
        <path id="Path_151" data-name="Path 151" d="M78.209,78.715a1.46,1.46,0,0,0-.221-.221,1.476,1.476,0,0,0-.885-.79,1.7,1.7,0,0,0-1.959,1.074,2.7,2.7,0,0,0,.158,2.591,1.7,1.7,0,0,0,1.833.6A2.167,2.167,0,0,0,78.588,80.8a1.844,1.844,0,0,0-.379-2.086Z" fill="#fff"/>
        <path id="Path_152" data-name="Path 152" d="M74.67,82.285a.332.332,0,0,0,.032.664C75.144,82.949,75.112,82.285,74.67,82.285Z" fill="#fff"/>
      </g>
      <g id="Group_110" data-name="Group 110">
        <path id="Path_153" data-name="Path 153" d="M108.165,112.716c1.675-1.8,2.18-4.519,2.212-6.889a23.409,23.409,0,0,0-.221-3.318,9.05,9.05,0,0,0-.537-2.781.245.245,0,0,0-.442.063,6.182,6.182,0,0,0,.158,2.4,26.091,26.091,0,0,1,.284,3.16,14.015,14.015,0,0,1-.348,3.444,21.268,21.268,0,0,1-1.454,3.634c-.126.221.126.506.348.284Z" fill="#851919"/>
      </g>
      <g id="Group_111" data-name="Group 111">
        <path id="Path_154" data-name="Path 154" d="M107.6,91.133a12.459,12.459,0,0,0,.727,2.686c.095.221.474.095.442-.126a11.849,11.849,0,0,0-.7-2.718.25.25,0,0,0-.474.158Z" fill="#851919"/>
      </g>
      <g id="Group_112" data-name="Group 112">
        <path id="Path_155" data-name="Path 155" d="M117.234,88.226a15.906,15.906,0,0,1-.316-1.77,7,7,0,0,0-.126-1.422.246.246,0,0,0-.442-.063c-.411,1.011.221,2.37.506,3.35a.2.2,0,0,0,.379-.095Z" fill="#851919"/>
      </g>
      <g id="Group_113" data-name="Group 113">
        <path id="Path_156" data-name="Path 156" d="M70.4,71.921A7.406,7.406,0,0,0,73.975,74.2a13.362,13.362,0,0,0,2.244.411,4.231,4.231,0,0,0,2.18-.095.384.384,0,0,0,0-.632,4.38,4.38,0,0,0-1.706-.221,14.143,14.143,0,0,1-2.022-.221,9.188,9.188,0,0,1-3.918-1.864.246.246,0,0,0-.348.348Z" fill="#851919"/>
      </g>
      <g id="Group_114" data-name="Group 114">
        <path id="Path_157" data-name="Path 157" d="M51.855,73.027a13.443,13.443,0,0,1-3.413,2.054,10.56,10.56,0,0,1-1.643.442,13.711,13.711,0,0,0-1.991.253.416.416,0,0,0,0,.79,7.16,7.16,0,0,0,4.108-.7,8.813,8.813,0,0,0,3.35-2.433C52.455,73.121,52.139,72.805,51.855,73.027Z" fill="#851919"/>
      </g>
      <g id="Group_115" data-name="Group 115">
        <path id="Path_158" data-name="Path 158" d="M57.164,98.243a.946.946,0,0,1,.885.822c.095.537-.284,1.074.095,1.517a.394.394,0,0,0,.379.095c.7-.253.569-1.485.411-2.086a1.493,1.493,0,0,0-1.643-1.074c-.411.063-.537.664-.126.727Z" fill="#851919"/>
      </g>
      <g id="Group_116" data-name="Group 116">
        <path id="Path_159" data-name="Path 159" d="M57.8,97.864a1.478,1.478,0,0,0-1.2,1.39c0,.632.442,1.043.758,1.548a.624.624,0,0,0,.98.221,1.607,1.607,0,0,0,.316-1.011c.063-.537.095-1.959-.727-1.959-.569,0-.7.664-.916,1.043a1.51,1.51,0,0,0-.316.727.918.918,0,0,0,.506.885.383.383,0,0,0,.569-.316,1.079,1.079,0,0,0-.095-.537c.032.095.095-.095.126-.158a2.89,2.89,0,0,0,.284-.537c-.032.032.158-.284.063-.19l.032-.032a.373.373,0,0,1-.442.032l-.095-.095c.063.095-.032-.095,0,.032a1.288,1.288,0,0,1,.063.221,5.12,5.12,0,0,1,.032.7,2.783,2.783,0,0,1-.063.537h0c-.032.095-.095.095.095-.063.158-.126.442.063.379,0,.063.095-.095-.126-.063-.095a4.589,4.589,0,0,1-.537-.822c-.158-.411.253-.632.537-.822a.38.38,0,0,0-.284-.7Z" fill="#851919"/>
      </g>
      <g id="Group_117" data-name="Group 117">
        <path id="Path_160" data-name="Path 160" d="M52.74,107.249c-2.149.727-1.643,3.192-.632,4.677.632.98,2.686,3.065,3.792,1.517.284-.379-.348-.885-.664-.506-.7.822-2.18-1.074-2.5-1.548-.822-1.232-1.106-2.686.221-3.666.19-.158.095-.6-.221-.474Z" fill="#851919"/>
      </g>
      <g id="Group_118" data-name="Group 118">
        <path id="Path_161" data-name="Path 161" d="M53.972,111.862a8.784,8.784,0,0,0,4.234,3.318c1.264.506,3.982,1.011,4.677-.664.095-.253-.19-.506-.442-.442a7.4,7.4,0,0,1-1.833.632,5.463,5.463,0,0,1-2.433-.537,11.755,11.755,0,0,1-3.792-2.654C54.193,111.294,53.814,111.578,53.972,111.862Z" fill="#851919"/>
      </g>
      <g id="Group_119" data-name="Group 119">
        <path id="Path_162" data-name="Path 162" d="M52.044,108.26l.948-1.612a2.337,2.337,0,0,1,.632-.727c.253-.19.506-.158.79-.253.253-.095.379-.506.095-.632-.7-.348-1.485.284-1.928.822a4.941,4.941,0,0,0-.98,2.244.237.237,0,0,0,.442.158Z" fill="#851919"/>
      </g>
      <g id="Group_120" data-name="Group 120">
        <path id="Path_163" data-name="Path 163" d="M53.4,105.606a4.473,4.473,0,0,1,1.612-1.359c.6-.253,1.264-.126,1.833-.379a.3.3,0,0,0,0-.506,3.034,3.034,0,0,0-2.275.284,2.949,2.949,0,0,0-1.58,1.738c-.063.221.284.411.411.221Z" fill="#851919"/>
      </g>
      <g id="Group_121" data-name="Group 121">
        <path id="Path_164" data-name="Path 164" d="M54.92,104.057a7.437,7.437,0,0,1,2.939-1.39,5.713,5.713,0,0,1,1.8-.095c.506.063.885.379,1.359.474a.277.277,0,0,0,.348-.253c-.158-1.3-2.4-1.169-3.318-1.043-1.138.19-3.1.664-3.539,1.928a.291.291,0,0,0,.411.379Z" fill="#851919"/>
      </g>
      <g id="Group_122" data-name="Group 122">
        <path id="Path_165" data-name="Path 165" d="M60.008,102.572c.6.664,1.39,1.169,2.022,1.833a20.73,20.73,0,0,0,1.959,2.117c.316.221.632-.19.506-.506a8.92,8.92,0,0,0-1.833-2.244,4.929,4.929,0,0,0-2.4-1.612c-.253-.032-.442.221-.253.411Z" fill="#851919"/>
      </g>
      <g id="Group_123" data-name="Group 123">
        <path id="Path_166" data-name="Path 166" d="M63.863,106.68a23.136,23.136,0,0,0,8.184-1.011,59.9,59.9,0,0,0,11.281-4.234c2.749-1.359,5.34-3.034,8.058-4.487a25.713,25.713,0,0,1,8.785-3.034c.316-.032.442-.506.095-.6a6.968,6.968,0,0,0-3.76.348,25.311,25.311,0,0,0-4.392,1.833c-2.939,1.422-5.688,3.192-8.563,4.708a60.511,60.511,0,0,1-11.06,4.361,34.649,34.649,0,0,1-8.6,1.58.269.269,0,1,0-.032.537Z" fill="#851919"/>
      </g>
      <g id="Group_124" data-name="Group 124">
        <path id="Path_167" data-name="Path 167" d="M62.093,114.991c3.16,1.959,7.331,2.433,10.965,2.718a51.471,51.471,0,0,0,12.261-.664c6-1.043,11.723-3.539,17.317-5.783a18.949,18.949,0,0,0,2.18-.948c.253-.126.727-.411.822-.474.348-.253,0-.853-.348-.6.095-.063.158-.063-.032,0a.923.923,0,0,1-.284.063,11.313,11.313,0,0,0-1.106.348c-1.169.474-2.338.916-3.508,1.39-2.907,1.138-5.814,2.275-8.785,3.286a47.309,47.309,0,0,1-22.309,1.959,43.355,43.355,0,0,1-6.952-1.864.318.318,0,0,0-.221.569Z" fill="#851919"/>
      </g>
      <g id="Group_125" data-name="Group 125">
        <path id="Path_168" data-name="Path 168" d="M46.325,103.71a6.376,6.376,0,0,1,1.643-1.675,3.243,3.243,0,0,1,2.244-.253,4.623,4.623,0,0,1,2.117,1.138c.6.537.98,1.232,1.517,1.8a.244.244,0,0,0,.411-.158c-.095-1.928-2.244-3.381-3.95-3.729-1.833-.379-4.076.632-4.487,2.56-.063.284.284.569.506.316Z" fill="#851919"/>
      </g>
      <g id="Group_126" data-name="Group 126">
        <path id="Path_169" data-name="Path 169" d="M49.864,104.911a4.959,4.959,0,0,0,2.275.916c.7.063,1.77-.158,1.928-.98.032-.221-.126-.411-.348-.348a1.834,1.834,0,0,0-.664.316,1.752,1.752,0,0,1-1.2.126,11.43,11.43,0,0,1-1.77-.537.278.278,0,0,0-.221.506Z" fill="#851919"/>
      </g>
      <g id="Group_127" data-name="Group 127">
        <path id="Path_170" data-name="Path 170" d="M48.885,107.723a2.821,2.821,0,0,0,1.959.348c.6-.095,1.58-.348,1.738-1.043a.312.312,0,0,0-.284-.379c-.474,0-.853.379-1.3.537a4.258,4.258,0,0,1-1.9.063c-.284-.063-.506.316-.221.474Z" fill="#851919"/>
      </g>
      <g id="Group_128" data-name="Group 128">
        <path id="Path_171" data-name="Path 171" d="M47.747,110.093c1.106,1.043,3.128,1.9,4.456.664a.325.325,0,0,0-.316-.537,5.392,5.392,0,0,1-2.022.221,5.32,5.32,0,0,1-1.77-.822C47.81,109.461,47.494,109.872,47.747,110.093Z" fill="#851919"/>
      </g>
      <g id="Group_129" data-name="Group 129">
        <path id="Path_172" data-name="Path 172" d="M43.765,109.4c-.126.6.506,1.517.822,1.991a3.971,3.971,0,0,0,2.054,1.675,8.153,8.153,0,0,0,3.034.316,6.19,6.19,0,0,0,3.034-.664.418.418,0,0,0-.316-.758,12.04,12.04,0,0,1-5.309.284,3.428,3.428,0,0,1-1.991-1.58c-.253-.411-.6-1.264-1.138-1.39a.2.2,0,0,0-.19.126Z" fill="#851919"/>
      </g>
      <g id="Group_130" data-name="Group 130">
        <path id="Path_173" data-name="Path 173" d="M38.9,99.412c-1.011,2.812-2.054,5.972-.158,8.658a7.138,7.138,0,0,0,2.97,2.117c.632.284,2.654,1.2,3.16.379.032-.063.063-.19,0-.253-.221-.284-.474-.253-.79-.316a15.286,15.286,0,0,1-1.612-.442,7.483,7.483,0,0,1-2.939-1.9c-1.991-2.212-.537-5.562-.126-8.089a.266.266,0,1,0-.506-.158Z" fill="#851919"/>
      </g>
      <g id="Group_131" data-name="Group 131">
        <path id="Path_174" data-name="Path 174" d="M102.825,94.167c2.939.885,5.625,2.686,6.446,5.783a7.777,7.777,0,0,1-1.643,6.984,17.925,17.925,0,0,1-6.7,4.234c-1.517.632-3.1,1.2-4.645,1.706a45.092,45.092,0,0,0-5.372,1.9c-.379.19-.095.7.284.632a38.966,38.966,0,0,0,5.846-1.8c1.706-.6,3.413-1.232,5.088-1.959a16.33,16.33,0,0,0,6.762-4.772,8.574,8.574,0,0,0,1.074-7.805c-1.043-3.034-3.95-4.772-6.984-5.309-.316,0-.411.348-.158.411Z" fill="#851919"/>
      </g>
      <g id="Group_132" data-name="Group 132">
        <path id="Path_175" data-name="Path 175" d="M77.893,103.773c3.918-1.422,7.457-3.76,11.06-5.751A53.441,53.441,0,0,1,94.325,95.3a19.069,19.069,0,0,1,2.244-.822c1.169-.316,2.37-.284,3.539-.506a.341.341,0,0,0,0-.664c-1.864-.411-3.918.253-5.656.948a56.5,56.5,0,0,0-5.372,2.654C85.256,99,81.5,101.277,77.735,103.457a.178.178,0,0,0,.158.316Z" fill="#851919"/>
      </g>
      <g id="Group_133" data-name="Group 133">
        <path id="Path_176" data-name="Path 176" d="M38.994,99.1a15.588,15.588,0,0,0-4.708,1.422,25.035,25.035,0,0,0-5.435,3.255,9.731,9.731,0,0,0-3.318,4.171c-.474,1.3-.316,3.508.948,4.361.126.095.284-.063.253-.19a9.3,9.3,0,0,1-.6-2.086,4.9,4.9,0,0,1,.442-2.117,10.267,10.267,0,0,1,3.444-3.824,25.449,25.449,0,0,1,9.069-4.266c.379-.095.316-.758-.095-.727Z" fill="#851919"/>
      </g>
      <g id="Group_134" data-name="Group 134">
        <path id="Path_177" data-name="Path 177" d="M25.343,110.314c.7,2.654,2.812,4.645,4.93,6.288a45.465,45.465,0,0,0,9.006,5.151,158.33,158.33,0,0,0,21.551,7.868,99.308,99.308,0,0,0,23.352,4.2,52.936,52.936,0,0,0,9.227-.379c4.456-.569,8.627-2.5,12.513-4.677,2.939-1.643,5.625-3.634,8.437-5.467a26.923,26.923,0,0,0,5.909-4.582,6.705,6.705,0,0,0,1.548-6.446c-.727-2.528-3.7-3.508-6.036-3.855a.311.311,0,0,0-.158.6c1.675.6,3.76,1.169,4.835,2.718a4.911,4.911,0,0,1,.126,4.677c-1.39,2.97-4.8,4.677-7.394,6.415A93.414,93.414,0,0,1,101.245,130a31.463,31.463,0,0,1-11.376,2.749,75.992,75.992,0,0,1-21.519-2.18,160.2,160.2,0,0,1-23.7-7.552,74.112,74.112,0,0,1-11.281-5.435c-2.844-1.738-6.288-4.076-7.331-7.426-.095-.537-.79-.348-.7.158Z" fill="#851919"/>
      </g>
      <g id="Group_135" data-name="Group 135">
        <path id="Path_178" data-name="Path 178" d="M123.523,85.508a11.825,11.825,0,0,0,4.108,1.454,34.209,34.209,0,0,1,4.361,1.2c.506.19.727-.6.221-.822a26.857,26.857,0,0,0-4.076-1.106c-1.485-.316-2.939-.822-4.392-1.232A.284.284,0,0,0,123.523,85.508Z" fill="#851919"/>
      </g>
      <g id="Group_136" data-name="Group 136">
        <path id="Path_179" data-name="Path 179" d="M131.96,87.942a26.589,26.589,0,0,1,1.548,20.666c-.126.379.474.632.632.284,1.77-3.381,1.8-7.805,1.422-11.471a28.492,28.492,0,0,0-1.138-5.656,12.935,12.935,0,0,0-1.959-4.171C132.213,87.246,131.8,87.626,131.96,87.942Z" fill="#851919"/>
      </g>
      <g id="Group_137" data-name="Group 137">
        <path id="Path_180" data-name="Path 180" d="M133.635,108.45c-3.539,1.991-7.521,2.623-11.407,3.6-.537.126-.316.948.221.822,3.887-.822,8.216-1.485,11.565-3.76A.383.383,0,1,0,133.635,108.45Z" fill="#851919"/>
      </g>
      <g id="Group_138" data-name="Group 138">
        <path id="Path_181" data-name="Path 181" d="M123.175,99.381a62.05,62.05,0,0,1,0,6.415,17.109,17.109,0,0,1-.6,3.128c-.158.537-.316,1.043-.506,1.548a4.273,4.273,0,0,0-.442,1.454.277.277,0,0,0,.474.19c.727-.632.98-2.086,1.264-3a20.616,20.616,0,0,0,.6-3.1,25.268,25.268,0,0,0-.253-6.731C123.649,99,123.175,99.065,123.175,99.381Z" fill="#851919"/>
      </g>
      <g id="Group_139" data-name="Group 139">
        <path id="Path_182" data-name="Path 182" d="M85.477,99.728a8.7,8.7,0,0,1,2.812,2.56,14.7,14.7,0,0,1,1.864,4.045,19.7,19.7,0,0,1,.822,4.487,25.867,25.867,0,0,1-.221,3.824c-.032.316.442.411.569.158a7.742,7.742,0,0,0,.506-3.982,21.245,21.245,0,0,0-.885-4.9,13.964,13.964,0,0,0-2.117-4.361,5.458,5.458,0,0,0-3.128-2.37.3.3,0,0,0-.221.537Z" fill="#851919"/>
      </g>
      <g id="Group_140" data-name="Group 140">
        <path id="Path_183" data-name="Path 183" d="M107.5,108.671c.7-.095,1.422-.063,2.117-.126a.456.456,0,0,0,.379-.284.267.267,0,0,0,0-.221.372.372,0,0,0-.379-.284,5.248,5.248,0,0,0-2.307.316.315.315,0,0,0,.19.6Z" fill="#851919"/>
      </g>
      <g id="Group_141" data-name="Group 141">
        <path id="Path_184" data-name="Path 184" d="M134.014,91.892a10.691,10.691,0,0,0,3.476.19,15.826,15.826,0,0,0,3.444-.442,19.484,19.484,0,0,0,2.939-1.138,12.368,12.368,0,0,1,3.192-.758c.379-.063.506-.569.095-.7-1.9-.537-4.013.853-5.72,1.485a12.106,12.106,0,0,1-3.666.664,18.508,18.508,0,0,0-3.76.253A.243.243,0,0,0,134.014,91.892Z" fill="#851919"/>
      </g>
      <g id="Group_142" data-name="Group 142">
        <path id="Path_185" data-name="Path 185" d="M146.717,89.522c.379.284.79.411,1.169.7a8.876,8.876,0,0,1,1.2,1.232,7.955,7.955,0,0,0,2.338,2.022,13.927,13.927,0,0,0,3.666,1.232,6.128,6.128,0,0,0,3.539-.126c.253-.126.221-.6-.095-.632a7.706,7.706,0,0,0-1.706.032,11.342,11.342,0,0,1-2.054-.221,8.966,8.966,0,0,1-3.729-1.517c-.79-.632-1.39-1.485-2.117-2.18-.506-.506-1.39-1.264-2.18-1.011a.259.259,0,0,0-.032.474Z" fill="#851919"/>
      </g>
      <g id="Group_143" data-name="Group 143">
        <path id="Path_186" data-name="Path 186" d="M158.251,94.735c2.149,1.074-1.169,3.918-2.149,4.677a6.11,6.11,0,0,1-3.887,1.2,7.613,7.613,0,0,1-2.654-.506c-.948-.316-1.77-.916-2.718-1.2a.341.341,0,0,0-.316.569c1.39,1.485,3.982,2.117,5.941,2.086a7.053,7.053,0,0,0,4.519-1.675c1.422-1.169,4.772-4.772,1.548-5.909a.412.412,0,0,0-.284.758Z" fill="#851919"/>
      </g>
      <g id="Group_144" data-name="Group 144">
        <path id="Path_187" data-name="Path 187" d="M146.78,99.065c-1.991,1.359-3.792,2.907-5.909,4.108a22.945,22.945,0,0,1-3.444,1.643c-.506.19-1.043.379-1.58.537a7.351,7.351,0,0,0-1.675.506c-.253.158-.253.664.095.7a7.611,7.611,0,0,0,3.413-.79,28.981,28.981,0,0,0,9.511-6.13c.284-.316-.063-.822-.411-.569Z" fill="#851919"/>
      </g>
      <g id="Group_145" data-name="Group 145">
        <path id="Path_188" data-name="Path 188" d="M133.224,89.364a5.549,5.549,0,0,0,3.539-1.043,11.54,11.54,0,0,1,4.013-1.833c2.5-.316,3.666,3.065,6.067,2.939a.252.252,0,0,0,.126-.474,14.4,14.4,0,0,1-2.876-2.054,4.977,4.977,0,0,0-2.939-1.359,6.633,6.633,0,0,0-3.7,1.3c-.664.411-1.327.822-2.022,1.169a13.476,13.476,0,0,1-2.244.79c-.253.063-.284.537.032.569Z" fill="#851919"/>
      </g>
      <g id="Group_146" data-name="Group 146">
        <path id="Path_189" data-name="Path 189" d="M148.455,90.312c1.2.853,2.623.379,3.95.758.98.284.379,1.833.442,2.56.032.411.7.569.79.095.19-.948.506-2.307-.19-3.1-1.074-1.232-3.413-.348-4.772-.853C148.328,89.648,148.2,90.122,148.455,90.312Z" fill="#851919"/>
      </g>
      <g id="Group_147" data-name="Group 147">
        <path id="Path_190" data-name="Path 190" d="M4.108,123.428c3.255-.316,6.478-.916,9.7-1.454,4.645-.758,9.29-1.485,13.935-2.244.411-.063.79-.126,1.2-.19.126-.032.221-.032.316-.063s.284-.063.126-.032c.537-.095.316-.885-.221-.822.158-.032-.032,0-.095,0a5.248,5.248,0,0,0-.7.095c-.7.126-1.422.221-2.117.348-2.275.379-4.55.727-6.826,1.106-4.614.758-9.259,1.454-13.872,2.275-.537.095-1.043.221-1.548.348-.348.063-.253.664.095.632Z" fill="#851919"/>
      </g>
      <g id="Group_148" data-name="Group 148">
        <path id="Path_191" data-name="Path 191" d="M29.008,119.1c2.275,1.2,4.74,2.054,7.11,3.034,1.643.664,3.318,1.359,4.961,2.022.537.221,1.106.442,1.643.664a1.476,1.476,0,0,0,.537.095s.253.095.126.032c.348.126.474-.411.158-.537.253.095,0,0-.032-.032a2.119,2.119,0,0,0-.442-.284c-.537-.253-1.074-.442-1.612-.664-1.643-.664-3.286-1.327-4.93-2.022a75.259,75.259,0,0,0-7.268-2.844c-.348-.063-.537.411-.253.537Z" fill="#851919"/>
      </g>
      <g id="Group_149" data-name="Group 149">
        <path id="Path_192" data-name="Path 192" d="M9.891,123.775c2.939-.221,5.878-.822,8.816-1.3,2.054-.348,4.14-.664,6.194-1.011.7-.095,1.359-.221,2.054-.316l.569-.095c.063,0,.411-.095.221-.063.537-.095.316-.885-.221-.822.411-.063.063-.032-.063,0a3.562,3.562,0,0,0-.569.095c-.664.095-1.3.221-1.959.316-2.022.316-4.076.664-6.1.98-3,.474-6.036.822-8.974,1.58-.411.095-.348.664.032.632Z" fill="#851919"/>
      </g>
      <g id="Group_150" data-name="Group 150">
        <path id="Path_193" data-name="Path 193" d="M21.077,128.357c2.718-.316,5.435-.98,8.121-1.517,1.9-.379,3.824-.758,5.72-1.169.632-.126,1.232-.253,1.864-.379a3.675,3.675,0,0,0,.569-.126c.063,0,.411-.095.19-.063.537-.095.316-.916-.221-.822.253-.063-.126,0-.158,0-.19.032-.348.063-.537.095l-1.8.379-5.688,1.138c-2.718.537-5.5.98-8.121,1.77C20.666,127.82,20.7,128.389,21.077,128.357Z" fill="#851919"/>
      </g>
      <g id="Group_151" data-name="Group 151">
        <path id="Path_194" data-name="Path 194" d="M27.334,120.742a39.107,39.107,0,0,0,4.993,2.18c1.138.474,2.307.948,3.444,1.422.411.158.79.316,1.2.474a1.586,1.586,0,0,0,.379.063c.032,0,.221.063.095,0,.348.126.474-.411.158-.537.221.095-.126-.126-.253-.221a4.548,4.548,0,0,0-1.138-.474l-3.508-1.422a38.763,38.763,0,0,0-5.119-1.959.269.269,0,0,0-.253.474Z" fill="#851919"/>
      </g>
      <g id="Group_152" data-name="Group 152">
        <path id="Path_195" data-name="Path 195" d="M9.385,123.712a44.842,44.842,0,0,0,5.656,2.433c1.327.537,2.654,1.106,4.013,1.643.474.19.916.379,1.39.569a3.327,3.327,0,0,0,.569.095c.348.126.474-.411.158-.537.253.095.032,0,0-.032a3.31,3.31,0,0,0-.348-.253,6.871,6.871,0,0,0-1.327-.537c-1.3-.537-2.623-1.074-3.918-1.612a52.411,52.411,0,0,0-5.941-2.307c-.316-.063-.506.379-.253.537Z" fill="#851919"/>
      </g>
      <g id="Group_153" data-name="Group 153">
        <path id="Path_196" data-name="Path 196" d="M3.381,123.175a6.718,6.718,0,0,0-.221,3.444c.126.948.348,2.56,1.169,3.16.19.126.411-.095.379-.284a8.786,8.786,0,0,0-.506-1.264,7.791,7.791,0,0,1-.348-1.706,14.3,14.3,0,0,1,.063-3.286c0-.316-.442-.316-.537-.063Z" fill="#851919"/>
      </g>
      <g id="Group_154" data-name="Group 154">
        <path id="Path_197" data-name="Path 197" d="M43.291,125.039c0,.885.221,1.77.284,2.686a16.985,16.985,0,0,1-.221,2.844c-.032.284.379.348.506.126.948-1.548.6-4.108.063-5.751a.325.325,0,0,0-.632.095Z" fill="#851919"/>
      </g>
      <g id="Group_155" data-name="Group 155">
        <path id="Path_198" data-name="Path 198" d="M4.55,124.344c3.381,1.833,6.889,3.539,10.428,5.024a17.8,17.8,0,0,0,6.1,1.612,25.992,25.992,0,0,0,6.762-1.043c2.5-.6,5.024-1.264,7.521-1.9,1.485-.379,3-.758,4.487-1.138.885-.221,1.738-.569,2.623-.758-.126-.032-.221-.095-.348-.126.032-.126.063-.284.095-.411h0c-.348.095-.19.664.158.537-.063.032.032,0,.063,0a.325.325,0,0,0,.221-.379.3.3,0,0,0-.284-.221,6.95,6.95,0,0,0-1.8.316c-1.2.316-2.4.6-3.6.916-2.275.569-4.519,1.138-6.794,1.738a50.391,50.391,0,0,1-7.805,1.643,13.885,13.885,0,0,1-5.878-.98c-4.045-1.454-7.837-3.508-11.818-5.024a.114.114,0,1,0-.126.19Z" fill="#851919"/>
      </g>
      <g id="Group_156" data-name="Group 156">
        <path id="Path_199" data-name="Path 199" d="M4.55,129.685c3.381,1.833,6.889,3.539,10.428,5.024a17.99,17.99,0,0,0,6.1,1.612,25.992,25.992,0,0,0,6.762-1.043c2.465-.6,4.93-1.2,7.363-1.864,2.812-.758,5.593-1.548,8.374-2.4-.126-.032-.221-.095-.348-.126.032-.126.063-.284.095-.411-.348.095-.19.664.158.537-.095.032.032,0,.063,0a.308.308,0,0,0,.221-.348.3.3,0,0,0-.284-.221,10.412,10.412,0,0,0-1.675.316l-3.508.948c-1.9.506-3.76,1.074-5.688,1.517-4.772,1.169-9.859,3.16-14.789,1.77a37.462,37.462,0,0,1-5.119-2.022c-2.686-1.2-5.372-2.433-8.121-3.508-.063-.032-.158.158-.032.221Z" fill="#851919"/>
      </g>
      <g id="Group_157" data-name="Group 157">
        <path id="Path_200" data-name="Path 200" d="M20.824,131.928a3.6,3.6,0,0,0-.253,1.264,4.1,4.1,0,0,0-.095,1.517.246.246,0,0,0,.442.063,2.343,2.343,0,0,0,.253-1.232c.032-.506.095-.98.095-1.485C21.267,131.8,20.919,131.707,20.824,131.928Z" fill="#851919"/>
      </g>
      <g id="Group_158" data-name="Group 158">
        <path id="Path_201" data-name="Path 201" d="M3.413,101.814a1.075,1.075,0,0,0-.032-.316.749.749,0,0,0-.727-.537.778.778,0,0,0-.727.537,1.075,1.075,0,0,0-.032.316.693.693,0,0,0,.221.537.824.824,0,0,0,.537.221.9.9,0,0,0,.537-.221.9.9,0,0,0,.221-.537Z" fill="#851919"/>
      </g>
      <g id="Group_159" data-name="Group 159">
        <path id="Path_202" data-name="Path 202" d="M9.353,102.383a1.933,1.933,0,0,0,.379-.158.679.679,0,0,0,0-1.138,1.933,1.933,0,0,0-.379-.158.75.75,0,0,0-.948.727.765.765,0,0,0,.948.727Z" fill="#851919"/>
      </g>
      <g id="Group_160" data-name="Group 160">
        <path id="Path_203" data-name="Path 203" d="M15.989,102.383h.095c-.063,0-.126-.032-.19-.032h.032a.449.449,0,0,0-.19-.063.555.555,0,0,1-.158-.126.555.555,0,0,0-.126-.158.62.62,0,0,0,.284.284.752.752,0,0,0,1.011-.253.77.77,0,0,0-.284-1.043,1,1,0,0,0-.506-.126.769.769,0,0,0-.758.758A.8.8,0,0,0,15.989,102.383Z" fill="#851919"/>
      </g>
      <g id="Group_161" data-name="Group 161">
        <path id="Path_204" data-name="Path 204" d="M23.794,102.035a.988.988,0,0,0,.158-.316.732.732,0,0,0-.885-.885.988.988,0,0,0-.316.158.95.95,0,0,0-.348.442.771.771,0,0,0,.19.727.825.825,0,0,0,.537.221.715.715,0,0,0,.664-.348Z" fill="#851919"/>
      </g>
    </g>
  </g>
</svg>
