<svg xmlns="http://www.w3.org/2000/svg" xmlns:xlink="http://www.w3.org/1999/xlink" width="24" height="24" viewBox="0 0 24 24">
  <defs>
    <clipPath id="clip-path">
      <rect id="Rectangle_13" data-name="Rectangle 13" width="24" height="24" transform="translate(908 429)" fill="#9c9c9c" stroke="#707070" stroke-width="1"/>
    </clipPath>
  </defs>
  <g id="Mask_Group_1" data-name="Mask Group 1" transform="translate(-908 -429)" clip-path="url(#clip-path)">
    <g id="eye_1_" data-name="eye (1)" transform="translate(908 429)">
      <circle id="Ellipse_1" data-name="Ellipse 1" cx="3.999" cy="3.999" r="3.999" transform="translate(8.002 8.002)" fill="#9c9c9c"/>
      <path id="Path_1" data-name="Path 1" d="M23.267,9.42C21.716,6.895,18.19,2.658,12,2.658S2.284,6.895.733,9.42a4.906,4.906,0,0,0,0,5.16C2.284,17.105,5.81,21.342,12,21.342s9.716-4.236,11.267-6.762A4.906,4.906,0,0,0,23.267,9.42ZM12,18a6,6,0,1,1,6-6A6,6,0,0,1,12,18Z" fill="#9c9c9c"/>
    </g>
  </g>
</svg>
