<svg xmlns="http://www.w3.org/2000/svg" xmlns:xlink="http://www.w3.org/1999/xlink" width="158" height="158" viewBox="0 0 158 158">
  <defs>
    <clipPath id="clip-path">
      <rect id="Rectangle_26" data-name="Rectangle 26" width="158" height="158" transform="translate(562 305)" fill="#fff" stroke="#707070" stroke-width="1"/>
    </clipPath>
  </defs>
  <g id="Mask_Group_20" data-name="Mask Group 20" transform="translate(-562 -305)" clip-path="url(#clip-path)">
    <g id="grateful" transform="translate(562.001 305)">
      <g id="Group_318" data-name="Group 318">
        <g id="Group_315" data-name="Group 315">
          <path id="Path_485" data-name="Path 485" d="M143.865,76.806c-.223-.624-.435-1.254-.7-1.861a44.437,44.437,0,0,0-7.644-10.929c-7.266-7.684-13.672-10.236-23.722-12.123-.45-.083-.493.1-.622.535A15.906,15.906,0,0,1,100.07,63a16.5,16.5,0,0,1-18.025-6.673c-1.99-2.927-1.538-4.539-2.394-4.43a57.366,57.366,0,0,0-5.633,1.217C67.378,54.96,62.9,57.231,57.664,62.246c-3.632,3.48-8.4,9.428-9.872,13.887-.541,1.65-.687.81,2.034,1.776a27.165,27.165,0,0,1,8.434,5.184,37.524,37.524,0,0,1,7.59,8.875c.564.931,1,1.753,1.34,2.434.69,1.386,1,2.2,1.2,2.159.157-.029.2-.329.172-.467-.037-.2-.072-.676-.115-1.383-.037-.6-.08-1.357-.14-2.26-.163-2.417-.444-5.857-1.014-9.869-1.343-9.442-3.322-15.036-3.053-15.033.037,0,.1.006.109.026a107.611,107.611,0,0,1,2.97,13.669c.561,3.537.968,7.326,1.234,11.252q.077,1.13.137,2.274c.16,2.984.246,6.029.258,9.087,0,.75,0,1.5,0,2.254-.02,3.01-.106,6.023-.252,8.984-.035.742-.075,1.483-.12,2.217-.18,3.053-.427,6.04-.727,8.907q-.112,1.087-.238,2.148c-.367,3.136-.8,6.106-1.292,8.838q-.185,1.035-.384,2.022c-.266,1.343-.55,2.617-.845,3.812-.026.112-.063.221-.083.335-.077.444.031.544.487.776a41.546,41.546,0,0,0,5.3,2.265c6.942,2.423,16.929,3.405,24.083,3.465,1.162.009,6.421-.166,6.45-.172,1.653-.264,14.514-.338,24.529-5.522.822-.424.6-.524.361-1.538q-.374-1.59-.725-3.348c-.137-.679-.269-1.378-.4-2.093-.481-2.675-.919-5.6-1.289-8.764-.089-.727-.169-1.466-.246-2.22-.292-2.787-.533-5.739-.71-8.841-.043-.756-.083-1.518-.117-2.291-.132-2.855-.212-5.834-.226-8.918-.006-.421-.006-.848-.006-1.274h-.029c0-.347,0-.7,0-1.045.014-2.984.092-6,.252-9.019.043-.782.089-1.561.14-2.343a123.326,123.326,0,0,1,2.684-19.074c.264-1.148,1.123-4.62,1.509-5.851a.115.115,0,0,1,.1-.063c.59.089-2.406,5.407-3.915,23.249-.057.67-.1,1.229-.138,1.7-.114,1.486-.135,2.045-.149,2.334a2.826,2.826,0,0,1-.06.55c-.163.859.129,1.541.51.716q.365-.795.762-1.558.679-1.31,1.438-2.534c4.754-7.7,11.622-12.779,16.765-14.3C143.513,77.319,144.1,77.459,143.865,76.806Z" fill="#ff8ede"/>
          <g id="Group_311" data-name="Group 311">
            <path id="Path_486" data-name="Path 486" d="M68.449,94.711l.243.06q3.63.85,7.315,1.466c3.262.559,6.556.942,9.855,1.232l1.237.1,1.24.074c.828.043,1.655.109,2.483.129l2.483.083,2.486.029c3.314-.014,6.627-.14,9.929-.4s6.6-.664,9.86-1.226c2.394-.4,4.78-.871,7.143-1.42.077-.014.155-.034.232-.052q.605-.142,1.212-.292.679-1.31,1.438-2.534c-.264.054-.53.109-.793.16-.567.114-1.137.226-1.707.332-.08.014-.16.031-.241.043-2.546.478-5.1.882-7.667,1.232-3.219.418-6.446.773-9.683.971q-4.854.326-9.723.329c-3.245.026-6.487-.112-9.723-.321s-6.467-.541-9.689-.957q-3.926-.52-7.824-1.251c-.083-.014-.163-.031-.246-.046-.819-.155-1.641-.315-2.46-.484.564.931,1,1.753,1.34,2.434C67.607,94.508,68.029,94.611,68.449,94.711Z" fill="#fc09b2"/>
            <path id="Path_487" data-name="Path 487" d="M115.2,105.013c-3.219.418-6.446.773-9.683.971-3.236.218-6.481.332-9.723.326-3.245.028-6.487-.109-9.723-.318s-6.467-.544-9.689-.957q-3.729-.49-7.429-1.177c0,.75,0,1.5,0,2.254q3.505.821,7.06,1.412c3.262.559,6.556.942,9.855,1.232l1.237.1,1.24.074c.828.04,1.655.109,2.483.129l2.483.083,2.486.029c3.314-.014,6.627-.14,9.929-.4,3.3-.281,6.6-.664,9.86-1.226q3.48-.576,6.922-1.369c-.006-.421-.006-.848-.006-1.274h-.029c0-.347,0-.7,0-1.045C120.054,104.3,117.629,104.681,115.2,105.013Z" fill="#fc09b2"/>
            <path id="Path_488" data-name="Path 488" d="M68.575,117.313q3.686.872,7.432,1.495c3.262.561,6.556.945,9.855,1.232l1.237.106,1.24.074c.828.04,1.655.109,2.483.126l2.483.086,2.486.029c3.314-.014,6.627-.14,9.929-.4,3.3-.281,6.6-.667,9.86-1.226q3.655-.605,7.265-1.446c-.043-.756-.083-1.518-.117-2.291q-3.75.7-7.532,1.2c-3.219.418-6.446.776-9.683.971q-4.854.33-9.723.329c-3.245.029-6.487-.109-9.723-.318s-6.467-.544-9.689-.957q-3.858-.511-7.684-1.226C68.661,115.839,68.621,116.58,68.575,117.313Z" fill="#fc09b2"/>
            <path id="Path_489" data-name="Path 489" d="M67.61,128.368q4.159,1.023,8.4,1.727c3.262.561,6.556.945,9.855,1.232l1.237.106,1.24.074c.828.04,1.655.106,2.483.126l2.483.086,2.486.029c3.314-.017,6.627-.14,9.929-.4,3.3-.281,6.6-.667,9.86-1.226q4.141-.687,8.222-1.673c-.089-.727-.169-1.466-.246-2.22-2.772.533-5.562.979-8.36,1.357-3.219.418-6.446.773-9.683.971q-4.854.331-9.723.329c-3.245.029-6.487-.109-9.723-.321s-6.467-.541-9.689-.954q-4.283-.567-8.532-1.389Q67.736,127.308,67.61,128.368Z" fill="#fc09b2"/>
            <path id="Path_490" data-name="Path 490" d="M124.811,137.266c-3.187.642-6.4,1.166-9.614,1.6-3.219.418-6.446.773-9.683.971q-4.854.331-9.723.329c-3.245.029-6.487-.112-9.723-.321s-6.467-.541-9.689-.954c-3.371-.447-6.721-1.017-10.061-1.69q-.185,1.035-.384,2.022,4.979,1.306,10.072,2.154c3.262.561,6.556.945,9.855,1.232l1.237.106,1.24.072c.828.043,1.655.109,2.483.129l2.483.086,2.486.026c3.314-.014,6.627-.138,9.929-.4,3.3-.281,6.6-.667,9.86-1.226,3.333-.556,6.644-1.252,9.912-2.1-.137-.679-.269-1.378-.4-2.093C125,137.229,124.906,137.249,124.811,137.266Z" fill="#fc09b2"/>
            <path id="Path_491" data-name="Path 491" d="M78.566,60.127a19.363,19.363,0,0,0,4.672,4.6,22.138,22.138,0,0,0,24.864-.007,19.09,19.09,0,0,0,7.492-10.439.48.48,0,0,0-.906-.311,19.621,19.621,0,0,1-7.572,9.28,21.563,21.563,0,0,1-22.864-.029,19.762,19.762,0,0,1-7.563-9.272.51.51,0,0,0-.963.333A19.935,19.935,0,0,0,78.566,60.127Z" fill="#fc09b2"/>
          </g>
          <path id="Path_492" data-name="Path 492" d="M95.211,149.88c-1.067.086-2.525-.132-3.989-.144-4.626-.037-14.166-1.115-20.576-3.373a36.669,36.669,0,0,1-5.339-2.336c-.793-.576,7.345.091,17.086-3.132,29.012-9.6,20.3-31.479,30.8-54.876,3.889-8.665,11.324-17.013,13.521-18.3.917-.537-1.791,4.627-3.407,19.618-.24,2.223-.422,4.242-.686,9.089a202.074,202.074,0,0,0,1.957,37.555c1.589,10.283,2.38,9.616,1.437,10.125a48.311,48.311,0,0,1-15.71,4.7,102.119,102.119,0,0,1-11.608.968C97.665,149.867,96.638,149.846,95.211,149.88Z" fill="#fc09b2" opacity="0.5"/>
          <g id="Group_312" data-name="Group 312">
            <path id="Path_493" data-name="Path 493" d="M152.9,106.141c-.982-9.411-6-19.634-10.438-27.778-.209-.382-.278-.412-.718-.261-4.193,1.438-9.277,5.1-13.467,10.428A67.783,67.783,0,0,1,114.9,82.723a7.123,7.123,0,0,1-2.185-2.042,26.44,26.44,0,0,0-4-6.029c-.092-.1-.19-.2-.288-.306.05-.049.1-.1.15-.159a1.705,1.705,0,0,0,.284-.4c.435-.808-.135-1.5-1.189-1.274-.052.011-.1.023-.155.037-.218.046-.43.106-.639.169l-.144.049c-.333-.276-.681-.534-1.044-.788.024-.032.049-.065.071-.1a1.317,1.317,0,0,0,.218-.5c.052-.3-.077-.559-.476-.75a1.556,1.556,0,0,0-.991-.157.011.011,0,0,0-.009,0c-.312.054-.59.112-.845.175l-.128.034c-.278-.137-.56-.267-.85-.389a15.789,15.789,0,0,0-1.489-.544,8.634,8.634,0,0,0-2.555-.478,3.337,3.337,0,0,0-.412,0c-1.638.2-1.1,1.807.132,2.93a4.858,4.858,0,0,0,.5.4c.025.018.051.034.077.051-.15.065-.3.13-.465.2-.484.206-1.031.43-1.658.67-.069.026-.14.054-.212.083l-.8.3-.1.038c-1.093-.41-2.239-.858-3.234-1.293a4.56,4.56,0,0,0,.576-.449c1.231-1.123,1.77-2.732.132-2.93a3.283,3.283,0,0,0-.413,0,8.634,8.634,0,0,0-2.555.478,15.788,15.788,0,0,0-1.489.544c-.266.112-.527.232-.782.355l-.069.034c-.313-.084-.606-.144-.973-.209a.011.011,0,0,0-.009,0c-1-.145-1.977.568-1.178,1.5-.343.24-.674.484-.988.742-.019.015-.037.031-.056.046a8.511,8.511,0,0,0-.937-.255c-1.531-.294-1.661,1.067-.755,1.828-.1.1-.2.2-.288.306a26.44,26.44,0,0,0-4,6.029A7.123,7.123,0,0,1,76.5,82.724a67.73,67.73,0,0,1-13.352,5.8,39.422,39.422,0,0,0-5.1-5.341,26.27,26.27,0,0,0-8.274-5.05c-.521-.194-.565-.184-.865.338-3.881,6.75-8.341,16.484-9.851,24.19a23.181,23.181,0,0,0-.608,6.265,7.852,7.852,0,0,0,.579,3.083c.828,2.057,3.047,2.638,6.008,2.186a18.914,18.914,0,0,0,3.316-.377c6.756-1.435,12.4-5.868,18.054-9.565,3.045-1.99,5.7-4.78,8.451-7.189a53.4,53.4,0,0,0,4.3-4.178c.931-.931.925-.421,5.315-.908a64.211,64.211,0,0,0,10.382-2.028c.285-.085.566-.17.848-.259.282.089.564.174.848.259a64.258,64.258,0,0,0,10.382,2.028c4.39.487,4.385-.023,5.315.908a53.339,53.339,0,0,0,4.3,4.178c2.746,2.409,5.407,5.2,8.451,7.189,5.65,3.7,11.3,8.131,18.054,9.565a18.962,18.962,0,0,0,3.685.38l.035.005C151.042,114.728,153.642,113.27,152.9,106.141ZM89.981,75.609c-.26-.149-.508-.3-.751-.444.1-.088.192-.177.3-.281.371.223.734.434,1.1.636-.2.042-.4.082-.6.116ZM95.6,78.373c-.12-.052-.253-.114-.4-.182.168-.072.334-.146.5-.221.168.075.335.148.5.221-.191.088-.335.154-.5.227C95.667,78.4,95.635,78.389,95.6,78.373Zm5.622-2.764c-.149-.026-.3-.057-.451-.089l.052-.029c.343-.192.693-.4,1.046-.608.108.105.2.193.3.281-.243.147-.491.3-.751.444l-.047.027C101.322,75.628,101.272,75.619,101.222,75.609Z" fill="#db5e43"/>
            <path id="Path_494" data-name="Path 494" d="M80.716,33.475a2.2,2.2,0,0,0,.229-.018A16.946,16.946,0,0,0,83,39.583a18.543,18.543,0,0,0,5.414,5.536c-.052.674-.128,1.514-.252,2.543-.116.966-.275,2.091-.492,3.376-3.262.231-6.312.54-7.036.7a.289.289,0,0,0-.242.355,12.857,12.857,0,0,0,1.395,3.417,16.326,16.326,0,0,0,13.768,7.863,5.678,5.678,0,0,0,1.064-.079,10.78,10.78,0,0,0,3.047-.431,15.658,15.658,0,0,0,11.311-10.571c.1-.376.017-.524-.351-.582-2.209-.35-4.65-.573-7.108-.718-.189-1.082-.366-2.2-.508-3.292-.111-.833-.2-1.649-.26-2.425l0,0a18.588,18.588,0,0,0,5.642-5.688,16.944,16.944,0,0,0,2.056-6.125,2.153,2.153,0,0,0,.227.018c6.213,0,7.128-8.767,2.235-8.767a3.6,3.6,0,0,0-2.222.783,27.672,27.672,0,0,0-2.159-9.1A14.026,14.026,0,0,0,95.757,7.975h-.114a14.019,14.019,0,0,0-12.778,8.417,27.667,27.667,0,0,0-2.159,9.1,3.6,3.6,0,0,0-2.224-.785C73.588,24.709,74.5,33.475,80.716,33.475Z" fill="#db5e43"/>
          </g>
          <g id="Group_313" data-name="Group 313">
            <path id="Path_495" data-name="Path 495" d="M112.73,31.7a2.136,2.136,0,1,0,2.136,2.136A2.137,2.137,0,0,0,112.73,31.7Z" fill="#ffcf00"/>
            <circle id="Ellipse_6" data-name="Ellipse 6" cx="2.136" cy="2.136" r="2.136" transform="translate(76.531 31.701)" fill="#ffcf00"/>
          </g>
          <g id="Group_314" data-name="Group 314" opacity="0.25">
            <path id="Path_496" data-name="Path 496" d="M74.186,92.589c-7.088.962-12.335,6.555-18.524,9.709a28.891,28.891,0,0,1-16.731,2.824c-.011.06-.02.123-.031.189-.413,2.606-.51,5.785.891,7.472,1.529,1.836,6.186,1.538,8.554,1.034,6.756-1.435,12.4-5.868,18.054-9.565,3.045-1.99,5.7-4.78,8.451-7.189a53.4,53.4,0,0,0,4.3-4.178c-.049-.014-.1-.029-.146-.04A12.792,12.792,0,0,0,74.186,92.589Z" fill="#000e3f"/>
            <path id="Path_497" data-name="Path 497" d="M152.5,105.311c-.011-.066-.02-.129-.031-.189a28.891,28.891,0,0,1-16.731-2.824c-6.189-3.153-11.436-8.746-18.524-9.709a12.779,12.779,0,0,0-4.823.255c-.049.011-.1.026-.146.04a53.341,53.341,0,0,0,4.3,4.178c2.746,2.409,5.407,5.2,8.451,7.189,5.65,3.7,11.3,8.131,18.054,9.565,2.368.5,7.025.8,8.554-1.034C153.01,111.1,152.913,107.917,152.5,105.311Z" fill="#000e3f"/>
            <path id="Path_498" data-name="Path 498" d="M95.757,47.477h-.114a13.468,13.468,0,0,1-7.227-2.359c-.053.667-.129,1.517-.25,2.541a8.862,8.862,0,0,0,14.849.038c-.114-.834-.2-1.653-.258-2.427A13.371,13.371,0,0,1,95.757,47.477Z" fill="#000e3f"/>
            <path id="Path_499" data-name="Path 499" d="M114.232,27.223c-.322-.224-.507.3-.871.789-.721.96-1.192,1.351-1.556,1.889-.22.326.132.8,1.222.109C114.386,29.134,114.652,27.516,114.232,27.223Z" fill="#000e3f"/>
            <path id="Path_500" data-name="Path 500" d="M79.035,29.213c-.208-.253-.484-.516-1-1.2-.149-.2-.494-.722-.494-.722a.271.271,0,0,0-.485.089,2.778,2.778,0,0,0,2.218,3,.312.312,0,0,0,.317-.481A6.937,6.937,0,0,0,79.035,29.213Z" fill="#000e3f"/>
            <path id="Path_501" data-name="Path 501" d="M104.464,30.2c-2.029,0-3.68,1.35-3.68,3.009s1.651,3.009,3.68,3.009,3.681-1.35,3.681-3.009S106.493,30.2,104.464,30.2Z" fill="#000e3f"/>
            <path id="Path_502" data-name="Path 502" d="M90.663,33.2c0-1.659-1.651-3.009-3.68-3.009S83.3,31.545,83.3,33.2s1.651,3.009,3.681,3.009S90.663,34.863,90.663,33.2Z" fill="#000e3f"/>
          </g>
        </g>
        <g id="Group_316" data-name="Group 316">
          <path id="Path_503" data-name="Path 503" d="M152.5,100.318a72.972,72.972,0,0,0-3.185-9.411c-1.168-2.867-2.48-5.7-3.89-8.417-.917-1.775-1.532-2.851-1.9-3.5a6.762,6.762,0,0,1-.447-.834.246.246,0,0,0,.045-.023,4.211,4.211,0,0,1,.592-.144c.394-.084.728-.152.88-.417a.846.846,0,0,0-.015-.705l-.114-.288c-.88-2.351-1.782-4.785-6.165-10.336a38.339,38.339,0,0,0-19.262-13.385,12.342,12.342,0,0,0,2.032-7,11.319,11.319,0,0,0-6.325-10.291,2.637,2.637,0,0,0,.645-1.737,2.559,2.559,0,0,0-.508-1.547,5.944,5.944,0,0,0,1.683-4.118,4.343,4.343,0,0,0-.895-2.753,3.3,3.3,0,0,0-2.207-1.191L113.3,24.2c1.246-1.213,1.86-3.513,2.179-5.157a18.9,18.9,0,0,0-.318-8.872C112.387.794,99.51-3,93.079,2.644c-.493-.584-5.885-5.255-12.6.47a15.819,15.819,0,0,0-5.354,11c-.03.569-.038,1.137-.015,1.706.068,1.873,1.107,6.484,2.973,8.387a3.342,3.342,0,0,0-2.359,1.206,4.343,4.343,0,0,0-.895,2.753,5.952,5.952,0,0,0,1.691,4.118,2.556,2.556,0,0,0-.508,1.547A2.659,2.659,0,0,0,78.663,36.5a2.618,2.618,0,0,0,2.146-1.1,15.367,15.367,0,0,0,1.744,4.459,19.474,19.474,0,0,0,5.316,5.513q-.068.922-.227,2.23c-.106.895-.243,1.835-.394,2.813a60.194,60.194,0,0,0-18.754,3.928,32.342,32.342,0,0,0-8.736,5.195,46.5,46.5,0,0,0-5.2,5.02c-4.148,4.952-6.15,7.781-7.781,12.505a.7.7,0,0,0-.008.538.686.686,0,0,0,.463.288c.3.076.546.121.736.159.159.038.311.068.379.091a.671.671,0,0,1-.053.106c-.114.227-.311.584-.584,1.077A99.188,99.188,0,0,0,41.4,92.683a53.168,53.168,0,0,0-3.579,13.7c-.6,6.49,1.422,9.356,8.008,8.447,6.783-.936,13.911-5.176,19.469-9.161q.77-.552,1.53-1.118c.2-.146,1.456-.895,1.456-1.1v.485c.03,10.4-.917,26.7-3.693,38.418-.023.114-.061.227-.091.349-.174.6-.379,1.342.311,1.8a4.505,4.505,0,0,0,.819.432c.212.1.5.227.925.432,7.629,3.617,16.448,4.558,23.273,4.967,1.941.121,3.966.159,5.816.159,3.746,0,6.795-.167,6.992-.2.372-.068,1.039-.121,1.956-.189,4.231-.334,13.043-1.024,21.7-5.422.455-.235.971-.5.8-1.137-2.359-9.024-3.329-22.287-3.5-24.851a1.053,1.053,0,0,1-.008-.106c-.265-1.342-.516-10.928-.508-15.152,6.223,4.787,15.961,11.187,23.809,11.574,2.824.139,5.123-.391,6.162-3a10.543,10.543,0,0,0,.612-3.893A32.093,32.093,0,0,0,152.5,100.318ZM114.344,33.835a1.6,1.6,0,0,1-1.615,1.615,1.6,1.6,0,0,1-1.411-.834,1.454,1.454,0,0,1-.2-.637.9.9,0,0,1-.008-.144,1.618,1.618,0,0,1,1.615-1.607,1.432,1.432,0,0,1,.478.076,1.577,1.577,0,0,1,.88.66A1.63,1.63,0,0,1,114.344,33.835Zm.523-7.758a3.289,3.289,0,0,1,.66,2.093,4.852,4.852,0,0,1-1.4,3.412,2.632,2.632,0,0,0-2.942.1,36.931,36.931,0,0,0,.038-5.938,2.467,2.467,0,0,1,.3-.182,3.009,3.009,0,0,1,.857-.288,3.078,3.078,0,0,1,.531-.045A2.407,2.407,0,0,1,114.867,26.077ZM75.873,28.17a3.289,3.289,0,0,1,.66-2.093,2.394,2.394,0,0,1,1.949-.849,2.987,2.987,0,0,1,1.691.516,35.276,35.276,0,0,0,.038,5.938,2.632,2.632,0,0,0-2.942-.1A4.856,4.856,0,0,1,75.873,28.17Zm2.791,7.28a1.61,1.61,0,0,1-1.608-1.615,1.632,1.632,0,0,1,.258-.872,1.559,1.559,0,0,1,.872-.66,1.433,1.433,0,0,1,.478-.076,1.619,1.619,0,0,1,1.32.675,1.661,1.661,0,0,1,.3.933.9.9,0,0,1-.008.144A1.605,1.605,0,0,1,78.664,35.45Zm4.785,3.86a15.849,15.849,0,0,1-1.911-5.445c-.068-.356-.121-.721-.167-1.092a31.711,31.711,0,0,1-.243-6.082c.023-.485.061-.971.106-1.449.023-.258.045-.516.076-.766a5.163,5.163,0,0,0,.758-.69c5.369-5.847,5.991-10.67,6.87-9.252,1.638,2.646,6.272,5.566,9.259,4.4.675-.265,1.373-.88.94-1.646a21.526,21.526,0,0,1-2.093-3.625c-.038-.091-.1-.25-.015-.3.129-.068.356.44.819.834,3.959,3.382,7.113,2.4,9.32,5.544.791,1.124,1.577,3.629,2.92,4.734.015.136.03.279.045.422.015.114.023.227.03.341.045.478.083.963.106,1.449a33.007,33.007,0,0,1-.243,6.082c-.045.372-.1.735-.167,1.092-.045.243-.091.478-.144.713a14.919,14.919,0,0,1-1.767,4.732,18.266,18.266,0,0,1-4.732,5.012c-.326.227-.66.455-1.008.675a13.861,13.861,0,0,1-2.662,1.266,11.518,11.518,0,0,1-3.792.69h-.114a12.632,12.632,0,0,1-6.681-2.108c-.349-.212-.683-.447-1-.683A18.311,18.311,0,0,1,83.449,39.31ZM80.855,52.149a17.251,17.251,0,0,1,3.564-.47c.334-.015.66-.038.978-.061q.842-.068,1.661-.114c-.212,1.2-.455,2.449-.736,3.746a.526.526,0,0,0,.4.622.585.585,0,0,0,.106.015.526.526,0,0,0,.516-.417c.3-1.4.561-2.745.789-4.034l.023-.182a1.384,1.384,0,0,0,.03-.174c.03-.129.045-.258.068-.387.008-.061.023-.121.03-.182a1.356,1.356,0,0,0,.023-.174c.152-.9.273-1.774.372-2.609.076-.645.136-1.221.182-1.721A13.61,13.61,0,0,0,95.643,48h.121a12.425,12.425,0,0,0,3.868-.667,14.9,14.9,0,0,0,2.669-1.191c.053.516.114,1.054.189,1.623.1.758.22,1.562.364,2.427l.023.182a1.178,1.178,0,0,1,.03.174c.03.159.061.318.083.485a1.494,1.494,0,0,1,.03.182,1.364,1.364,0,0,1,.03.174c.189,1.031.4,2.139.652,3.321.045.25.1.5.152.758a.528.528,0,0,0,1.009.068.5.5,0,0,0,.015-.281c-.288-1.365-.531-2.624-.743-3.792,2.207.159,4.186.364,6.014.584.129.023.356.045.4.114.015.023.015.06-.008.121a14.106,14.106,0,0,1-2.351,4.611c-.106.129-.2.25-.311.372a15.965,15.965,0,0,1-14.424,5.521,15.593,15.593,0,0,1-11.989-8.8,12.762,12.762,0,0,1-.63-1.782.161.161,0,0,1-.008-.045C80.84,52.156,80.848,52.149,80.855,52.149ZM48.042,76.969c-.061-.015-.091-.038-.1-.023a.31.31,0,0,1,.023-.091l.136-.372a14.5,14.5,0,0,1,1.608-3.5l.189-.334a49.128,49.128,0,0,1,8.918-10.935,33.688,33.688,0,0,1,13.817-7.765,55.21,55.21,0,0,1,6.908-1.623c.212-.015.212-.015.341.394a15.811,15.811,0,0,0,.569,1.539,16.867,16.867,0,0,0,25.427,6.317,16.376,16.376,0,0,0,3.45-3.5,15.892,15.892,0,0,0,1.79-3.2,10.484,10.484,0,0,0,.394-1.107c.152-.493.152-.493.554-.417a61.139,61.139,0,0,1,6.256,1.441,39.064,39.064,0,0,1,5.831,2.184c6.59,3.087,11.489,8.41,14.439,12.331,3.458,4.6,4.929,8.129,4.861,8.637a2.628,2.628,0,0,1-.326.091c-4.914,1.115-10.526,5.134-15.1,10.791a31.266,31.266,0,0,1-3.989-1.3c.061-.561.106-1.016.144-1.32A118.993,118.993,0,0,1,127.417,68.6c.167-.645.243-.91.25-1.016a.469.469,0,0,0-.326-.5.508.508,0,0,0-.182-.031.462.462,0,0,0-.394.2c-.447.683-2.54,9.548-3.268,15.22-.167,1.266-.318,2.495-.447,3.64q-.535-.227-1.115-.5a62.232,62.232,0,0,1-6.825-3.64,5.642,5.642,0,0,1-2.351-2.745c-.144-.281-.3-.584-.485-.91l-.106-.2a20.627,20.627,0,0,0-2.768-3.807c0-.008.008-.008.008-.015a1.8,1.8,0,0,0,.341-1.2,1.57,1.57,0,0,0-1.5-1.35,3.584,3.584,0,0,0-1.32.2l-.053.015c-.083-.061-.167-.129-.25-.189a1.428,1.428,0,0,0-.243-1.433,2.085,2.085,0,0,0-1.949-.592c-.265.045-.516.091-.751.144a.7.7,0,0,1-.076.015c-2.555-1.266-5.1-1.736-6.2-1.16a1.738,1.738,0,0,0-.91,1.5,3.18,3.18,0,0,0,1.062,2.184c-.592.243-1.2.485-1.812.713-.015.008-.023.008-.038.015-.622-.227-1.244-.474-1.85-.72a3.2,3.2,0,0,0,1.054-2.192,1.738,1.738,0,0,0-.91-1.5c-1.1-.576-3.648-.106-6.2,1.16-.27-.052-.536-.112-.834-.159-1.363-.24-2.63.677-2.192,2.025-.083.06-.167.129-.25.189-1.675-.726-3.719.4-2.533,2.336a.008.008,0,0,0,.008.008,20.652,20.652,0,0,0-2.768,3.807l-.106.2c-.189.334-.341.63-.485.91a5.644,5.644,0,0,1-2.351,2.745,62.279,62.279,0,0,1-6.825,3.64c-.372.174-.721.334-1.062.478-.8-7.037-2.7-16.069-3.678-18.686a.49.49,0,0,0-.47-.334.509.509,0,0,0-.5.637c.258,1.054.478,1.888.683,2.654a103.525,103.525,0,0,1,2.389,11.83c.2,1.206.387,2.738.554,4.33a31.988,31.988,0,0,1-3.981,1.3A32.7,32.7,0,0,0,49.839,77.477a9.757,9.757,0,0,0-1.251-.364C48.406,77.067,48.224,77.014,48.042,76.969ZM107.9,72.821a.807.807,0,0,1,.713.167.537.537,0,0,1,0,.508C108.39,73.276,108.155,73.056,107.9,72.821Zm-8.85.766a11.455,11.455,0,0,1,1.668,1.191,29.324,29.324,0,0,1-3.488-1.046c.455-.174.842-.334,1.213-.5.008,0,.015-.008.023-.008A6.09,6.09,0,0,0,99.048,73.587Zm-6.294-1.6c-.849-.364-1.661-.743-2.419-1.115a10.8,10.8,0,0,0-1.008-.463c2.442-.963,4.1-.887,4.368-.561.3.372.091,1.062-.265,1.479a6.186,6.186,0,0,1-.645.675ZM64.141,105.232q-.978.682-1.979,1.342c-.372.25-.8.531-1.289.834-.91.569-1.994,1.221-3.193,1.888-.008,0-.015.008-.023.015a43.614,43.614,0,0,1-9.183,3.928c-2.333.659-6.524,1.351-8.289-.3-1.464-1.373-1.767-4.391-.917-9.221a49.5,49.5,0,0,1,1.593-6.3A96.409,96.409,0,0,1,48.641,79.76l.326-.6c.3-.554.379-.683.493-.683a.321.321,0,0,1,.106.031c4.36,1.539,9.017,5.195,12.687,9.6l-.379.091c-.538.129-1.1.258-1.706.417-8.865,2.252-14.537,5.544-15.3,6.469a.515.515,0,0,0-.091.485.487.487,0,0,0,.759.265c.129-.091.265-.182.417-.288a27.246,27.246,0,0,1,5.763-3.064c.22-.091.455-.189.7-.281a56.671,56.671,0,0,1,7.8-2.533q.751-.182,1.456-.341c.447-.106.88-.2,1.32-.318.373-.085.742-.18,1.107-.288a30.036,30.036,0,0,0,3.4-1.13c.342-.133.681-.277,1.024-.417,1.486-.63,3.253-1.471,5.453-2.639,4.322-2.283,4.709-3.049,5.551-4.732a19.415,19.415,0,0,1,2.017-3.3c.364-.485.743-.948,1.145-1.388.045.038.091.084.136.121.091.091.174.167.243.235.008.008.038.045.068.083l-.136.015a1.442,1.442,0,0,0-1.206.933,1.522,1.522,0,0,0-.1.554,2.05,2.05,0,0,0,.561,1.357,12.8,12.8,0,0,0,2.313,1.994c.781.538,1.32.872,1.676,1.1.061.038.121.068.174.106h-.023a1.609,1.609,0,0,0-1.289.819c-.933,1.752,2.593,4.284,3,4.565a24.679,24.679,0,0,0,5.809,2.867,63.156,63.156,0,0,1-10.753,1.9c-1.145.129-1.873.136-2.359.152a2,2,0,0,0-1.919.8c-.121.121-.258.258-.417.425-.645.667-1.736,1.79-3.693,3.549-1.888,1.7-3.678,3.231-5.437,4.641a1.365,1.365,0,0,1-.174.136c-.061.053-.114.1-.174.144l-.318.25c-.053.045-.114.091-.167.136s-.114.083-.174.136C66.932,103.222,65.552,104.246,64.141,105.232Zm60.667,32.624c.432,2.54.781,3.936.993,4.77.243.978.243.978-.083,1.153l-.053.023c-13.46,6.916-33.852,5.7-39.782,5.172-8.319-.758-14.75-2.4-20.225-5.195l-.061-.031c-.227-.106-.227-.106.008-1.062a118.508,118.508,0,0,0,2.313-13.574,215.575,215.575,0,0,0,1.426-26.489c1.464-1.145,2.95-2.381,4.474-3.686a62.276,62.276,0,0,0,5.028-4.763,7.657,7.657,0,0,1,1.008-.971,1.172,1.172,0,0,1,.63-.2,66.445,66.445,0,0,0,15.227-2.54,66.275,66.275,0,0,0,15.2,2.54,1.152,1.152,0,0,1,.63.2,7.618,7.618,0,0,1,1.008.971,62.219,62.219,0,0,0,5.028,4.763q2.252,1.934,4.421,3.64c-.152,6.029.372,14.295.576,17.51C122.769,123.03,123.542,130.455,124.809,137.856Zm18.3-24.566a30.8,30.8,0,0,1-4.946-1.759c-1.409-.626-2.785-1.326-4.136-2.068-1.585-.864-2.973-1.714-4.05-2.412a.157.157,0,0,1-.045-.031c-.243-.152-.478-.3-.69-.447-.872-.576-1.729-1.16-2.578-1.767-1.2-.842-2.381-1.729-3.572-2.654-.053-.045-.106-.083-.159-.129a1.378,1.378,0,0,1-.174-.136c-.129-.1-.25-.2-.379-.3-.061-.038-.114-.083-.174-.129s-.114-.091-.167-.136c-1.752-1.411-3.534-2.935-5.415-4.626-1.956-1.759-3.041-2.882-3.693-3.549-.159-.159-.3-.3-.417-.425a2,2,0,0,0-1.919-.8c-.485-.015-1.213-.023-2.359-.152a63.323,63.323,0,0,1-10.753-1.9c-.611-.149-1.23-.351-1.835-.538-.561-.182-1.137-.387-1.767-.614C88.8,86.88,86.4,84.484,86.02,83.324a.54.54,0,0,1-.008-.425c.167-.243.986-.614,5.043,1.145.493.212.993.455,1.471.683a23.785,23.785,0,0,0,2.829,1.2.5.5,0,0,0,.326-.955c-.212-.114-.576-.265-1.077-.478A62.657,62.657,0,0,1,87.142,80.8c-3.8-2.2-4.542-3.5-4.383-3.921.091-.243.531-.318,1.122-.2,1.987.4,4.959,1.911,7.834,3.359,1.2.607,2.321,1.175,3.382,1.676a.511.511,0,1,0,.478-.9c-.212-.129-.743-.387-1.357-.683s-1.282-.622-1.782-.887C90.129,78,88.726,77.386,87.6,76.885a23.486,23.486,0,0,1-2.139-1.039A9.628,9.628,0,0,1,83.4,74.352a.873.873,0,0,1-.114-.129,2.2,2.2,0,0,1-.463-.637c-.495-1.053.907-.781,1.5-.576.131.047.281.084.41.136a20.854,20.854,0,0,1,3.746,1.934c.469.278,1.062.634,1.532.91a45.227,45.227,0,0,0,4.391,2.237c.127.061.241.1.379.167.494.21.97.411,1.479.607.923.441,1.356-.653.364-.993-.008,0-.015-.007-.023-.007-.3-.139-.623-.264-.933-.4-.948-.4-2.245-.978-4.065-1.941-.426-.2-.851-.461-1.274-.675-.233-.152-.493-.272-.728-.417a1.313,1.313,0,0,0-.129-.083c-.667-.394-1.312-.819-1.911-1.244-.061-.045-.144-.1-.227-.159a7.609,7.609,0,0,1-1.206-.971,1.017,1.017,0,0,1-.341-.88c.236-.633,1.091-.438,1.653-.318.086.008.161.042.258.061.015.008.03.008.045.015.061.015.129.038.2.06a30.561,30.561,0,0,1,3.587,1.524c.177.088.43.2.607.288.008.008.023.008.03.015.191.1.368.167.546.25.008.008.023.008.03.015.826.373,1.8.738,2.692,1.069.083.03.182.064.265.091.91.326,1.85.637,2.76.933a14.609,14.609,0,0,0,2.912.758,14.273,14.273,0,0,0,2.169.174c.03,0,.955-.008,1.16-.417a.448.448,0,0,0-.091-.485.809.809,0,0,0-.781-.174,2,2,0,0,1-2.017-.705,9.11,9.11,0,0,0-2.207-1.691c-.15-.079-.332-.193-.485-.288a.316.316,0,0,0-.053-.038,2.8,2.8,0,0,1-.311-.243c-.056-.031-.1-.089-.152-.121a7.017,7.017,0,0,1-.637-.675c-.356-.417-.561-1.107-.265-1.479.265-.326,1.926-.4,4.36.561a13.581,13.581,0,0,1,1.4.637,17.462,17.462,0,0,1,1.8,1.054c.466.342.952.665,1.4,1.046A17.761,17.761,0,0,1,108,74.353c.231.245.494.491.713.758a17,17,0,0,1,1.153,1.4,19.467,19.467,0,0,1,2.017,3.3c.842,1.684,1.229,2.45,5.551,4.732,2.222,1.175,4,2.025,5.5,2.654.335.155.666.276,1.008.417a31.347,31.347,0,0,0,3.382,1.122c.358.1.723.19,1.084.281.447.114.887.212,1.335.318.463.106.948.22,1.449.341A57.084,57.084,0,0,1,139,92.2c.235.091.47.189.69.281a27.436,27.436,0,0,1,5.763,3.064c.152.106.288.2.417.281a.484.484,0,0,0,.447.076.507.507,0,0,0,.311-.334.515.515,0,0,0-.091-.485c-.758-.925-6.431-4.216-15.3-6.469-.607-.159-1.168-.288-1.706-.417l-.387-.091c3.837-4.618,8.607-8.258,12.6-9.563a1.477,1.477,0,0,1,.265-.068.912.912,0,0,1,.144.2c.326.546.652,1.107.963,1.668,1.327,2.359,2.578,4.884,3.837,7.7a90.781,90.781,0,0,1,3.329,8.455,56.3,56.3,0,0,1,1.608,5.612l.023.091a29.857,29.857,0,0,1,.683,5.475,8.28,8.28,0,0,1-.711,4.394C150.516,114.541,145.826,113.975,143.113,113.29Z" fill="#000e3f"/>
          <path id="Path_504" data-name="Path 504" d="M102.483,28.67h.2a2.931,2.931,0,0,0,2.571-3.132.523.523,0,0,0-1.047,0,1.88,1.88,0,0,1-1.608,2.085c-.728.061-1.653-.417-1.881-1.926a.522.522,0,0,0-1.031.159A2.922,2.922,0,0,0,102.483,28.67Z" fill="#000e3f"/>
          <path id="Path_505" data-name="Path 505" d="M91.707,25.857a.512.512,0,0,0-.432-.592.524.524,0,0,0-.6.432c-.227,1.509-1.153,1.987-1.881,1.926a1.879,1.879,0,0,1-1.608-2.085.518.518,0,0,0-.516-.523.524.524,0,0,0-.523.523,2.926,2.926,0,0,0,2.571,3.132h.189A2.923,2.923,0,0,0,91.707,25.857Z" fill="#000e3f"/>
          <path id="Path_506" data-name="Path 506" d="M95.673,38.279H95.7A4.232,4.232,0,0,0,99.867,34.9a.447.447,0,0,0,0-.174.5.5,0,0,0-.273-.387.331.331,0,0,0-.144-.053.518.518,0,0,0-.607.41A3.185,3.185,0,0,1,95.7,37.24h-.015a3.188,3.188,0,0,1-3.124-2.548.522.522,0,1,0-1.024.2A4.229,4.229,0,0,0,95.673,38.279Z" fill="#000e3f"/>
          <path id="Path_507" data-name="Path 507" d="M100.345,20.662l.076.008a10.209,10.209,0,0,1,1.335.114,6.385,6.385,0,0,1,1.266.349,4.889,4.889,0,0,1,1.122.614,7.955,7.955,0,0,1,1.008.857l.061.045a.57.57,0,0,0,.652.091.581.581,0,0,0,.258-.781,4.482,4.482,0,0,0-1.031-1.388,4.568,4.568,0,0,0-1.509-.9,5.465,5.465,0,0,0-1.691-.341,5.075,5.075,0,0,0-1.7.2.576.576,0,0,0,.152,1.129Z" fill="#000e3f"/>
          <path id="Path_508" data-name="Path 508" d="M86.239,22.6a7.523,7.523,0,0,1,1.016-.857,4.762,4.762,0,0,1,1.122-.614,6.108,6.108,0,0,1,1.266-.349,10.263,10.263,0,0,1,1.335-.114l.076-.008a.576.576,0,0,0,.152-1.13,5.118,5.118,0,0,0-1.706-.2,5.51,5.51,0,0,0-1.691.341,4.544,4.544,0,0,0-1.5.9,4.26,4.26,0,0,0-1.031,1.388.577.577,0,0,0,.091.652.571.571,0,0,0,.819.038Z" fill="#000e3f"/>
          <path id="Path_509" data-name="Path 509" d="M93.042,31.749c.526.933,2.588,1.3,3.109,1.266a.528.528,0,0,0,.243-.986,1.4,1.4,0,0,0-.523-.076h0a3.221,3.221,0,0,1-1.931-.751c-.015-.008-.023-.023-.03-.03a.437.437,0,0,1-.015-.455q.755-1.776,1.505-3.554c.146-.592,1.206-1.911.159-2.112a.524.524,0,0,0-.549.342c-.569,1.342-2.055,4.854-2.078,4.914A1.443,1.443,0,0,0,93,31.666.288.288,0,0,0,93.042,31.749Z" fill="#000e3f"/>
        </g>
        <g id="Group_317" data-name="Group 317">
          <path id="Path_510" data-name="Path 510" d="M91.747,3.176c-2.917,2.63-3.519,7.273-1.387,10.055a.415.415,0,0,0,.73-.357,10.789,10.789,0,0,1-.3-4.689A24.134,24.134,0,0,1,92.36,3.632.39.39,0,0,0,91.747,3.176Z" fill="#322bbf"/>
          <path id="Path_511" data-name="Path 511" d="M94.9,4.249a.387.387,0,0,0-.726-.226c-1.688,3.208-1.665,8.31,1.344,11.278a.411.411,0,0,0,.459.081c.681-.311-.28-1.059-.806-3.073A20.126,20.126,0,0,1,94.9,4.249Z" fill="#322bbf"/>
          <path id="Path_512" data-name="Path 512" d="M98.414,3.809a18.177,18.177,0,0,1,6.442,1.008c6.634,2.59,7.376,9.462,6.851,16.567v0a.408.408,0,0,0,.806.117C115.444,8.053,107.88,1.3,98.333,3.05a.382.382,0,0,0,.081.758Z" fill="#322bbf"/>
          <path id="Path_513" data-name="Path 513" d="M97.52,8.209a.37.37,0,0,1-.088-.024C97.383,8.192,97.405,8.2,97.52,8.209Z" fill="#322bbf"/>
          <path id="Path_514" data-name="Path 514" d="M107.176,16.551a.411.411,0,0,0,.813-.046A8.906,8.906,0,0,0,97.463,7.446a.387.387,0,0,0-.3.352.381.381,0,0,0,.272.388,10.366,10.366,0,0,1,8.562,5.1A11.347,11.347,0,0,1,107.176,16.551Z" fill="#322bbf"/>
          <path id="Path_515" data-name="Path 515" d="M81.052,21.611c-1.554-3.289-2.133-6.654-.809-10.078,1.709-4.681,6.124-7.951,6.459-8.274a.383.383,0,0,0-.422-.637c-7.114,3.847-11.1,12.1-5.929,19.4a.409.409,0,0,0,.7-.411Z" fill="#322bbf"/>
          <path id="Path_516" data-name="Path 516" d="M87.472,5.579a11.378,11.378,0,0,0-2.466,2.694c-3.752,5.558-1.01,10.97-.17,10.776C86.284,18.715,81.71,14.993,88,6.13l.017-.023A.385.385,0,0,0,87.472,5.579Z" fill="#322bbf"/>
          <path id="Path_517" data-name="Path 517" d="M117.954,42.863a7.5,7.5,0,0,0-5.372-4.329.414.414,0,0,0-.257.78A11.454,11.454,0,0,1,114.569,41a7.611,7.611,0,0,1,2.244,5.754c0,.085-.007.17-.01.252a11.552,11.552,0,0,1-.189,1.651c-.05.265-.1.533-.128.806a.439.439,0,0,0,.821.253A7.786,7.786,0,0,0,117.954,42.863Z" fill="#322bbf"/>
          <path id="Path_518" data-name="Path 518" d="M111.37,42.129c-.5-.378-2.369-1.447-2.859-.883a.415.415,0,0,0,.1.577,6.493,6.493,0,0,1,3.25,4.634,15.481,15.481,0,0,1-.169,2.854.44.44,0,0,0,.214.4c.769.495,1.485-2.079,1.526-2.624A5.237,5.237,0,0,0,111.37,42.129Z" fill="#322bbf"/>
          <path id="Path_519" data-name="Path 519" d="M107.764,44.912a3.124,3.124,0,0,0-1.64-.569.425.425,0,0,0-.316.121.437.437,0,0,0,.059.659,4.593,4.593,0,0,1,1.739,4.274.493.493,0,0,0,.177.393c.721.487,1.25-1.095,1.341-1.618A3.256,3.256,0,0,0,107.764,44.912Z" fill="#322bbf"/>
        </g>
      </g>
      <g id="Group_322" data-name="Group 322">
        <g id="Group_321" data-name="Group 321">
          <g id="Group_319" data-name="Group 319">
            <path id="Path_520" data-name="Path 520" d="M12.935,101.648a22.508,22.508,0,0,1,6.274,3.3.718.718,0,0,0,.489.195c.635,0,.871-.769.948-1.022a13.287,13.287,0,0,1,3.639-5.956,9.789,9.789,0,0,0,1.807-2.3,4.316,4.316,0,0,0,.2-4.148,2.164,2.164,0,0,0-1.874-1.063c-1.837,0-3.789,2-5.353,5.5a16.5,16.5,0,0,0-.7,1.908,7.849,7.849,0,0,0-4.873-3.249,4.736,4.736,0,0,0-1.213-.153,3.743,3.743,0,0,0-3.058,1.3,2.577,2.577,0,0,0-.3,2.407C9.548,100.353,11.937,101.324,12.935,101.648Z" fill="#00d5fe"/>
            <path id="Path_521" data-name="Path 521" d="M53.867,130.85a3,3,0,0,0-2.613-1.543c-.085-.005-.169-.007-.252-.007-2.674,0-4.654,2.384-5.431,4.746-1.248,3.8-1.011,9.036-.117,12.8a17.463,17.463,0,0,0-10.8-4.09c-3.436,0-6.289,1.34-7.269,3.413a3.184,3.184,0,0,0-.083,2.53,4.454,4.454,0,0,0,2.365,2.441,4.09,4.09,0,0,0,1.67.358,7.706,7.706,0,0,0,3.427-1.1,14.4,14.4,0,0,1,1.648-.749,8.163,8.163,0,0,1,2.761-.464,23.706,23.706,0,0,1,6,1.148c.933.256,1.9.521,2.954.778a.511.511,0,0,0,.123.015.522.522,0,0,0,.52-.573,28.437,28.437,0,0,1-.129-4.032,17.2,17.2,0,0,1,3.44-8.267c.516-.767,1-1.492,1.411-2.242A5.584,5.584,0,0,0,53.867,130.85Z" fill="#00d5fe"/>
            <path id="Path_522" data-name="Path 522" d="M15.911,89.553c.5.447.954.847,1.31,1.188a.522.522,0,0,0,.36.144h.024a.522.522,0,0,0,.37-.179,57.88,57.88,0,0,0,4.142-5.257c1.9-3.335,1.161-5.323.754-6.024A2.316,2.316,0,0,0,20.9,78.194a2.125,2.125,0,0,0-.8.157,4.374,4.374,0,0,0-2.122,2.582c-.01.023-.586,1.4-.975,2.631a12.84,12.84,0,0,0-1.944-3.232,4.226,4.226,0,0,0-2.874-1.448,2.169,2.169,0,0,0-1.917,1.1C8.459,82.93,12.944,86.916,15.911,89.553Z" fill="#00d5fe"/>
            <path id="Path_523" data-name="Path 523" d="M34.668,139.744a23.919,23.919,0,0,1,3.58.287l.115.018a5.211,5.211,0,0,0,.751.081c1.118,0,1.138-1.051,1.145-1.447a7.842,7.842,0,0,0-.213-1.673,9.745,9.745,0,0,1-.177-1.085c-.431-5.229,1.3-6.9,2.827-8.366a9.059,9.059,0,0,0,1.46-1.651,3.566,3.566,0,0,0-.319-4.449,3.341,3.341,0,0,0-2.365-.97c-2.864,0-6.056,3.446-6.057,8.392a21.139,21.139,0,0,0,1.2,7.193,16.675,16.675,0,0,0-8.741-2.668c-.374,0-.757.015-1.138.044-1.746.133-4.139.649-5.622,2.354a2.738,2.738,0,0,0-.536,2.892,4.428,4.428,0,0,0,3.611,2.594,8.107,8.107,0,0,0,.956.057,13.266,13.266,0,0,0,3.7-.675A19.572,19.572,0,0,1,34.668,139.744Z" fill="#00d5fe"/>
            <path id="Path_524" data-name="Path 524" d="M28.637,129.856c1.74-.111,1.95-.886,2.268-2.058a13.143,13.143,0,0,1,1.659-3.864c.349-.565.8-1.171,1.284-1.813,1.8-2.4,4.036-5.381,1.987-8.385a3.855,3.855,0,0,0-3.065-1.675,3.594,3.594,0,0,0-2.636,1.2c-1.488,1.6-2.484,3.364-2.854,7.216a13.61,13.61,0,0,0,.52,5.494,16.937,16.937,0,0,0-6.865-1.39,12.191,12.191,0,0,0-6.115,1.348,3.642,3.642,0,0,0-1.674,4.1,3.747,3.747,0,0,0,3.756,2.576h0a6.92,6.92,0,0,0,2.985-.759,19.322,19.322,0,0,1,8.14-1.956C28.24,129.88,28.444,129.869,28.637,129.856Z" fill="#00d5fe"/>
            <path id="Path_525" data-name="Path 525" d="M21.4,117.791c.212.049.411.1.6.151a4.694,4.694,0,0,0,1.162.215h0c1.168,0,1.42-1.153,1.5-1.532a22.806,22.806,0,0,1,2.892-7.755c.157-.246.322-.492.487-.739a8.077,8.077,0,0,0,1.8-4.35,2.756,2.756,0,0,0-.765-2,2.814,2.814,0,0,0-2.048-.8h0a5.036,5.036,0,0,0-3.668,2.321,13.175,13.175,0,0,0-2.163,9.717,18.346,18.346,0,0,0-8.552-4.781,9.122,9.122,0,0,0-1.941-.227c-1.792,0-3,.662-3.485,1.915a3.329,3.329,0,0,0,.123,2.772,5.818,5.818,0,0,0,3.611,2.708c2.3.629,4.671,1.137,6.967,1.628C19.079,117.278,20.242,117.527,21.4,117.791Z" fill="#00d5fe"/>
          </g>
          <g id="Group_320" data-name="Group 320" opacity="0.45">
            <path id="Path_526" data-name="Path 526" d="M19.317,86.2a11.682,11.682,0,0,0,1.267-2.31,11.854,11.854,0,0,0,.915-2.479.473.473,0,0,0-.7-.512,5.5,5.5,0,0,0-2.343,3.609C18.062,86.591,18.992,86.641,19.317,86.2Z" fill="#322bbf"/>
            <path id="Path_527" data-name="Path 527" d="M13.42,83.589c1.565,2.127,1.613,2.211,1.9,2.235.8.066.577-1.238.308-1.99-.765-2.222-3.1-3.331-3.64-2.976a.469.469,0,0,0-.132.65C11.825,81.455,12.026,81.783,13.42,83.589Z" fill="#322bbf"/>
            <path id="Path_528" data-name="Path 528" d="M11.065,98.386c-.073-.033,5.461,2.178,5.623,2.233.531.18,1.33-.527-.607-2-2.131-1.651-4.994-1.42-5.249-.846A.462.462,0,0,0,11.065,98.386Z" fill="#322bbf"/>
            <path id="Path_529" data-name="Path 529" d="M21.266,99.742c.036-.05.48-.669,1.973-2.962-.031.063,1.974-2.881,2.014-2.945a.456.456,0,0,0-.564-.658,7.711,7.711,0,0,0-4.295,6.266A.484.484,0,0,0,21.266,99.742Z" fill="#322bbf"/>
            <path id="Path_530" data-name="Path 530" d="M21.266,99.742Z" fill="#322bbf"/>
            <path id="Path_531" data-name="Path 531" d="M41,122.676c-4.842,3.3-4.338,10.636-3.1,10.746,1.346.121-.676-2.951,3.73-10.147A.444.444,0,0,0,41,122.676Z" fill="#322bbf"/>
            <path id="Path_532" data-name="Path 532" d="M51.333,131.638a10.97,10.97,0,0,0-4.557,10.684.472.472,0,0,0,.925.006,23.6,23.6,0,0,1,2.727-7.715c.476-.821.991-1.583,1.514-2.354A.444.444,0,0,0,51.333,131.638Z" fill="#322bbf"/>
            <path id="Path_533" data-name="Path 533" d="M40.4,145.985a12.177,12.177,0,0,0-11.479,1.653.445.445,0,0,0-.148.465c.313,1.121,1.675-1.126,11.454-1.211A.472.472,0,0,0,40.4,145.985Z" fill="#322bbf"/>
            <path id="Path_534" data-name="Path 534" d="M33.389,137.437a.476.476,0,0,0,.272-.883c-4.239-2.527-10.114.3-9.824,1.421S25.408,136.965,33.389,137.437Z" fill="#322bbf"/>
            <path id="Path_535" data-name="Path 535" d="M24.8,105.461a7.039,7.039,0,0,0-1.594,6.41.48.48,0,0,0,.923-.019c-.016.062.339-1.372.5-1.938a22.438,22.438,0,0,1,2.531-5.2C27.466,104.229,26.8,103.2,24.8,105.461Z" fill="#322bbf"/>
            <path id="Path_536" data-name="Path 536" d="M30.491,123.262a17.688,17.688,0,0,1,2.1-5.958c.387-.648.8-1.241,1.207-1.825a.448.448,0,0,0-.568-.655,7.576,7.576,0,0,0-3.659,8.481A.477.477,0,0,0,30.491,123.262Z" fill="#322bbf"/>
            <path id="Path_537" data-name="Path 537" d="M25.862,127.224a11.3,11.3,0,0,0-10.657,1.866.445.445,0,0,0,.416.764l.005,0a32.886,32.886,0,0,1,10.092-1.715A.474.474,0,0,0,25.862,127.224Z" fill="#322bbf"/>
            <path id="Path_538" data-name="Path 538" d="M18.8,114.714a.476.476,0,0,0,.562-.736,9.3,9.3,0,0,0-9.307-2.686.448.448,0,0,0-.3.35c-.169,1,1.563.107,6.928,2.176C17.385,114.095,18.075,114.4,18.8,114.714Z" fill="#322bbf"/>
          </g>
        </g>
        <path id="Path_539" data-name="Path 539" d="M52.509,138.544c.523-.778,1.017-1.512,1.436-2.284a6.107,6.107,0,0,0,.378-5.664,3.564,3.564,0,0,0-3.039-1.81c-.095-.006-.189-.008-.282-.008-2.935,0-5.091,2.564-5.927,5.105a24.869,24.869,0,0,0-.6,10.481c-1.28-1.566-2.6-3.085-3.931-4.556a2.756,2.756,0,0,0,.241-1.116,8.222,8.222,0,0,0-.223-1.785,9.416,9.416,0,0,1-.169-1.026c-.411-4.982,1.155-6.489,2.669-7.947a9.59,9.59,0,0,0,1.54-1.748,4.089,4.089,0,0,0-.4-5.1,3.854,3.854,0,0,0-2.729-1.117,5.959,5.959,0,0,0-4.552,2.59,10.389,10.389,0,0,0-2.027,6.323,22.373,22.373,0,0,0,.731,5.728q-.762-.781-1.515-1.543a42.335,42.335,0,0,1-3.249-3.731,4.787,4.787,0,0,0,.548-1.4,12.684,12.684,0,0,1,1.6-3.726c.336-.545.784-1.142,1.258-1.774,1.8-2.4,4.26-5.68,2.012-8.977l-.023-.032a4.37,4.37,0,0,0-3.485-1.887,4.11,4.11,0,0,0-3.018,1.366c-1.519,1.632-2.609,3.536-2.991,7.521a15.465,15.465,0,0,0-.039,2.636q-1.285-2.293-2.4-4.775a2.607,2.607,0,0,0,.842-1.549,22.328,22.328,0,0,1,2.822-7.586c.155-.243.317-.485.48-.729a8.6,8.6,0,0,0,1.887-4.633,3.272,3.272,0,0,0-.915-2.375,3.306,3.306,0,0,0-2.385-.96h-.04a5.535,5.535,0,0,0-4.08,2.529,12.553,12.553,0,0,0-2.165,5.13q-.332-1.254-.623-2.534a1.825,1.825,0,0,0,1-1.3,12.838,12.838,0,0,1,3.517-5.749,10.176,10.176,0,0,0,1.9-2.422,4.824,4.824,0,0,0,.181-4.658,2.676,2.676,0,0,0-2.319-1.312c-2.052,0-4.177,2.115-5.83,5.8l-.013.03c-.161-1.583-.282-3.182-.353-4.8a26.052,26.052,0,0,0,1.907-2.211,28.941,28.941,0,0,0,2.44-3.254c2.036-3.57,1.2-5.766.752-6.544A2.831,2.831,0,0,0,20.9,77.674a2.641,2.641,0,0,0-.991.195A4.822,4.822,0,0,0,17.5,80.732c-.1.24-.33.832-.567,1.485a10.718,10.718,0,0,0-1.48-2.23,4.722,4.722,0,0,0-3.264-1.623A2.7,2.7,0,0,0,9.83,79.713c-2.044,3.317,2.638,7.478,5.736,10.231.509.453.949.844,1.3,1.175a1.046,1.046,0,0,0,.327.211q.115,2.529.378,5.007a9.342,9.342,0,0,0-3.938-2.03,5.253,5.253,0,0,0-1.347-.171A4.26,4.26,0,0,0,8.8,95.653a3.08,3.08,0,0,0-.378,2.872c.7,2.216,3.274,3.27,4.349,3.62a21.961,21.961,0,0,1,6.1,3.209,1.278,1.278,0,0,0,.185.135c.424,1.9.908,3.757,1.463,5.568,0,.219,0,.434.008.658a18.536,18.536,0,0,0-7.779-3.989,9.667,9.667,0,0,0-2.056-.24c-2,0-3.407.8-3.971,2.247a3.838,3.838,0,0,0,.143,3.2,6.352,6.352,0,0,0,3.939,2.976c2.313.633,4.7,1.143,7,1.636,1.141.244,2.321.5,3.47.759.206.047.4.1.578.147a5.117,5.117,0,0,0,1.3.233c.065,0,.134-.006.2-.013a58.223,58.223,0,0,0,3.247,6.295,18.03,18.03,0,0,0-5.669-.9,12.529,12.529,0,0,0-6.4,1.432,4.154,4.154,0,0,0-1.89,4.69A4.257,4.257,0,0,0,16.9,133.13a7.426,7.426,0,0,0,3.212-.811,18.853,18.853,0,0,1,7.941-1.906c.215-.011.42-.023.615-.035a3.508,3.508,0,0,0,1.41-.349,43.27,43.27,0,0,0,3.288,3.771l.172.175a15.517,15.517,0,0,0-5.661-1.091c-.387,0-.784.015-1.178.045-1.844.14-4.377.693-5.976,2.532a3.28,3.28,0,0,0-.629,3.423,4.961,4.961,0,0,0,4.036,2.925,8.682,8.682,0,0,0,1.017.06A13.681,13.681,0,0,0,29,141.175a19.115,19.115,0,0,1,5.673-.908,23.4,23.4,0,0,1,3.5.281l.114.017a5.629,5.629,0,0,0,.83.087,1.76,1.76,0,0,0,.664-.127c1.283,1.416,2.552,2.875,3.785,4.378a17.282,17.282,0,0,0-8.914-2.665c-3.637,0-6.675,1.457-7.74,3.712a3.7,3.7,0,0,0-.1,2.937,4.982,4.982,0,0,0,2.644,2.736,4.661,4.661,0,0,0,1.88.4A8.1,8.1,0,0,0,35,150.864a13.748,13.748,0,0,1,1.586-.722,7.641,7.641,0,0,1,2.586-.434,23.369,23.369,0,0,1,5.859,1.129c.937.257,1.906.523,2.97.782a.9.9,0,0,0,.525-.02,57.108,57.108,0,0,1,3.538,6.111.522.522,0,1,0,.936-.462,58.489,58.489,0,0,0-3.736-6.429,1.033,1.033,0,0,0,.023-.316,26.72,26.72,0,0,1-.129-3.924A16.757,16.757,0,0,1,52.509,138.544ZM27.028,101.5h.03a2.166,2.166,0,0,1,2.257,2.275c-.029,1.861-1.251,3.321-2.2,4.817a23.327,23.327,0,0,0-2.961,7.924,2.276,2.276,0,0,1-.269.73,66.692,66.692,0,0,1-2.326-6.388C21.548,105.529,24.583,101.526,27.028,101.5Zm-7.484-5.133c1.694-3.781,3.553-5.187,4.877-5.187,1.6,0,2.42,2.061,1.207,4.454-1.154,2.275-3.906,3.2-5.48,8.338a1.615,1.615,0,0,1-.242.527q-.646-3.037-1.057-6.2A16.2,16.2,0,0,1,19.544,96.367ZM10.717,80.26a1.657,1.657,0,0,1,1.472-.853,3.689,3.689,0,0,1,2.484,1.273,18.564,18.564,0,0,1,2.5,4.487c-.143-.3,1.053-3.465,1.291-4.03a3.951,3.951,0,0,1,1.836-2.3,1.6,1.6,0,0,1,.6-.119c1.606,0,3.019,2.524.766,6.474a46.012,46.012,0,0,1-3.494,4.486c-.024-.918-.045-1.838-.04-2.764a.522.522,0,0,0-.519-.525h0a.522.522,0,0,0-.522.519c-.006,1.018.015,2.029.044,3.038C14.518,87.566,8.954,83.121,10.717,80.26Zm2.38,20.892c-1.488-.484-3.206-1.448-3.676-2.941-.647-2.052,1.141-3.03,2.861-3.03a4.24,4.24,0,0,1,1.079.136,7.491,7.491,0,0,1,4.41,2.805c.253,1.988.565,3.949.954,5.868A22.5,22.5,0,0,0,13.1,101.152Zm8.417,16.13c-3.465-.793-7-1.446-10.429-2.384-2.046-.56-4.3-2.436-3.385-4.787.476-1.225,1.741-1.582,3-1.582a8.558,8.558,0,0,1,1.827.214,17.94,17.94,0,0,1,9.023,5.4c.423,1.182.878,2.335,1.357,3.467C22.524,117.558,22.065,117.408,21.514,117.282Zm6.287,3.244c.364-3.8,1.359-5.451,2.716-6.91a3.073,3.073,0,0,1,2.253-1.033,3.308,3.308,0,0,1,2.645,1.463c2.326,3.413-1.615,6.886-3.3,9.615a16.826,16.826,0,0,0-1.952,4.758c-.671-.907-1.313-1.853-1.933-2.828A13.035,13.035,0,0,1,27.8,120.526Zm.8,8.809a20.765,20.765,0,0,0-8.943,2.042,6.388,6.388,0,0,1-2.758.707c-3.447,0-4.613-3.886-1.8-5.719a11.647,11.647,0,0,1,5.831-1.263,16.454,16.454,0,0,1,6.594,1.325c.612.949,1.243,1.872,1.9,2.757A2.979,2.979,0,0,1,28.6,129.336Zm7.334-.455c0-4.672,2.983-7.87,5.535-7.87a2.816,2.816,0,0,1,2,.823,3.077,3.077,0,0,1,.24,3.8c-1.432,2.27-4.97,3.023-4.366,10.338.073.879.4,1.831.388,2.705,0,.09-.006.172-.013.247q-1.225-1.329-2.451-2.606A20.385,20.385,0,0,1,35.938,128.88Zm2.387,10.634a24.555,24.555,0,0,0-3.656-.293c-4.644,0-6.679,1.6-9.52,1.6a7.621,7.621,0,0,1-.895-.053c-2.437-.288-4.38-2.742-2.742-4.625a7.715,7.715,0,0,1,5.267-2.176c.362-.027.729-.042,1.1-.042a15.79,15.79,0,0,1,7.777,2.21c1.085,1.12,2.179,2.272,3.269,3.455C38.753,139.577,38.562,139.55,38.325,139.515Zm.844,9.148a8.667,8.667,0,0,0-2.934.493c-1.662.587-3.179,1.823-4.9,1.823a3.594,3.594,0,0,1-1.461-.314c-1.606-.7-2.821-2.572-2.019-4.271.859-1.817,3.451-3.115,6.8-3.114a17.482,17.482,0,0,1,11.319,4.684q.929,1.239,1.8,2.517C44.324,149.615,41.689,148.663,39.169,148.663Zm8.965.509q-1.128-1.6-2.33-3.137a25.027,25.027,0,0,1,.262-11.825c.745-2.266,2.594-4.387,4.935-4.387q.111,0,.222.006c2.866.164,3.174,3.412,1.8,5.934-1.527,2.809-4.343,5.459-4.911,10.7A18.772,18.772,0,0,0,48.134,149.172Z" fill="#000e3f"/>
      </g>
      <g id="Group_323" data-name="Group 323">
        <path id="Path_540" data-name="Path 540" d="M35.209,73.006A10.4,10.4,0,0,0,32.6,71.78l-.017.006-.011.023A8.6,8.6,0,0,0,31.506,74.2a.043.043,0,0,1,0,.029c-.006.012-.006.012.006.018l.012,0c.559.192.711.348,1.235.523.127-.122.3-.675.424-.843.078-.076.577.243.687.337a.658.658,0,0,1,.247.553,1.689,1.689,0,0,1-.232.765.882.882,0,0,1-.229.216,1.667,1.667,0,0,1-1.207-.1,12.21,12.21,0,0,1-3.245-1.736,1.167,1.167,0,0,1-.252-.273c-.1-.272.068-.5.2-.765.211-.45.972-.389,1.328-.335a7.626,7.626,0,0,0,.544-1.069c.1-.248.157-.335.127-.392l-.064-.044c-1.779-1.1-3.317-.05-3.907,1.774a2.335,2.335,0,0,0-.1,1.321A2.045,2.045,0,0,0,28.1,75.486a12.181,12.181,0,0,0,1.458.826,19.219,19.219,0,0,0,2.7,1.127,6.979,6.979,0,0,0,.873.241A2.05,2.05,0,0,0,35,77.235a4.276,4.276,0,0,0,1.069-2.487A1.671,1.671,0,0,0,35.209,73.006Z" fill="#000e3f"/>
        <path id="Path_541" data-name="Path 541" d="M35.729,67.77l-.01-.007.006-.011.028-.044a1.925,1.925,0,0,0-.047-2,2.73,2.73,0,0,0-4.658-.285A12.752,12.752,0,0,0,29.4,68.357c.791.351,7.631,4.625,7.577,4.711a9.113,9.113,0,0,0,1.073-1.949A22.692,22.692,0,0,1,35.384,69.5h.046a15.428,15.428,0,0,1,3.655.222l.007-.01c.451-.615.788-1.286,1.108-1.791A27.057,27.057,0,0,0,35.729,67.77Zm-1.766-.337a5.428,5.428,0,0,1-.693,1.088l-.007.011c-.357-.151-.971-.588-1.358-.788.117-.636.4-1.2.889-1.325C33.358,66.217,34.193,66.809,33.963,67.433Z" fill="#000e3f"/>
        <path id="Path_542" data-name="Path 542" d="M40.2,67.921l.006-.011-.006.011Z" fill="#000e3f"/>
        <path id="Path_543" data-name="Path 543" d="M39.953,61.03c-.8-.368-3.581-1.681-4.2-1.971-.614.946-.8,1.058-.921,1.273a84.27,84.27,0,0,0,5.793,7.042c.018,0,.018,0,.026-.012.708-.921,1.058-1.262,1.115-1.4.008-.01.006-.028.014-.038-.26-.578-1.049-1.247-1.328-1.759a3.312,3.312,0,0,1,.5-.614c.533.127,1.449.636,2.006.815l.007-.01a4.569,4.569,0,0,0,1.1-1.312l-.01-.008Zm-.738,2.278c-1.835-1.9-3.192-3.063.584-.742C39.6,62.818,39.407,63.086,39.215,63.309Z" fill="#000e3f"/>
        <path id="Path_544" data-name="Path 544" d="M46.023,60.762c-4.214-3.651-4.915-4.264-5.061-4.463-.01-.009-.011-.027-.02-.035l.009-.01.016-.019a7.458,7.458,0,0,1,1.041-1.157,10.354,10.354,0,0,0-1.436-1.359,47.309,47.309,0,0,0-3.685,3.927c.01.009.019,0,.028.007a8.669,8.669,0,0,0,1.523,1.3c.184-.109.721-.879,1.137-1.037h.018c3.674,3.029,4.976,4.405,5.116,4.479.334-.523.99-1.083,1.332-1.615l-.01-.009Z" fill="#000e3f"/>
        <path id="Path_545" data-name="Path 545" d="M50.276,54.29l-.018-.019c-.814.829-1.651,1.486-2.464,2.261h-.018a6.657,6.657,0,0,1-1.1-1.155c.033-.225.74-.7,1.021-1.167a13.6,13.6,0,0,0-1.242-1.266l-.009-.01c-.388.352-.767.731-1.163,1.056h-.018a7.259,7.259,0,0,1-1.039-1.072V52.9l.028-.026a26.387,26.387,0,0,0,2.316-2.418l-.009-.01a12.257,12.257,0,0,0-1.251-1.312c-.053-.055-2.411,2.262-3.772,3.7,1.9,2.23,3.97,4.185,6.013,6.328,1.289-1.034,2.54-2.4,3.805-3.591A5.181,5.181,0,0,0,50.276,54.29Z" fill="#000e3f"/>
        <path id="Path_546" data-name="Path 546" d="M51.758,51.211c.34-.391.8-.779,1.148-1.178.02-.016.023-.034.014-.044-.436-.436-1.107-1.468-1.348-1.6A8.437,8.437,0,0,1,50.324,49.4c-.01.009-.01.009-.028.006a1.316,1.316,0,0,1-.743-.876c.759-.746,1.845-1.676,2.519-2.3-.243-.361-.908-1.12-1.189-1.467a21.123,21.123,0,0,0-4.415,3.612l.008.01c2.5,3.083,3.476,4.328,5.42,6.728l.019,0a11.449,11.449,0,0,0,1.725-1.4c-.6-.761-1.284-1.6-1.89-2.493Z" fill="#000e3f"/>
        <path id="Path_547" data-name="Path 547" d="M56.376,41.2c-.474.028-1.195.716-1.565,1.012,1.066,1.666,2.3,3.437,3.365,5.178a.812.812,0,0,1-1.264.932A51.53,51.53,0,0,1,53.308,43.2l-.006-.011a7.723,7.723,0,0,0-1.527.955l-.01.007.017,0c1.29,1.838,2.5,3.79,3.761,5.649.932,1.264,2.74.8,3.856-.129a2.261,2.261,0,0,0,.553-2.916A42.476,42.476,0,0,0,56.376,41.2Z" fill="#000e3f"/>
        <path id="Path_548" data-name="Path 548" d="M65.636,43.908a2.122,2.122,0,0,0-.122-.253c-.335.24-2.7,1.263-2.94,1.511l-.007-.011c-1.014-1.946-2.309-4.089-3.306-6.059a4.122,4.122,0,0,0-1.812.942c1.757,3.125,2.453,4.272,4.146,7.708l.109.2c3.64-1.905,4.09-2.28,4.422-2.418.314-.171.378-.133-.264-1.179A3.437,3.437,0,0,1,65.636,43.908Z" fill="#000e3f"/>
        <path id="Path_549" data-name="Path 549" d="M67.682,43.182a4.84,4.84,0,0,0-1.411.657l.006.011c.192.431.467,1.426.572,1.379l.869-.4.023-.01c.175-.078.262-.1.448-.186l.081-.036C68.068,44.14,67.862,43.618,67.682,43.182Z" fill="#000e3f"/>
        <path id="Path_550" data-name="Path 550" d="M65.913,43.286c.449-.214,1.09-.5,1.477-.729-.982-1.951-1.906-4.15-2.759-6.158a4.611,4.611,0,0,0-1.423.662l-.035.016c.817,2.177,1.849,4.147,2.729,6.213Z" fill="#000e3f"/>
        <path id="Path_551" data-name="Path 551" d="M24.226,59.288c.19-.483.49-1,.686-1.494.014-.022.01-.04,0-.047-.556-.264-1.537-1.01-1.807-1.056a8.5,8.5,0,0,1-.837,1.373c-.007.011-.007.011-.024.015a1.315,1.315,0,0,1-.994-.576c.464-.958,1.175-2.2,1.6-3.016-.351-.258-1.231-.75-1.613-.983a21.084,21.084,0,0,0-2.946,4.885l.01.006c3.389,2.066,4.727,2.911,7.365,4.518l.018,0a11.38,11.38,0,0,0,1.156-1.9c-.821-.516-1.748-1.08-2.617-1.715Z" fill="#000e3f"/>
        <path id="Path_552" data-name="Path 552" d="M32.046,53.5a5.2,5.2,0,0,0-1.273-1.087l-.02-.015c-.668.95-1.387,1.736-2.062,2.632l-.018,0a6.623,6.623,0,0,1-1.274-.96c0-.227.615-.815.817-1.318A13.478,13.478,0,0,0,26.782,51.7l-.01-.007c-.325.41-.638.846-.975,1.231l-.018,0a7.262,7.262,0,0,1-1.2-.888l0-.018.022-.031a26.225,26.225,0,0,0,1.89-2.762l-.01-.008a12.208,12.208,0,0,0-1.447-1.09c-.061-.047-2.009,2.624-3.118,4.265,2.235,1.891,4.6,3.48,6.964,5.261C29.981,56.429,30.992,54.874,32.046,53.5Z" fill="#000e3f"/>
        <path id="Path_553" data-name="Path 553" d="M36.077,48.961A5.206,5.206,0,0,0,34.9,47.769l-.019-.017c-.747.889-1.531,1.609-2.28,2.445h-.018A6.649,6.649,0,0,1,31.4,49.131c.015-.227.682-.759.927-1.242a13.5,13.5,0,0,0-1.337-1.166l-.01-.009c-.359.381-.707.788-1.076,1.142h-.019a7.264,7.264,0,0,1-1.119-.988v-.018l.025-.028a26.147,26.147,0,0,0,2.119-2.59l-.009-.009a12.321,12.321,0,0,0-1.348-1.21c-.057-.051-2.226,2.443-3.472,3.982,2.064,2.075,4.282,3.862,6.486,5.839C33.768,51.705,34.909,50.244,36.077,48.961Z" fill="#000e3f"/>
        <path id="Path_554" data-name="Path 554" d="M36.622,48.478c3.019-2.789,3.355-3.268,3.64-3.487.259-.246.33-.227-.561-1.07a3.234,3.234,0,0,1-.334-.369,2.049,2.049,0,0,0-.185-.212c-.26.319-2.275,1.923-2.446,2.225l-.009-.009c-1.487-1.615-3.3-3.348-4.773-4.99a4.127,4.127,0,0,0-1.505,1.382c2.512,2.56,3.482,3.486,6.013,6.364Z" fill="#000e3f"/>
        <path id="Path_555" data-name="Path 555" d="M40.921,44.516c.206-.309,1.665-1.2,1.7-1.59-2-2.1-3.832-4.533-5.725-6.76l-.033-.039-.233.2c-.576.505-.852.691-1.095.88-.087.074-.355.252-.415.319l.016.02C36.75,39.92,39.115,42.015,40.921,44.516Z" fill="#000e3f"/>
        <path id="Path_556" data-name="Path 556" d="M42.608,41.8l.536.715c.317-.237.7-.428,1.026-.673a2.127,2.127,0,0,0,.411-.387c-.186-.228-.408-.523-.645-.841-.856-1.144-1.912-2.617-1.871-2.647s.2.092.362.207l.331.229c.968.631,2.148,1.229,3.355,1.9.276-.207.7-.446.978-.653a.969.969,0,0,0,.3-.3l-.153-.2c-.206-.276-.415-.534-.622-.81-.283-.378-.54-.743-.838-1.141-.436-.582-.88-1.175-1.318-1.739L42,32.167a4.159,4.159,0,0,0-.72.443,5.335,5.335,0,0,0-.689.612c.241.344.446.638.66.925.367.49.734.917,1.14,1.458a1.883,1.883,0,0,1,.35.615c-.031.023-1.908-.931-2.135-1.063-.673-.389-.819-.391-1.388-.746-.046-.061-.75.4-.925.533a2.658,2.658,0,0,0-.428.385c.578.921,1.254,1.866,1.958,2.806C40.773,39.412,41.637,40.5,42.608,41.8Z" fill="#000e3f"/>
        <path id="Path_557" data-name="Path 557" d="M45.047,34.516a19.288,19.288,0,0,0,1.644,2.421,7.05,7.05,0,0,0,.6.68,2.055,2.055,0,0,0,1.812.652,4.28,4.28,0,0,0,2.256-1.5,1.67,1.67,0,0,0,.235-1.929,10.424,10.424,0,0,0-1.515-2.455l-.018,0-.022.013c-.293.181-1.971.962-2.2,1.418a.039.039,0,0,1-.015.024c-.01.007-.01.007,0,.018l.007.011c.362.466.4.68.747,1.113.174-.033.623-.4.817-.474.106-.021.349.519.391.658a.656.656,0,0,1-.1.6,1.688,1.688,0,0,1-.613.514.878.878,0,0,1-.31.056c-.4-.05-.728-.451-.954-.746a12.249,12.249,0,0,1-1.768-3.229,1.132,1.132,0,0,1-.061-.367c.066-.281.333-.385.588-.529.424-.261,1.028.206,1.3.446a7.609,7.609,0,0,0,1.041-.6c.222-.151.315-.194.321-.257l-.03-.072c-.885-1.9-2.75-1.858-4.242-.653a2.342,2.342,0,0,0-.807,1.052,2.053,2.053,0,0,0,.13,1.645A12.213,12.213,0,0,0,45.047,34.516Z" fill="#000e3f"/>
      </g>
      <g id="Group_324" data-name="Group 324">
        <path id="Path_558" data-name="Path 558" d="M16.819,45.888a12.55,12.55,0,0,0-4.187-1.124,15.56,15.56,0,0,0-1.138-5.009.759.759,0,0,0-.7-.456h0a.758.758,0,0,0-.7.456,15.562,15.562,0,0,0-1.138,5,12.426,12.426,0,0,0-4.172,1.108.806.806,0,0,0,0,1.439,12.211,12.211,0,0,0,4.167,1.108c.134,1.435.67,5.013,1.524,5.391a.794.794,0,0,0,.321.068.806.806,0,0,0,.287-.054.791.791,0,0,0,.44-.42A15.376,15.376,0,0,0,12.64,48.4a12.566,12.566,0,0,0,4.179-1.122.778.778,0,0,0,0-1.391Z" fill="#fd8a02"/>
        <path id="Path_559" data-name="Path 559" d="M135.58,13.763a.78.78,0,0,0-.344-1.046h0a12.563,12.563,0,0,0-4.187-1.123,15.558,15.558,0,0,0-1.139-5.009.759.759,0,0,0-.7-.456h0a.758.758,0,0,0-.7.456,15.561,15.561,0,0,0-1.137,5,12.412,12.412,0,0,0-4.172,1.108.805.805,0,0,0,0,1.439,12.2,12.2,0,0,0,4.167,1.108c.134,1.435.67,5.013,1.524,5.39a.794.794,0,0,0,1.049-.405,15.37,15.37,0,0,0,1.122-4.993,12.568,12.568,0,0,0,4.179-1.122A.79.79,0,0,0,135.58,13.763Z" fill="#fd8a02"/>
        <path id="Path_560" data-name="Path 560" d="M64.92,16.189h0a12.575,12.575,0,0,0-4.187-1.124,15.558,15.558,0,0,0-1.138-5.009.759.759,0,0,0-.7-.456h0a.758.758,0,0,0-.7.456,15.562,15.562,0,0,0-1.138,5,12.408,12.408,0,0,0-4.171,1.108.805.805,0,0,0,0,1.439,12.207,12.207,0,0,0,4.167,1.108c.134,1.435.671,5.013,1.524,5.39a.794.794,0,0,0,1.049-.405A15.368,15.368,0,0,0,60.741,18.7a12.563,12.563,0,0,0,4.178-1.122.779.779,0,0,0,0-1.391Z" fill="#fd8a02"/>
        <path id="Path_561" data-name="Path 561" d="M147.034,131.915a12.583,12.583,0,0,0-4.187-1.123,15.585,15.585,0,0,0-1.138-5.008.761.761,0,0,0-.7-.456h0a.759.759,0,0,0-.7.457,15.56,15.56,0,0,0-1.137,5,12.409,12.409,0,0,0-4.172,1.108.805.805,0,0,0,0,1.438,12.214,12.214,0,0,0,4.166,1.108c.135,1.435.671,5.012,1.525,5.39a.795.795,0,0,0,1.048-.405,15.366,15.366,0,0,0,1.122-4.994,12.548,12.548,0,0,0,4.18-1.123.767.767,0,0,0,.344-.345A.78.78,0,0,0,147.034,131.915Z" fill="#fd8a02"/>
        <path id="Path_562" data-name="Path 562" d="M150.264,52.813h0a10.405,10.405,0,0,0-3.433-.93,12.865,12.865,0,0,0-.942-4.11.689.689,0,0,0-.638-.414h0a.687.687,0,0,0-.637.415,12.864,12.864,0,0,0-.942,4.1,10.258,10.258,0,0,0-3.421.917.728.728,0,0,0,0,1.3,10.117,10.117,0,0,0,3.418.917c.112,1.108.534,4.122,1.291,4.458a.72.72,0,0,0,.949-.367,12.748,12.748,0,0,0,.929-4.1,10.383,10.383,0,0,0,3.424-.928.705.705,0,0,0,0-1.261Z" fill="#fd8a02"/>
        <path id="Path_563" data-name="Path 563" d="M30.117,10.727h0a10.407,10.407,0,0,0-3.433-.93,12.885,12.885,0,0,0-.943-4.112.69.69,0,0,0-.638-.414h0a.689.689,0,0,0-.636.415,12.868,12.868,0,0,0-.942,4.1,10.263,10.263,0,0,0-3.421.917.728.728,0,0,0,0,1.3,10.14,10.14,0,0,0,3.419.917c.111,1.108.534,4.122,1.291,4.458a.719.719,0,0,0,.948-.367,12.713,12.713,0,0,0,.929-4.1,10.39,10.39,0,0,0,3.426-.928.7.7,0,0,0,.313-.313A.708.708,0,0,0,30.117,10.727Z" fill="#fd8a02"/>
      </g>
    </g>
  </g>
</svg>
