<svg xmlns="http://www.w3.org/2000/svg" xmlns:xlink="http://www.w3.org/1999/xlink" width="24" height="24" viewBox="0 0 24 24">
  <defs>
    <clipPath id="clip-path">
      <rect id="Rectangle_79" data-name="Rectangle 79" width="24" height="24" transform="translate(548 135)" fill="#236bae" stroke="#707070" stroke-width="1"/>
    </clipPath>
  </defs>
  <g id="Mask_Group_19" data-name="Mask Group 19" transform="translate(-548 -135)" clip-path="url(#clip-path)">
    <g id="digital-wallet_1_" data-name="digital-wallet (1)" transform="translate(548 135)">
      <g id="Electronic_Wallet">
        <path id="Path_57" data-name="Path 57" d="M20.509,12A1.091,1.091,0,1,1,21.6,10.908,1.091,1.091,0,0,1,20.509,12Zm0-1.309a.218.218,0,1,0,.218.218A.218.218,0,0,0,20.509,10.69Z" fill="#236bae"/>
        <path id="Path_58" data-name="Path 58" d="M19.968,5.235H18.744a.436.436,0,1,1,0-.873h1.224a.436.436,0,1,1,0,.873Z" fill="#236bae"/>
        <path id="Path_59" data-name="Path 59" d="M17.112,5.235H15.889a.436.436,0,1,1,0-.873h1.224a.436.436,0,1,1,0,.873Z" fill="#236bae"/>
        <path id="Path_60" data-name="Path 60" d="M14.257,5.235H13.033a.436.436,0,1,1,0-.873h1.224a.436.436,0,1,1,0,.873Z" fill="#236bae"/>
        <path id="Path_61" data-name="Path 61" d="M11.4,5.235H10.178a.436.436,0,1,1,0-.873H11.4a.436.436,0,1,1,0,.873Z" fill="#236bae"/>
        <path id="Path_62" data-name="Path 62" d="M8.546,5.235H7.322a.436.436,0,1,1,0-.873H8.546a.436.436,0,1,1,0,.873Z" fill="#236bae"/>
        <path id="Path_63" data-name="Path 63" d="M5.69,5.235H4.467a.436.436,0,1,1,0-.873H5.69a.436.436,0,0,1,0,.873Z" fill="#236bae"/>
        <path id="Path_64" data-name="Path 64" d="M19.968,17.454H18.744a.436.436,0,1,1,0-.873h1.224a.436.436,0,1,1,0,.873Z" fill="#236bae"/>
        <path id="Path_65" data-name="Path 65" d="M17.112,17.454H15.889a.436.436,0,1,1,0-.873h1.224a.436.436,0,0,1,0,.873Z" fill="#236bae"/>
        <path id="Path_66" data-name="Path 66" d="M14.257,17.454H13.033a.436.436,0,1,1,0-.873h1.224a.436.436,0,0,1,0,.873Z" fill="#236bae"/>
        <path id="Path_67" data-name="Path 67" d="M23.127,8.291V4.8a2.185,2.185,0,0,0-2.182-2.182H3.489A2.185,2.185,0,0,0,1.307,4.8v6.707A6.1,6.1,0,0,0,10.781,19.2H20.945a2.185,2.185,0,0,0,2.182-2.182V13.526A.883.883,0,0,0,24,12.644V9.173a.883.883,0,0,0-.873-.882ZM6.108,20.509a5.237,5.237,0,1,1,5.237-5.237A5.237,5.237,0,0,1,6.108,20.509Zm14.838-2.182H11.391A6.1,6.1,0,0,0,2.18,10.6V5.235h.655a.436.436,0,1,0,0-.873H2.261A1.307,1.307,0,0,1,3.489,3.49H20.945a1.307,1.307,0,0,1,1.229.873H21.6a.436.436,0,1,0,0,.873h.655V8.29H20.509a2.618,2.618,0,1,0,0,5.237h1.746v3.055H21.6a.436.436,0,1,0,0,.873h.574A1.307,1.307,0,0,1,20.945,18.327Zm2.182-5.683a.01.01,0,0,1-.01.01H20.509a1.746,1.746,0,1,1,0-3.491l2.618.01Z" fill="#236bae"/>
        <path id="Path_68" data-name="Path 68" d="M2.918,16.025A3.332,3.332,0,0,1,5,11.806a3.31,3.31,0,0,1,3.942,2.289.436.436,0,0,1-.272.554l-.02.006L3.84,16.034a2.524,2.524,0,0,0,4.6.384.436.436,0,0,1,.8.349,3.4,3.4,0,0,1-6.318-.743Zm2.322-3.38A2.38,2.38,0,0,0,3.65,15.181l4.284-1.229A2.377,2.377,0,0,0,5.241,12.645Z" fill="#236bae"/>
      </g>
    </g>
  </g>
</svg>
