<svg xmlns="http://www.w3.org/2000/svg" xmlns:xlink="http://www.w3.org/1999/xlink" width="16" height="16" viewBox="0 0 16 16">
  <defs>
    <clipPath id="clip-path">
      <rect id="Rectangle_8" data-name="Rectangle 8" width="16" height="16" transform="translate(867 462)" fill="#236bae" stroke="#707070" stroke-width="1"/>
    </clipPath>
  </defs>
  <g id="Mask_Group_4" data-name="Mask Group 4" transform="translate(-867 -462)" clip-path="url(#clip-path)">
    <g id="Page-1" transform="translate(867 462)">
      <g id="_010---Secure-Password" data-name="010---Secure-Password">
        <path id="Shape" d="M.8,13.067H2.133v1.6A1.335,1.335,0,0,0,3.467,16h9.067a1.335,1.335,0,0,0,1.333-1.333v-1.6H15.2a.8.8,0,0,0,.8-.8V9.6a.8.8,0,0,0-.8-.8H13.867V7.2a1.335,1.335,0,0,0-1.333-1.333V4.533a4.533,4.533,0,1,0-9.067,0V5.867A1.335,1.335,0,0,0,2.133,7.2V8.8H.8a.8.8,0,0,0-.8.8v2.667A.8.8,0,0,0,.8,13.067Zm12.533,1.6a.8.8,0,0,1-.8.8H3.467a.8.8,0,0,1-.8-.8v-1.6H13.333ZM4,4.533a4,4,0,0,1,8,0V5.867H10.933V4.533a2.933,2.933,0,1,0-5.867,0V5.867H4ZM5.6,5.867V4.533a2.4,2.4,0,1,1,4.8,0V5.867ZM2.667,7.2a.8.8,0,0,1,.8-.8h9.067a.8.8,0,0,1,.8.8V8.8H2.667ZM.533,9.6A.267.267,0,0,1,.8,9.333H15.2a.267.267,0,0,1,.267.267v2.667a.267.267,0,0,1-.267.267H.8a.267.267,0,0,1-.267-.267Z" fill="#236bae"/>
        <path id="Shape-2" data-name="Shape" d="M1.111,11.615a.267.267,0,0,0,.37.074l.385-.257v.3a.267.267,0,1,0,.533,0v-.3l.385.257a.267.267,0,1,0,.3-.444l-.468-.311.467-.311a.267.267,0,1,0-.3-.444l-.385.257v-.3a.267.267,0,1,0-.533,0v.3l-.385-.257a.267.267,0,0,0-.3.444l.468.311-.468.311a.267.267,0,0,0-.074.37Z" fill="#236bae"/>
        <path id="Shape-3" data-name="Shape" d="M4.045,11.615a.267.267,0,0,0,.37.074l.385-.257v.3a.267.267,0,1,0,.533,0v-.3l.385.257a.267.267,0,1,0,.3-.444l-.468-.311.467-.311a.267.267,0,1,0-.3-.444l-.385.257v-.3a.267.267,0,1,0-.533,0v.3l-.385-.257a.267.267,0,1,0-.3.444l.468.311-.467.311a.267.267,0,0,0-.075.37Z" fill="#236bae"/>
        <path id="Shape-4" data-name="Shape" d="M9.911,11.615a.267.267,0,0,0,.37.074l.385-.257v.3a.267.267,0,1,0,.533,0v-.3l.385.257a.267.267,0,0,0,.3-.444l-.468-.311.467-.311a.267.267,0,0,0-.3-.444l-.385.257v-.3a.267.267,0,1,0-.533,0v.3l-.385-.257a.267.267,0,1,0-.3.444l.468.311-.467.311a.267.267,0,0,0-.075.37Z" fill="#236bae"/>
        <path id="Shape-5" data-name="Shape" d="M6.978,11.615a.267.267,0,0,0,.37.074l.385-.257v.3a.267.267,0,1,0,.533,0v-.3l.385.257a.267.267,0,0,0,.3-.444l-.468-.311.467-.311a.267.267,0,0,0-.3-.444l-.385.257v-.3a.267.267,0,1,0-.533,0v.3l-.385-.257a.267.267,0,0,0-.3.444l.468.311-.467.311a.267.267,0,0,0-.075.37Z" fill="#236bae"/>
        <path id="Shape-6" data-name="Shape" d="M4.267,6.933h-.8A.267.267,0,0,0,3.2,7.2V8a.267.267,0,1,0,.533,0V7.467h.533a.267.267,0,1,0,0-.533Z" fill="#236bae"/>
        <path id="Shape-7" data-name="Shape" d="M13.067,12h1.6a.267.267,0,1,0,0-.533h-1.6a.267.267,0,0,0,0,.533Z" fill="#236bae"/>
      </g>
    </g>
  </g>
</svg>
