<svg xmlns="http://www.w3.org/2000/svg" xmlns:xlink="http://www.w3.org/1999/xlink" width="18" height="18" viewBox="0 0 18 18">
  <defs>
    <clipPath id="clip-path">
      <rect id="Rectangle_45" data-name="Rectangle 45" width="18" height="18" transform="translate(184 64)" fill="#236bae" stroke="#707070" stroke-width="1"/>
    </clipPath>
  </defs>
  <g id="Mask_Group_9" data-name="Mask Group 9" transform="translate(-184 -64)" clip-path="url(#clip-path)">
    <g id="hot-soup" transform="translate(183.938 63.935)">
      <path id="Path_12" data-name="Path 12" d="M4.867,7.411a.872.872,0,0,0-.2.9.721.721,0,0,0,.43.412,1.384,1.384,0,0,0,.5.084,3.185,3.185,0,0,0,1.3-.319A4.889,4.889,0,0,0,8.639,7.1a.441.441,0,0,0-.728-.5,4.023,4.023,0,0,1-1.4,1.092,2.179,2.179,0,0,1-.934.233.442.442,0,0,0-.715-.515Z" fill="#236bae"/>
      <path id="Path_13" data-name="Path 13" d="M.084,8.784c.114,1.5.853,6.648,5.626,8.285.37.576.594.633.684.656a10.89,10.89,0,0,0,2.669.312,10.931,10.931,0,0,0,2.618-.3,1.689,1.689,0,0,0,.787-.687,7.5,7.5,0,0,0,2.348-1.326.44.44,0,0,0,.115-.1C17.622,13.285,18,9.55,18.054,8.6c0-.03.009-.225.009-.23,0-1.67-4.05-2.135-6.959-2.253A10.62,10.62,0,0,1,15.811,2.4c.4-.192.782-.373,1.158-.579A.911.911,0,0,0,17.457.644a.9.9,0,0,0-1.03-.526,15.04,15.04,0,0,0-6.4,3.854c-.207.184-.4.359-.589.519a3.524,3.524,0,0,1-2.025.727,5.4,5.4,0,0,0-2.98,1.07C1.456,6.613.062,7.275.062,8.366a3.665,3.665,0,0,0,.021.417Zm4.081.883a13.9,13.9,0,0,1-1.8-.329c.2-.046.987-.185,1.163-.21A1.724,1.724,0,0,0,4.165,9.666Zm10.172,5.306a15.665,15.665,0,0,1-5.475,1.072.442.442,0,0,0,0,.883,16.308,16.308,0,0,0,2.789-.27,1.7,1.7,0,0,1-.219.231,10.041,10.041,0,0,1-2.369.266,10.057,10.057,0,0,1-2.388-.27,2.809,2.809,0,0,1-.294-.411.445.445,0,0,0-.244-.194c-3.62-1.162-4.714-4.51-5.046-6.462,1.089.522,3.334.981,7.972.981,2.03,0,6.078-.126,7.975-1.062A8.879,8.879,0,0,1,14.336,14.973ZM17.18,8.366c0,.006,0,.071-.007.181-.131.5-2.536,1.369-8.111,1.369-.989,0-1.865-.022-2.641-.061A5.753,5.753,0,0,0,8.605,8.81l.457,0a39.127,39.127,0,0,1,5.085.3.5.5,0,0,0,.06,0,.442.442,0,0,0,.058-.879,38.676,38.676,0,0,0-4.654-.3,11.9,11.9,0,0,0,.845-.953c4.745.127,6.724.963,6.724,1.39ZM7.479,6.1a4.329,4.329,0,0,0,2.541-.94c.189-.163.389-.341.6-.528A14.607,14.607,0,0,1,16.629.952l.01.027c-.016.017-.818.439-1.209.625A11.49,11.49,0,0,0,10.3,5.712c-1.544,2.2-3.213,3.369-4.825,3.369-.072,0-.134,0-.181,0-.012,0-1.173-.065-1.135-.829C4.226,6.96,6.053,6.18,7.479,6.1Zm-3.92,1.2a2.084,2.084,0,0,0-.278.919c0,.02,0,.038,0,.057q-.213.032-.416.067A10.719,10.719,0,0,0,1.1,8.78C.932,8.695.945,8.388.945,8.366.945,8.1,1.529,7.619,3.559,7.294Z" fill="#236bae"/>
      <path id="Path_14" data-name="Path 14" d="M7.423,3.8a.44.44,0,0,0,.619.037.444.444,0,0,0,.043-.622.459.459,0,0,1-.036-.668,1.224,1.224,0,0,0,.426-.855,1.568,1.568,0,0,0-.4-1.042.441.441,0,0,0-.656.591.443.443,0,0,1,.033.652A1.326,1.326,0,0,0,7.423,3.8Z" fill="#236bae"/>
      <path id="Path_15" data-name="Path 15" d="M5.055,4.571a.439.439,0,0,0,.619.037.443.443,0,0,0,.043-.622.458.458,0,0,1-.036-.668,1.225,1.225,0,0,0,.426-.856,1.568,1.568,0,0,0-.4-1.042.442.442,0,0,0-.655.592.442.442,0,0,1,.033.65,1.325,1.325,0,0,0-.034,1.908Z" fill="#236bae"/>
    </g>
  </g>
</svg>
