<svg xmlns="http://www.w3.org/2000/svg" xmlns:xlink="http://www.w3.org/1999/xlink" width="12" height="12" viewBox="0 0 12 12">
  <defs>
    <clipPath id="clip-path">
      <rect id="Rectangle_7" data-name="Rectangle 7" width="12" height="12" transform="translate(1184 39)" fill="#fff" stroke="#707070" stroke-width="1"/>
    </clipPath>
  </defs>
  <g id="Mask_Group_1" data-name="Mask Group 1" transform="translate(-1184 -39)" clip-path="url(#clip-path)">
    <g id="user" transform="translate(1184.994 39)">
      <path id="Path_1" data-name="Path 1" d="M4.93,5.78a2.8,2.8,0,0,0,2.044-.847A2.8,2.8,0,0,0,7.82,2.89,2.8,2.8,0,0,0,6.974.847,2.8,2.8,0,0,0,4.93,0,2.8,2.8,0,0,0,2.887.847,2.8,2.8,0,0,0,2.04,2.89a2.8,2.8,0,0,0,.847,2.044A2.8,2.8,0,0,0,4.93,5.78ZM3.384,1.344A2.089,2.089,0,0,1,4.93.7a2.09,2.09,0,0,1,1.546.641A2.09,2.09,0,0,1,7.117,2.89a2.089,2.089,0,0,1-.641,1.546,2.089,2.089,0,0,1-1.546.641,2.09,2.09,0,0,1-1.546-.641A2.089,2.089,0,0,1,2.743,2.89a2.089,2.089,0,0,1,.641-1.546Zm0,0"/>
      <path id="Path_2" data-name="Path 2" d="M9.987,9.227a7.139,7.139,0,0,0-.1-.758A5.974,5.974,0,0,0,9.7,7.707,3.766,3.766,0,0,0,9.39,7a2.68,2.68,0,0,0-.473-.616,2.084,2.084,0,0,0-.679-.427A2.346,2.346,0,0,0,7.372,5.8.88.88,0,0,0,6.9,6c-.141.092-.306.2-.489.315a2.8,2.8,0,0,1-.633.279,2.459,2.459,0,0,1-1.549,0A2.8,2.8,0,0,1,3.6,6.311C3.416,6.2,3.251,6.089,3.108,6a.879.879,0,0,0-.47-.2,2.343,2.343,0,0,0-.867.157,2.082,2.082,0,0,0-.679.427A2.681,2.681,0,0,0,.621,7a3.773,3.773,0,0,0-.313.711,5.988,5.988,0,0,0-.186.762,7.09,7.09,0,0,0-.1.759C.008,9.457,0,9.7,0,9.936a1.993,1.993,0,0,0,.592,1.508A2.13,2.13,0,0,0,2.117,12H7.895a2.13,2.13,0,0,0,1.525-.556,1.992,1.992,0,0,0,.592-1.508c0-.242-.008-.48-.024-.709ZM8.935,10.934a1.434,1.434,0,0,1-1.04.362H2.117a1.434,1.434,0,0,1-1.04-.362,1.3,1.3,0,0,1-.373-1c0-.225.007-.447.022-.66a6.4,6.4,0,0,1,.088-.683,5.281,5.281,0,0,1,.164-.672,3.072,3.072,0,0,1,.255-.578,1.987,1.987,0,0,1,.347-.455,1.382,1.382,0,0,1,.452-.281A1.618,1.618,0,0,1,2.585,6.5c.025.013.068.038.14.084.145.094.311.2.5.319a3.484,3.484,0,0,0,.795.355A3.161,3.161,0,0,0,6,7.259a3.488,3.488,0,0,0,.8-.355c.189-.12.35-.225.5-.319.071-.046.115-.071.14-.084a1.619,1.619,0,0,1,.554.107,1.384,1.384,0,0,1,.452.281,1.982,1.982,0,0,1,.347.455,3.061,3.061,0,0,1,.255.578,5.269,5.269,0,0,1,.164.672,6.449,6.449,0,0,1,.088.683h0c.015.212.022.434.023.66a1.3,1.3,0,0,1-.374,1Zm0,0"/>
    </g>
  </g>
</svg>
